STARTFONT 2.1
COMMENT
COMMENT Converted from OpenType font "Q:\font stuff\winfont\White Rabbit.ttf" by "otf2bdf 3.0".
COMMENT
FONT -FreeType-White Rabbit-Medium-R-Normal--159-1600-72-72-P-663-ISO10646-1
SIZE 160 72 72
FONTBOUNDINGBOX 84 123 0 -16
STARTPROPERTIES 19
FOUNDRY "FreeType"
FAMILY_NAME "White Rabbit"
WEIGHT_NAME "Medium"
SLANT "R"
SETWIDTH_NAME "Normal"
ADD_STYLE_NAME ""
PIXEL_SIZE 159
POINT_SIZE 1600
RESOLUTION_X 72
RESOLUTION_Y 72
SPACING "P"
AVERAGE_WIDTH 663
CHARSET_REGISTRY "ISO10646"
CHARSET_ENCODING "1"
FONT_ASCENT 106
FONT_DESCENT 15
COPYRIGHT "Copyright © 1999 by Matthew Welch. All Rights Reserved."
_OTF_FONTFILE "Q:\font stuff\winfont\White Rabbit.ttf"
_OTF_PSNAME "WhiteRabbit"
ENDPROPERTIES
CHARS 96
STARTCHAR 0020
ENCODING 32
SWIDTH 568 0
DWIDTH 91 0
BBX 0 0 0 0
BITMAP
ENDCHAR
STARTCHAR 0021
ENCODING 33
SWIDTH 568 0
DWIDTH 91 0
BBX 30 107 23 0
BITMAP
03FFFF00
0FFFFFE0
3FFFFFF0
7FFFFFF8
7FFFFFF8
FFFFFFFC
FFFFFFFC
FFFFFFFC
FFFFFFFC
FFFFFFFC
FFFFFFFC
FFFFFFFC
FFFFFFFC
FFFFFFFC
FFFFFFFC
FFFFFFFC
FFFFFFFC
FFFFFFFC
FFFFFFFC
FFFFFFFC
FFFFFFFC
FFFFFFFC
FFFFFFFC
FFFFFFFC
FFFFFFFC
FFFFFFFC
FFFFFFFC
FFFFFFFC
FFFFFFFC
FFFFFFFC
FFFFFFFC
FFFFFFFC
FFFFFFFC
FFFFFFFC
FFFFFFFC
FFFFFFFC
FFFFFFFC
FFFFFFFC
FFFFFFFC
FFFFFFFC
FFFFFFFC
FFFFFFFC
FFFFFFFC
FFFFFFFC
FFFFFFFC
FFFFFFFC
FFFFFFFC
FFFFFFFC
FFFFFFFC
FFFFFFFC
FFFFFFFC
FFFFFFFC
FFFFFFFC
FFFFFFFC
FFFFFFFC
FFFFFFFC
FFFFFFFC
7FFFFFF8
3FFFFFF8
1FFFFFF0
0FFFFFC0
00000000
00000000
00000000
00000000
00000000
00000000
00000000
00000000
00000000
00000000
00000000
00000000
00000000
00000000
00000000
00000000
0FFFFFC0
3FFFFFF0
3FFFFFF8
7FFFFFF8
FFFFFFFC
FFFFFFFC
FFFFFFFC
FFFFFFFC
FFFFFFFC
FFFFFFFC
FFFFFFFC
FFFFFFFC
FFFFFFFC
FFFFFFFC
FFFFFFFC
FFFFFFFC
FFFFFFFC
FFFFFFFC
FFFFFFFC
FFFFFFFC
FFFFFFFC
FFFFFFFC
FFFFFFFC
FFFFFFFC
FFFFFFFC
7FFFFFFC
7FFFFFF8
3FFFFFF0
1FFFFFE0
07FFFF80
ENDCHAR
STARTCHAR 0022
ENCODING 34
SWIDTH 568 0
DWIDTH 91 0
BBX 46 31 23 76
BITMAP
038000000E00
0FE000003FC0
3FF800007FE0
7FFC0000FFF0
7FFC0001FFF8
FFFE0001FFF8
FFFE0003FFF8
FFFE0003FFFC
FFFE0003FFFC
FFFE0003FFFC
FFFE0003FFFC
FFFE0003FFFC
FFFE0003FFFC
FFFE0003FFFC
FFFE0003FFFC
FFFE0003FFFC
FFFE0003FFFC
FFFE0003FFFC
FFFE0003FFFC
FFFE0003FFFC
FFFE0003FFFC
FFFE0003FFFC
FFFE0003FFFC
FFFE0003FFFC
FFFE0003FFF8
FFFE0001FFF8
7FFC0001FFF8
7FFC0000FFF0
3FF800007FE0
1FF000003FC0
07C000000F00
ENDCHAR
STARTCHAR 0023
ENCODING 35
SWIDTH 568 0
DWIDTH 91 0
BBX 76 107 8 0
BITMAP
0000070000001C000000
00001FC000007F800000
00007FF00000FFC00000
0000FFF80001FFE00000
0000FFF80003FFF00000
0001FFFC0003FFF00000
0001FFFC0007FFF00000
0001FFFC0007FFF80000
0001FFFC0007FFF80000
0001FFFC0007FFF80000
0001FFFC0007FFF80000
0001FFFC0007FFF80000
0001FFFC0007FFF80000
0001FFFC0007FFF80000
0001FFFC0007FFF80000
0001FFFC0007FFF80000
0001FFFC0007FFF80000
0001FFFC0007FFF80000
0001FFFC0007FFF80000
0001FFFC0007FFF80000
0001FFFC0007FFF80000
0001FFFC0007FFF80000
0001FFFC0007FFF80000
0001FFFC0007FFF80000
0001FFFC0007FFF80000
0001FFFC0007FFF80000
0001FFFC0007FFF80000
0001FFFC0007FFF80000
0001FFFC0007FFF80000
0001FFFC0007FFF80000
0001FFFC0007FFF80000
0FFFFFFFFFFFFFFFFE00
1FFFFFFFFFFFFFFFFF80
3FFFFFFFFFFFFFFFFFC0
7FFFFFFFFFFFFFFFFFE0
FFFFFFFFFFFFFFFFFFE0
FFFFFFFFFFFFFFFFFFF0
FFFFFFFFFFFFFFFFFFF0
FFFFFFFFFFFFFFFFFFF0
FFFFFFFFFFFFFFFFFFF0
FFFFFFFFFFFFFFFFFFF0
FFFFFFFFFFFFFFFFFFE0
7FFFFFFFFFFFFFFFFFE0
3FFFFFFFFFFFFFFFFFC0
1FFFFFFFFFFFFFFFFF80
0FFFFFFFFFFFFFFFFE00
0001FFFC0007FFF80000
0001FFFC0007FFF80000
0001FFFC0007FFF80000
0001FFFC0007FFF80000
0001FFFC0007FFF80000
0001FFFC0007FFF80000
0001FFFC0007FFF80000
0001FFFC0007FFF80000
0001FFFC0007FFF80000
0001FFFC0007FFF80000
0001FFFC0007FFF80000
0001FFFC0007FFF80000
0001FFFC0007FFF80000
0001FFFC0007FFF80000
0001FFFC0007FFF80000
03FFFFFFFFFFFFFFFC00
1FFFFFFFFFFFFFFFFF00
3FFFFFFFFFFFFFFFFF80
7FFFFFFFFFFFFFFFFFC0
FFFFFFFFFFFFFFFFFFE0
FFFFFFFFFFFFFFFFFFE0
FFFFFFFFFFFFFFFFFFF0
FFFFFFFFFFFFFFFFFFF0
FFFFFFFFFFFFFFFFFFF0
FFFFFFFFFFFFFFFFFFF0
FFFFFFFFFFFFFFFFFFE0
7FFFFFFFFFFFFFFFFFE0
7FFFFFFFFFFFFFFFFFC0
3FFFFFFFFFFFFFFFFF80
1FFFFFFFFFFFFFFFFF00
01FFFFFFFFFFFFFFF800
0001FFFC0007FFF80000
0001FFFC0007FFF80000
0001FFFC0007FFF80000
0001FFFC0007FFF80000
0001FFFC0007FFF80000
0001FFFC0007FFF80000
0001FFFC0007FFF80000
0001FFFC0007FFF80000
0001FFFC0007FFF80000
0001FFFC0007FFF80000
0001FFFC0007FFF80000
0001FFFC0007FFF80000
0001FFFC0007FFF80000
0001FFFC0007FFF80000
0001FFFC0007FFF80000
0001FFFC0007FFF80000
0001FFFC0007FFF80000
0001FFFC0007FFF80000
0001FFFC0007FFF80000
0001FFFC0007FFF80000
0001FFFC0007FFF80000
0001FFFC0007FFF80000
0001FFFC0007FFF80000
0001FFFC0007FFF80000
0001FFFC0003FFF00000
0000FFF80003FFF00000
0000FFF80001FFE00000
00007FF00001FFE00000
00003FE00000FF800000
00000F8000003F000000
ENDCHAR
STARTCHAR 0024
ENCODING 36
SWIDTH 568 0
DWIDTH 91 0
BBX 76 107 8 0
BITMAP
000000000E0000000000
000000003FC000000000
00000000FFE000000000
00000000FFF000000000
00000001FFF000000000
00000003FFF800000000
00000003FFF800000000
00000003FFF800000000
00000003FFF800000000
00000003FFF800000000
00000003FFF800000000
00000003FFF800000000
00000003FFF800000000
00000003FFF800000000
00000003FFF800000000
00000003FFF800000000
0000FFFFFFFFFFFFFF00
0007FFFFFFFFFFFFFF80
000FFFFFFFFFFFFFFFC0
003FFFFFFFFFFFFFFFE0
007FFFFFFFFFFFFFFFE0
01FFFFFFFFFFFFFFFFF0
03FFFFFFFFFFFFFFFFF0
07FFFFFFFFFFFFFFFFF0
07FFFFFFFFFFFFFFFFF0
0FFFFFFFFFFFFFFFFFE0
1FFFFFFFFFFFFFFFFFE0
3FFFFFFFFFFFFFFFFFC0
3FFFFFFFFFFFFFFFFFC0
7FFFFFFFFFFFFFFFFF00
7FFFFFFFFFFFFFFFFC00
7FFFE003FFF800000000
FFFFC003FFF800000000
FFFF8003FFF800000000
FFFF0003FFF800000000
FFFE0003FFF800000000
FFFE0003FFF800000000
FFFE0003FFF800000000
FFFE0003FFF800000000
FFFE0003FFF800000000
FFFE0003FFF800000000
FFFF0003FFF800000000
FFFF0003FFF800000000
FFFF8003FFF800000000
FFFFC003FFF800000000
7FFFF003FFF800000000
7FFFFFFFFFFFFF800000
3FFFFFFFFFFFFFF80000
3FFFFFFFFFFFFFFE0000
1FFFFFFFFFFFFFFF8000
1FFFFFFFFFFFFFFFC000
0FFFFFFFFFFFFFFFE000
07FFFFFFFFFFFFFFF800
03FFFFFFFFFFFFFFFC00
01FFFFFFFFFFFFFFFC00
00FFFFFFFFFFFFFFFE00
007FFFFFFFFFFFFFFF00
003FFFFFFFFFFFFFFF80
000FFFFFFFFFFFFFFF80
0003FFFFFFFFFFFFFFC0
0000FFFFFFFFFFFFFFC0
00000003FFF801FFFFE0
00000003FFF8007FFFE0
00000003FFF8003FFFE0
00000003FFF8001FFFE0
00000003FFF8000FFFF0
00000003FFF8000FFFF0
00000003FFF8000FFFF0
00000003FFF80007FFF0
00000003FFF80007FFF0
00000003FFF8000FFFF0
00000003FFF8000FFFF0
00000003FFF8000FFFF0
00000003FFF8001FFFE0
00000003FFF8003FFFE0
00000003FFF8007FFFE0
00000003FFF807FFFFC0
0FFFFFFFFFFFFFFFFFC0
3FFFFFFFFFFFFFFFFFC0
7FFFFFFFFFFFFFFFFF80
7FFFFFFFFFFFFFFFFF80
FFFFFFFFFFFFFFFFFF00
FFFFFFFFFFFFFFFFFE00
FFFFFFFFFFFFFFFFFC00
FFFFFFFFFFFFFFFFF800
FFFFFFFFFFFFFFFFF000
FFFFFFFFFFFFFFFFE000
FFFFFFFFFFFFFFFFC000
7FFFFFFFFFFFFFFF8000
3FFFFFFFFFFFFFFE0000
1FFFFFFFFFFFFFF00000
07FFFFFFFFFFFF000000
00000003FFF800000000
00000003FFF800000000
00000003FFF800000000
00000003FFF800000000
00000003FFF800000000
00000003FFF800000000
00000003FFF800000000
00000003FFF800000000
00000003FFF800000000
00000003FFF800000000
00000001FFF800000000
00000001FFF000000000
00000000FFE000000000
000000007FC000000000
000000001F0000000000
ENDCHAR
STARTCHAR 0025
ENCODING 37
SWIDTH 568 0
DWIDTH 91 0
BBX 76 107 8 0
BITMAP
03FFFF00000000001C00
1FFFFFC000000000FF00
3FFFFFF000000001FF80
7FFFFFF800000003FFC0
FFFFFFF800000007FFE0
FFFFFFFC00000007FFE0
FFFFFFFC00000007FFF0
FFFFFFFC00000007FFF0
FFFFFFFC00000007FFF0
FFFFFFFC00000007FFF0
FFFFFFFC00000007FFF0
FFFFFFFC00000007FFF0
FFFFFFFC00000007FFF0
FFFFFFFC00000007FFF0
FFFFFFFC00000007FFF0
FFFFFFFC00000007FFF0
FFFFFFFC00000007FFF0
FFFFFFFC00000007FFF0
FFFFFFFC00000007FFF0
FFFFFFFC00000007FFF0
FFFFFFFC0000000FFFF0
FFFFFFFC0000001FFFF0
FFFFFFFC0000003FFFF0
FFFFFFFC0000007FFFF0
FFFFFFFC000000FFFFF0
FFFFFFFC000001FFFFE0
FFFFFFF8000003FFFFE0
7FFFFFF8000007FFFFC0
3FFFFFF000000FFFFFC0
1FFFFFE000001FFFFF80
07FFFF8000003FFFFF00
0000000000007FFFFE00
000000000000FFFFFC00
000000000001FFFFF800
000000000003FFFFF000
000000000007FFFFE000
00000000000FFFFFC000
00000000001FFFFF8000
00000000003FFFFF0000
00000000007FFFFE0000
0000000000FFFFFC0000
0000000001FFFFF80000
0000000003FFFFF00000
0000000007FFFFE00000
000000000FFFFF800000
000000001FFFFF000000
000000003FFFFE000000
000000007FFFFC000000
00000000FFFFF8000000
00000001FFFFF0000000
00000003FFFFE0000000
00000007FFFFC0000000
0000000FFFFF80000000
0000001FFFFF00000000
0000003FFFFE00000000
0000007FFFFC00000000
000000FFFFF800000000
000001FFFFF000000000
000003FFFFE000000000
000007FFFFC000000000
00000FFFFF8000000000
00001FFFFF0000000000
00003FFFFE0000000000
00007FFFFC0000000000
0000FFFFF80000000000
0001FFFFF00000000000
0003FFFFE00000000000
0007FFFFC00000000000
000FFFFF800000000000
001FFFFF000000000000
003FFFFE000000000000
007FFFFC000000000000
00FFFFF8000000000000
01FFFFF0000000000000
03FFFFE0000000000000
07FFFFC0000000000000
0FFFFF80000000000000
1FFFFF0000007FFFFF00
3FFFFE000000FFFFFF80
7FFFFC000001FFFFFFC0
7FFFF8000003FFFFFFE0
FFFFF0000003FFFFFFE0
FFFFE0000007FFFFFFF0
FFFFC0000007FFFFFFF0
FFFF80000007FFFFFFF0
FFFF00000007FFFFFFF0
FFFE00000007FFFFFFF0
FFFE00000007FFFFFFF0
FFFE00000007FFFFFFF0
FFFE00000007FFFFFFF0
FFFE00000007FFFFFFF0
FFFE00000007FFFFFFF0
FFFE00000007FFFFFFF0
FFFE00000007FFFFFFF0
FFFE00000007FFFFFFF0
FFFE00000007FFFFFFF0
FFFE00000007FFFFFFF0
FFFE00000007FFFFFFF0
FFFE00000007FFFFFFF0
FFFE00000007FFFFFFF0
FFFE00000007FFFFFFF0
FFFE00000003FFFFFFF0
FFFC00000003FFFFFFE0
7FFC00000001FFFFFFE0
3FF800000001FFFFFFC0
1FF000000000FFFFFF80
07C0000000003FFFFE00
ENDCHAR
STARTCHAR 0026
ENCODING 38
SWIDTH 568 0
DWIDTH 91 0
BBX 76 107 8 0
BITMAP
00000700000000000000
0001FFFC000000000000
0007FFFF000000000000
001FFFFFC00000000000
003FFFFFE00000000000
00FFFFFFF80000000000
01FFFFFFFC0000000000
03FFFFFFFE0000000000
07FFFFFFFF0000000000
0FFFFFFFFF0000000000
0FFFFFFFFF8000000000
1FFFFFFFFFC000000000
3FFFFFFFFFE000000000
3FFFFFFFFFE000000000
7FFFFFFFFFF000000000
7FFFFFFFFFF000000000
7FFFE03FFFF000000000
FFFFC01FFFF800000000
FFFF800FFFF800000000
FFFF0007FFF800000000
FFFE0003FFF800000000
FFFE0003FFF800000000
FFFE0003FFF800000000
FFFE0003FFF800000000
FFFE0003FFF800000000
FFFE0003FFF800000000
FFFE0003FFF800000000
FFFE0003FFF800000000
FFFE0003FFF800000000
FFFE0003FFF800000000
FFFE0003FFF800000000
FFFE0003FFF800000000
FFFE0003FFF800000000
FFFE0003FFF800000000
FFFE0003FFF800000000
FFFE0003FFF800000000
FFFF0007FFF800000000
FFFF800FFFF800000000
FFFFC01FFFF800000000
FFFFE03FFFF800000000
FFFFF07FFFF800000000
FFFFF8FFFFF800000000
7FFFFDFFFFF000000000
3FFFFFFFFFE000000000
1FFFFFFFFFC000000000
0FFFFFFFFF8000000000
07FFFFFFFF0000000000
03FFFFFFFE0000000000
01FFFFFFFC0000000000
00FFFFFFF80000000000
007FFFFFF00000000000
003FFFFFE00000000000
001FFFFFC00000000000
000FFFFF800000000000
001FFFFFC00000000000
003FFFFFE00000000000
007FFFFFF00000000000
00FFFFFFF80000000000
01FFFFFFFC0000000000
03FFFFFFFE0000000000
07FFFFFFFF0000000000
0FFFFFFFFF8000003C00
1FFFFFFFFFC00000FF00
3FFFFFFFFFE00001FF80
7FFFFDFFFFF00003FFC0
FFFFF8FFFFF80007FFE0
FFFFF07FFFFC000FFFE0
FFFFE03FFFFE001FFFF0
FFFFC01FFFFF003FFFF0
FFFFC00FFFFF807FFFF0
FFFF8007FFFFC0FFFFF0
FFFF0003FFFFE1FFFFE0
FFFE0001FFFFF3FFFFE0
FFFE0000FFFFFFFFFFC0
FFFE00007FFFFFFFFF80
FFFE00003FFFFFFFFF00
FFFE00001FFFFFFFFE00
FFFE00000FFFFFFFFC00
FFFE000007FFFFFFF800
FFFE000003FFFFFFF000
FFFE000001FFFFFFE000
FFFE000000FFFFFFC000
FFFE0000007FFFFF8000
FFFE0000003FFFFF0000
FFFE0000003FFFFF0000
FFFE0000007FFFFF8000
FFFE000000FFFFFFC000
FFFF000001FFFFFFE000
FFFF000003FFFFFFF000
FFFF800007FFFFFFF800
FFFFC0000FFFFFFFFC00
7FFFF8001FFFFFFFFE00
7FFFFFFFFFFFFFFFFF00
3FFFFFFFFFFFFFFFFF80
3FFFFFFFFFFFFFFFFFC0
1FFFFFFFFFFFF7FFFFE0
1FFFFFFFFFFFE3FFFFE0
0FFFFFFFFFFFC1FFFFF0
07FFFFFFFFFF80FFFFF0
03FFFFFFFFFF007FFFF0
01FFFFFFFFFE001FFFF0
00FFFFFFFFFC000FFFF0
007FFFFFFFF80007FFE0
001FFFFFFFF00003FFE0
000FFFFFFFE00001FFC0
0003FFFFFFC00000FF80
00003FFFFF0000003E00
ENDCHAR
STARTCHAR 0027
ENCODING 39
SWIDTH 568 0
DWIDTH 91 0
BBX 15 31 38 76
BITMAP
0380
0FF0
3FF8
3FFC
7FFC
FFFE
FFFE
FFFE
FFFE
FFFE
FFFE
FFFE
FFFE
FFFE
FFFE
FFFE
FFFE
FFFE
FFFE
FFFE
FFFE
FFFE
FFFE
FFFE
FFFE
FFFE
7FFE
7FFC
3FF8
1FF0
03C0
ENDCHAR
STARTCHAR 0028
ENCODING 40
SWIDTH 568 0
DWIDTH 91 0
BBX 31 107 38 0
BITMAP
00000700
0000FFE0
0007FFF0
000FFFF8
003FFFFC
007FFFFC
00FFFFFC
01FFFFFE
03FFFFFE
07FFFFFC
0FFFFFFC
1FFFFFFC
1FFFFFF8
3FFFFFF0
3FFFFFE0
7FFFFF00
7FFFE000
7FFFC000
7FFF8000
FFFF0000
FFFF0000
FFFF0000
FFFE0000
FFFE0000
FFFE0000
FFFE0000
FFFE0000
FFFE0000
FFFE0000
FFFE0000
FFFE0000
FFFE0000
FFFE0000
FFFE0000
FFFE0000
FFFE0000
FFFE0000
FFFE0000
FFFE0000
FFFE0000
FFFE0000
FFFE0000
FFFE0000
FFFE0000
FFFE0000
FFFE0000
FFFE0000
FFFE0000
FFFE0000
FFFE0000
FFFE0000
FFFE0000
FFFE0000
FFFE0000
FFFE0000
FFFE0000
FFFE0000
FFFE0000
FFFE0000
FFFE0000
FFFE0000
FFFE0000
FFFE0000
FFFE0000
FFFE0000
FFFE0000
FFFE0000
FFFE0000
FFFE0000
FFFE0000
FFFE0000
FFFE0000
FFFE0000
FFFE0000
FFFE0000
FFFE0000
FFFE0000
FFFE0000
FFFE0000
FFFE0000
FFFE0000
FFFE0000
FFFE0000
FFFE0000
FFFE0000
FFFE0000
FFFF0000
FFFF0000
7FFF8000
7FFFC000
7FFFE000
7FFFF800
3FFFFFC0
3FFFFFF0
1FFFFFF8
1FFFFFF8
0FFFFFFC
07FFFFFC
07FFFFFE
03FFFFFE
01FFFFFE
00FFFFFC
003FFFFC
001FFFF8
0007FFF8
0001FFE0
00003FC0
ENDCHAR
STARTCHAR 0029
ENCODING 41
SWIDTH 568 0
DWIDTH 91 0
BBX 30 107 23 0
BITMAP
03800000
0FFE0000
3FFF8000
7FFFE000
7FFFF000
FFFFFC00
FFFFFE00
FFFFFF00
FFFFFF80
FFFFFF80
FFFFFFC0
7FFFFFE0
7FFFFFF0
3FFFFFF0
0FFFFFF8
01FFFFF8
001FFFF8
000FFFFC
0007FFFC
0003FFFC
0001FFFC
0001FFFC
0001FFFC
0001FFFC
0001FFFC
0001FFFC
0001FFFC
0001FFFC
0001FFFC
0001FFFC
0001FFFC
0001FFFC
0001FFFC
0001FFFC
0001FFFC
0001FFFC
0001FFFC
0001FFFC
0001FFFC
0001FFFC
0001FFFC
0001FFFC
0001FFFC
0001FFFC
0001FFFC
0001FFFC
0001FFFC
0001FFFC
0001FFFC
0001FFFC
0001FFFC
0001FFFC
0001FFFC
0001FFFC
0001FFFC
0001FFFC
0001FFFC
0001FFFC
0001FFFC
0001FFFC
0001FFFC
0001FFFC
0001FFFC
0001FFFC
0001FFFC
0001FFFC
0001FFFC
0001FFFC
0001FFFC
0001FFFC
0001FFFC
0001FFFC
0001FFFC
0001FFFC
0001FFFC
0001FFFC
0001FFFC
0001FFFC
0001FFFC
0001FFFC
0001FFFC
0001FFFC
0001FFFC
0001FFFC
0001FFFC
0001FFFC
0001FFFC
0003FFFC
0003FFFC
0007FFFC
000FFFF8
007FFFF8
0FFFFFF8
1FFFFFF0
3FFFFFF0
7FFFFFE0
FFFFFFE0
FFFFFFC0
FFFFFF80
FFFFFF00
FFFFFE00
FFFFFC00
7FFFF800
7FFFE000
3FFFC000
1FFF0000
07F00000
ENDCHAR
STARTCHAR 002A
ENCODING 42
SWIDTH 568 0
DWIDTH 91 0
BBX 76 77 8 30
BITMAP
0000070000001C000000
00001FC000007F800000
00007FF00000FFC00000
0000FFF00001FFE00000
0000FFF80001FFF00000
0001FFF80003FFF00000
0001FFFC0003FFF00000
0001FFFC0007FFF80000
0001FFFE0007FFF80000
0001FFFE000FFFF00000
0001FFFF000FFFF00000
0000FFFF001FFFF00000
0000FFFF801FFFE00000
00007FFF803FFFC00000
00003FFFC03FFFC00000
00003FFFC07FFF800000
00001FFFE07FFF800000
00001FFFE0FFFF000000
00000FFFF0FFFF000000
00000FFFF1FFFE000000
000007FFF9FFFC000000
000003FFFBFFFC000000
000003FFFFFFF8000000
000001FFFFFFF8000000
000001FFFFFFF0000000
000000FFFFFFF0000000
000000FFFFFFE0000000
0000007FFFFFE0000000
0000007FFFFFC0000000
0000003FFFFFC0000000
0000003FFFFF80000000
0FFFFFFFFFFFFFFFFE00
1FFFFFFFFFFFFFFFFF80
3FFFFFFFFFFFFFFFFFC0
7FFFFFFFFFFFFFFFFFE0
FFFFFFFFFFFFFFFFFFE0
FFFFFFFFFFFFFFFFFFF0
FFFFFFFFFFFFFFFFFFF0
FFFFFFFFFFFFFFFFFFF0
FFFFFFFFFFFFFFFFFFF0
FFFFFFFFFFFFFFFFFFF0
FFFFFFFFFFFFFFFFFFE0
7FFFFFFFFFFFFFFFFFE0
3FFFFFFFFFFFFFFFFFC0
1FFFFFFFFFFFFFFFFF80
0FFFFFFFFFFFFFFFFE00
0000003FFFFF80000000
0000003FFFFFC0000000
0000007FFFFFC0000000
0000007FFFFFE0000000
000000FFFFFFE0000000
000000FFFFFFF0000000
000001FFFFFFF0000000
000003FFFFFFF8000000
000003FFFFFFF8000000
000007FFFBFFFC000000
000007FFF9FFFE000000
00000FFFF1FFFE000000
00000FFFF0FFFF000000
00001FFFE0FFFF000000
00001FFFE07FFF800000
00003FFFC07FFF800000
00003FFFC03FFFC00000
00007FFF803FFFC00000
0000FFFF801FFFE00000
0000FFFF001FFFF00000
0001FFFF000FFFF00000
0001FFFE000FFFF00000
0001FFFE0007FFF80000
0001FFFC0007FFF80000
0001FFFC0003FFF00000
0001FFF80003FFF00000
0000FFF80001FFF00000
0000FFF00001FFE00000
00007FF00000FFC00000
00001FC000007F800000
00000200000000000000
ENDCHAR
STARTCHAR 002B
ENCODING 43
SWIDTH 568 0
DWIDTH 91 0
BBX 76 76 8 16
BITMAP
000000003F8000000000
000000007FE000000000
00000000FFF000000000
00000001FFF000000000
00000001FFF800000000
00000003FFF800000000
00000003FFF800000000
00000003FFF800000000
00000003FFF800000000
00000003FFF800000000
00000003FFF800000000
00000003FFF800000000
00000003FFF800000000
00000003FFF800000000
00000003FFF800000000
00000003FFF800000000
00000003FFF800000000
00000003FFF800000000
00000003FFF800000000
00000003FFF800000000
00000003FFF800000000
00000003FFF800000000
00000003FFF800000000
00000003FFF800000000
00000003FFF800000000
00000003FFF800000000
00000003FFF800000000
00000003FFF800000000
00000003FFF800000000
00000003FFF800000000
07FFFFFFFFFFFFFFFE00
1FFFFFFFFFFFFFFFFF00
3FFFFFFFFFFFFFFFFFC0
7FFFFFFFFFFFFFFFFFC0
FFFFFFFFFFFFFFFFFFE0
FFFFFFFFFFFFFFFFFFE0
FFFFFFFFFFFFFFFFFFF0
FFFFFFFFFFFFFFFFFFF0
FFFFFFFFFFFFFFFFFFF0
FFFFFFFFFFFFFFFFFFF0
FFFFFFFFFFFFFFFFFFE0
7FFFFFFFFFFFFFFFFFE0
7FFFFFFFFFFFFFFFFFC0
3FFFFFFFFFFFFFFFFF80
0FFFFFFFFFFFFFFFFE00
00000003FFF800000000
00000003FFF800000000
00000003FFF800000000
00000003FFF800000000
00000003FFF800000000
00000003FFF800000000
00000003FFF800000000
00000003FFF800000000
00000003FFF800000000
00000003FFF800000000
00000003FFF800000000
00000003FFF800000000
00000003FFF800000000
00000003FFF800000000
00000003FFF800000000
00000003FFF800000000
00000003FFF800000000
00000003FFF800000000
00000003FFF800000000
00000003FFF800000000
00000003FFF800000000
00000003FFF800000000
00000003FFF800000000
00000003FFF800000000
00000003FFF800000000
00000003FFF800000000
00000001FFF800000000
00000001FFF000000000
00000000FFE000000000
000000003FC000000000
000000000F0000000000
ENDCHAR
STARTCHAR 002C
ENCODING 44
SWIDTH 568 0
DWIDTH 91 0
BBX 30 45 23 -15
BITMAP
0FFFFFC0
3FFFFFF0
3FFFFFF8
7FFFFFF8
FFFFFFFC
FFFFFFFC
FFFFFFFC
FFFFFFFC
FFFFFFFC
FFFFFFFC
FFFFFFFC
FFFFFFFC
FFFFFFFC
FFFFFFFC
FFFFFFFC
FFFFFFFC
FFFFFFFC
FFFFFFFC
FFFFFFFC
FFFFFFFC
FFFFFFFC
FFFFFFFC
FFFFFFFC
FFFFFFFC
FFFFFFFC
FFFFFFFC
FFFFFFF8
FFFFFFF0
FFFFFFE0
FFFFFFC0
FFFFFF80
FFFFFF00
FFFFFE00
FFFFFC00
FFFFF800
FFFFF000
FFFFE000
FFFFC000
FFFF8000
FFFF0000
FFFE0000
7FFC0000
3FF80000
1FF00000
0FE00000
ENDCHAR
STARTCHAR 002D
ENCODING 45
SWIDTH 568 0
DWIDTH 91 0
BBX 76 15 8 45
BITMAP
07FFFFFFFFFFFFFFFE00
1FFFFFFFFFFFFFFFFF00
3FFFFFFFFFFFFFFFFFC0
7FFFFFFFFFFFFFFFFFC0
FFFFFFFFFFFFFFFFFFE0
FFFFFFFFFFFFFFFFFFE0
FFFFFFFFFFFFFFFFFFF0
FFFFFFFFFFFFFFFFFFF0
FFFFFFFFFFFFFFFFFFF0
FFFFFFFFFFFFFFFFFFF0
FFFFFFFFFFFFFFFFFFE0
7FFFFFFFFFFFFFFFFFE0
7FFFFFFFFFFFFFFFFFC0
3FFFFFFFFFFFFFFFFF80
0FFFFFFFFFFFFFFFFE00
ENDCHAR
STARTCHAR 002E
ENCODING 46
SWIDTH 568 0
DWIDTH 91 0
BBX 30 30 23 1
BITMAP
0FFFFFC0
3FFFFFF0
3FFFFFF8
7FFFFFF8
FFFFFFFC
FFFFFFFC
FFFFFFFC
FFFFFFFC
FFFFFFFC
FFFFFFFC
FFFFFFFC
FFFFFFFC
FFFFFFFC
FFFFFFFC
FFFFFFFC
FFFFFFFC
FFFFFFFC
FFFFFFFC
FFFFFFFC
FFFFFFFC
FFFFFFFC
FFFFFFFC
FFFFFFFC
FFFFFFFC
FFFFFFFC
7FFFFFFC
7FFFFFF8
3FFFFFF0
1FFFFFE0
07FFFF80
ENDCHAR
STARTCHAR 002F
ENCODING 47
SWIDTH 568 0
DWIDTH 91 0
BBX 76 107 8 0
BITMAP
00000000000000001C00
0000000000000000FF00
0000000000000001FF80
0000000000000003FFC0
0000000000000007FFE0
0000000000000007FFE0
0000000000000007FFF0
0000000000000007FFF0
0000000000000007FFF0
0000000000000007FFF0
0000000000000007FFF0
0000000000000007FFF0
0000000000000007FFF0
0000000000000007FFF0
0000000000000007FFF0
0000000000000007FFF0
0000000000000007FFF0
0000000000000007FFF0
0000000000000007FFF0
0000000000000007FFF0
000000000000000FFFF0
000000000000001FFFF0
000000000000003FFFF0
000000000000007FFFF0
00000000000000FFFFF0
00000000000001FFFFE0
00000000000003FFFFE0
00000000000007FFFFC0
0000000000000FFFFFC0
0000000000001FFFFF80
0000000000003FFFFF00
0000000000007FFFFE00
000000000000FFFFFC00
000000000001FFFFF800
000000000003FFFFF000
000000000007FFFFE000
00000000000FFFFFC000
00000000001FFFFF8000
00000000003FFFFF0000
00000000007FFFFE0000
0000000000FFFFFC0000
0000000001FFFFF80000
0000000003FFFFF00000
0000000007FFFFE00000
000000000FFFFF800000
000000001FFFFF000000
000000003FFFFE000000
000000007FFFFC000000
00000000FFFFF8000000
00000001FFFFF0000000
00000003FFFFE0000000
00000007FFFFC0000000
0000000FFFFF80000000
0000001FFFFF00000000
0000003FFFFE00000000
0000007FFFFC00000000
000000FFFFF800000000
000001FFFFF000000000
000003FFFFE000000000
000007FFFFC000000000
00000FFFFF8000000000
00001FFFFF0000000000
00003FFFFE0000000000
00007FFFFC0000000000
0000FFFFF80000000000
0001FFFFF00000000000
0003FFFFE00000000000
0007FFFFC00000000000
000FFFFF800000000000
001FFFFF000000000000
003FFFFE000000000000
007FFFFC000000000000
00FFFFF8000000000000
01FFFFF0000000000000
03FFFFE0000000000000
07FFFFC0000000000000
0FFFFF80000000000000
1FFFFF00000000000000
3FFFFE00000000000000
7FFFFC00000000000000
7FFFF800000000000000
FFFFF000000000000000
FFFFE000000000000000
FFFFC000000000000000
FFFF8000000000000000
FFFF0000000000000000
FFFE0000000000000000
FFFE0000000000000000
FFFE0000000000000000
FFFE0000000000000000
FFFE0000000000000000
FFFE0000000000000000
FFFE0000000000000000
FFFE0000000000000000
FFFE0000000000000000
FFFE0000000000000000
FFFE0000000000000000
FFFE0000000000000000
FFFE0000000000000000
FFFE0000000000000000
FFFE0000000000000000
FFFE0000000000000000
FFFC0000000000000000
7FFC0000000000000000
3FF80000000000000000
1FF00000000000000000
07C00000000000000000
ENDCHAR
STARTCHAR 0030
ENCODING 48
SWIDTH 568 0
DWIDTH 91 0
BBX 76 107 8 0
BITMAP
000007FFFFFFFE000000
0001FFFFFFFFFFF00000
0007FFFFFFFFFFFC0000
001FFFFFFFFFFFFF0000
003FFFFFFFFFFFFFC000
00FFFFFFFFFFFFFFE000
01FFFFFFFFFFFFFFF000
03FFFFFFFFFFFFFFF800
07FFFFFFFFFFFFFFFC00
0FFFFFFFFFFFFFFFFE00
0FFFFFFFFFFFFFFFFF00
1FFFFFFFFFFFFFFFFF00
3FFFFFFFFFFFFFFFFF80
3FFFFFFFFFFFFFFFFFC0
7FFFFFFFFFFFFFFFFFC0
7FFFFFFFFFFFFFFFFFC0
7FFFE000000000FFFFE0
FFFFC0000000003FFFE0
FFFF80000000001FFFE0
FFFF00000000000FFFE0
FFFE00000000000FFFF0
FFFE00000000000FFFF0
FFFE000000000007FFF0
FFFE00000000000FFFF0
FFFE00000000001FFFF0
FFFE00000000003FFFF0
FFFE00000000007FFFF0
FFFE0000000000FFFFF0
FFFE0000000001FFFFF0
FFFE0000000003FFFFF0
FFFE000000000FFFFFF0
FFFE000000001FFFFFF0
FFFE000000003FFFFFF0
FFFE000000007FFFFFF0
FFFE00000000FFFFFFF0
FFFE00000001FFFFFFF0
FFFE00000003FFFFFFF0
FFFE00000007FFFFFFF0
FFFE0000000FFFFFFFF0
FFFE0000003FFFFFFFF0
FFFE0000007FFFFFFFF0
FFFE000000FFFFFFFFF0
FFFE000001FFFFFFFFF0
FFFE000003FFFFF7FFF0
FFFE000007FFFFE7FFF0
FFFE00000FFFFFC7FFF0
FFFE00001FFFFF87FFF0
FFFE00003FFFFF07FFF0
FFFE0000FFFFFC07FFF0
FFFE0001FFFFF807FFF0
FFFE0003FFFFF007FFF0
FFFE0007FFFFE007FFF0
FFFE000FFFFFC007FFF0
FFFE001FFFFF8007FFF0
FFFE003FFFFF0007FFF0
FFFE007FFFFE0007FFF0
FFFE00FFFFFC0007FFF0
FFFE03FFFFF00007FFF0
FFFE07FFFFE00007FFF0
FFFE0FFFFFC00007FFF0
FFFE1FFFFF800007FFF0
FFFE3FFFFF000007FFF0
FFFE7FFFFE000007FFF0
FFFEFFFFFC000007FFF0
FFFFFFFFF8000007FFF0
FFFFFFFFF0000007FFF0
FFFFFFFFC0000007FFF0
FFFFFFFF80000007FFF0
FFFFFFFF00000007FFF0
FFFFFFFE00000007FFF0
FFFFFFFC00000007FFF0
FFFFFFF800000007FFF0
FFFFFFF000000007FFF0
FFFFFFE000000007FFF0
FFFFFFC000000007FFF0
FFFFFF0000000007FFF0
FFFFFE0000000007FFF0
FFFFFC0000000007FFF0
FFFFF80000000007FFF0
FFFFF00000000007FFF0
FFFFE00000000007FFF0
FFFFC00000000007FFF0
FFFF800000000007FFF0
FFFF000000000007FFF0
FFFE000000000007FFF0
FFFE00000000000FFFF0
FFFE00000000000FFFF0
FFFF00000000000FFFF0
FFFF00000000001FFFE0
FFFF80000000003FFFE0
FFFFC0000000007FFFE0
7FFFF800000001FFFFE0
7FFFFFFFFFFFFFFFFFC0
3FFFFFFFFFFFFFFFFFC0
3FFFFFFFFFFFFFFFFF80
1FFFFFFFFFFFFFFFFF80
1FFFFFFFFFFFFFFFFF00
0FFFFFFFFFFFFFFFFE00
07FFFFFFFFFFFFFFFC00
03FFFFFFFFFFFFFFFC00
01FFFFFFFFFFFFFFF800
00FFFFFFFFFFFFFFF000
007FFFFFFFFFFFFFC000
001FFFFFFFFFFFFF8000
000FFFFFFFFFFFFE0000
0003FFFFFFFFFFF80000
00003FFFFFFFFFC00000
ENDCHAR
STARTCHAR 0031
ENCODING 49
SWIDTH 568 0
DWIDTH 91 0
BBX 46 107 23 0
BITMAP
000007000000
00001FE00000
00007FF00000
0000FFF80000
0001FFF80000
0003FFFC0000
0007FFFC0000
000FFFFC0000
001FFFFC0000
003FFFFC0000
007FFFFC0000
00FFFFFC0000
01FFFFFC0000
03FFFFFC0000
07FFFFFC0000
0FFFFFFC0000
1FFFFFFC0000
3FFFFFFC0000
3FFFFFFC0000
7FFFFFFC0000
FFFFFFFC0000
FFFFFFFC0000
FFFFFFFC0000
FFFFFFFC0000
FFFFFFFC0000
FFFFFFFC0000
7FFFFFFC0000
7FFDFFFC0000
3FF9FFFC0000
1FF1FFFC0000
07C1FFFC0000
0001FFFC0000
0001FFFC0000
0001FFFC0000
0001FFFC0000
0001FFFC0000
0001FFFC0000
0001FFFC0000
0001FFFC0000
0001FFFC0000
0001FFFC0000
0001FFFC0000
0001FFFC0000
0001FFFC0000
0001FFFC0000
0001FFFC0000
0001FFFC0000
0001FFFC0000
0001FFFC0000
0001FFFC0000
0001FFFC0000
0001FFFC0000
0001FFFC0000
0001FFFC0000
0001FFFC0000
0001FFFC0000
0001FFFC0000
0001FFFC0000
0001FFFC0000
0001FFFC0000
0001FFFC0000
0001FFFC0000
0001FFFC0000
0001FFFC0000
0001FFFC0000
0001FFFC0000
0001FFFC0000
0001FFFC0000
0001FFFC0000
0001FFFC0000
0001FFFC0000
0001FFFC0000
0001FFFC0000
0001FFFC0000
0001FFFC0000
0001FFFC0000
0001FFFC0000
0001FFFC0000
0001FFFC0000
0001FFFC0000
0001FFFC0000
0001FFFC0000
0001FFFC0000
0001FFFC0000
0001FFFC0000
0001FFFC0000
0001FFFC0000
0001FFFC0000
0001FFFC0000
0001FFFC0000
0001FFFC0000
0001FFFC0000
0FFFFFFFFF80
1FFFFFFFFFE0
3FFFFFFFFFF0
7FFFFFFFFFF0
FFFFFFFFFFF8
FFFFFFFFFFF8
FFFFFFFFFFFC
FFFFFFFFFFFC
FFFFFFFFFFFC
FFFFFFFFFFF8
7FFFFFFFFFF8
7FFFFFFFFFF0
3FFFFFFFFFF0
1FFFFFFFFFC0
07FFFFFFFF80
ENDCHAR
STARTCHAR 0032
ENCODING 50
SWIDTH 568 0
DWIDTH 91 0
BBX 76 107 8 0
BITMAP
000007FFFFFFFE000000
0001FFFFFFFFFFF00000
0007FFFFFFFFFFFC0000
001FFFFFFFFFFFFF0000
003FFFFFFFFFFFFFC000
00FFFFFFFFFFFFFFE000
01FFFFFFFFFFFFFFF000
03FFFFFFFFFFFFFFF800
07FFFFFFFFFFFFFFFC00
0FFFFFFFFFFFFFFFFE00
0FFFFFFFFFFFFFFFFF00
1FFFFFFFFFFFFFFFFF00
3FFFFFFFFFFFFFFFFF80
3FFFFFFFFFFFFFFFFFC0
7FFFFFFFFFFFFFFFFFC0
7FFFFFFFFFFFFFFFFFC0
7FFFE000000000FFFFE0
FFFFC0000000003FFFE0
FFFF80000000001FFFE0
FFFF00000000000FFFE0
FFFE00000000000FFFF0
FFFE00000000000FFFF0
FFFE000000000007FFF0
FFFE000000000007FFF0
FFFE000000000007FFF0
FFFC000000000007FFF0
FFFC000000000007FFF0
7FF8000000000007FFF0
3FF8000000000007FFF0
1FE0000000000007FFF0
0780000000000007FFF0
0000000000000007FFF0
0000000000000007FFF0
0000000000000007FFF0
0000000000000007FFF0
000000000000000FFFF0
000000000000001FFFF0
000000000000003FFFF0
000000000000007FFFF0
00000000000000FFFFF0
00000000000001FFFFF0
00000000000003FFFFE0
00000000000007FFFFE0
0000000000000FFFFFC0
0000000000001FFFFF80
0000000000003FFFFF00
0000000000007FFFFE00
000000000000FFFFFC00
000000000001FFFFF800
000000000003FFFFF000
000000000007FFFFE000
00000000000FFFFFC000
00000000001FFFFF8000
00000000003FFFFF0000
00000000007FFFFE0000
0000000000FFFFFC0000
0000000001FFFFF80000
0000000003FFFFF00000
0000000007FFFFE00000
000000000FFFFFC00000
000000001FFFFF800000
000000003FFFFF000000
000000007FFFFE000000
00000000FFFFFC000000
00000001FFFFF8000000
00000003FFFFF0000000
00000007FFFFE0000000
0000000FFFFFC0000000
0000001FFFFF80000000
0000003FFFFF00000000
0000007FFFFE00000000
000000FFFFFC00000000
000001FFFFF800000000
000003FFFFF000000000
000007FFFFE000000000
00000FFFFFC000000000
00001FFFFF8000000000
00003FFFFF0000000000
00007FFFFE0000000000
0000FFFFFC0000000000
0001FFFFF80000000000
0003FFFFF00000000000
0007FFFFE00000000000
000FFFFFC00000000000
001FFFFF800000000000
003FFFFF000000000000
007FFFFE000000000000
00FFFFFC000000000000
01FFFFF8000000000000
03FFFFF0000000000000
07FFFFE0000000000000
0FFFFFC0000000000000
1FFFFFFFFFFFFFFFFE00
3FFFFFFFFFFFFFFFFF80
7FFFFFFFFFFFFFFFFFC0
7FFFFFFFFFFFFFFFFFE0
FFFFFFFFFFFFFFFFFFE0
FFFFFFFFFFFFFFFFFFF0
FFFFFFFFFFFFFFFFFFF0
FFFFFFFFFFFFFFFFFFF0
FFFFFFFFFFFFFFFFFFF0
FFFFFFFFFFFFFFFFFFF0
FFFFFFFFFFFFFFFFFFE0
7FFFFFFFFFFFFFFFFFE0
3FFFFFFFFFFFFFFFFFC0
1FFFFFFFFFFFFFFFFF80
07FFFFFFFFFFFFFFFE00
ENDCHAR
STARTCHAR 0033
ENCODING 51
SWIDTH 568 0
DWIDTH 91 0
BBX 76 107 8 0
BITMAP
000007FFFFFFFE000000
0001FFFFFFFFFFF00000
0007FFFFFFFFFFFC0000
001FFFFFFFFFFFFF0000
003FFFFFFFFFFFFFC000
00FFFFFFFFFFFFFFE000
01FFFFFFFFFFFFFFF000
03FFFFFFFFFFFFFFF800
07FFFFFFFFFFFFFFFC00
0FFFFFFFFFFFFFFFFE00
0FFFFFFFFFFFFFFFFF00
1FFFFFFFFFFFFFFFFF00
3FFFFFFFFFFFFFFFFF80
3FFFFFFFFFFFFFFFFFC0
7FFFFFFFFFFFFFFFFFC0
7FFFFFFFFFFFFFFFFFC0
7FFFE000000000FFFFE0
FFFFC0000000003FFFE0
FFFF80000000001FFFE0
FFFF00000000000FFFE0
FFFE00000000000FFFF0
FFFE00000000000FFFF0
FFFE000000000007FFF0
FFFE000000000007FFF0
FFFE000000000007FFF0
FFFC000000000007FFF0
FFFC000000000007FFF0
7FF8000000000007FFF0
3FF8000000000007FFF0
1FE0000000000007FFF0
0780000000000007FFF0
0000000000000007FFF0
0000000000000007FFF0
0000000000000007FFF0
0000000000000007FFF0
0000000000000007FFF0
0000000000000007FFF0
0000000000000007FFF0
0000000000000007FFF0
000000000000000FFFF0
000000000000000FFFF0
000000000000000FFFF0
000000000000001FFFE0
000000000000001FFFE0
000000000000007FFFE0
00000000000000FFFFE0
000000001FFFFFFFFFC0
000000007FFFFFFFFFC0
00000000FFFFFFFFFF80
00000001FFFFFFFFFF80
00000001FFFFFFFFFF00
00000003FFFFFFFFFE00
00000003FFFFFFFFFE00
00000003FFFFFFFFFC00
00000003FFFFFFFFF800
00000003FFFFFFFFFC00
00000001FFFFFFFFFE00
00000001FFFFFFFFFF00
00000000FFFFFFFFFF80
000000007FFFFFFFFF80
000000003FFFFFFFFFC0
00000000000001FFFFC0
000000000000007FFFE0
000000000000003FFFE0
000000000000001FFFE0
000000000000000FFFF0
000000000000000FFFF0
000000000000000FFFF0
0000000000000007FFF0
0000000000000007FFF0
0000000000000007FFF0
0000000000000007FFF0
0000000000000007FFF0
0000000000000007FFF0
0000000000000007FFF0
0000000000000007FFF0
0000000000000007FFF0
0FE0000000000007FFF0
3FF0000000000007FFF0
7FF8000000000007FFF0
7FFC000000000007FFF0
FFFC000000000007FFF0
FFFE000000000007FFF0
FFFE000000000007FFF0
FFFE000000000007FFF0
FFFE00000000000FFFF0
FFFE00000000000FFFF0
FFFF00000000000FFFF0
FFFF00000000001FFFE0
FFFF80000000003FFFE0
FFFFC0000000007FFFE0
7FFFF800000001FFFFE0
7FFFFFFFFFFFFFFFFFC0
3FFFFFFFFFFFFFFFFFC0
3FFFFFFFFFFFFFFFFF80
1FFFFFFFFFFFFFFFFF80
1FFFFFFFFFFFFFFFFF00
0FFFFFFFFFFFFFFFFE00
07FFFFFFFFFFFFFFFC00
03FFFFFFFFFFFFFFFC00
01FFFFFFFFFFFFFFF800
00FFFFFFFFFFFFFFF000
007FFFFFFFFFFFFFC000
001FFFFFFFFFFFFF8000
000FFFFFFFFFFFFE0000
0003FFFFFFFFFFF80000
00003FFFFFFFFFC00000
ENDCHAR
STARTCHAR 0034
ENCODING 52
SWIDTH 568 0
DWIDTH 91 0
BBX 76 107 8 0
BITMAP
0000000000001C000000
0000000000007F800000
000000000000FFC00000
000000000001FFE00000
000000000003FFF00000
000000000003FFF00000
000000000007FFF00000
000000000007FFF80000
000000000007FFF80000
000000000007FFF80000
000000000007FFF80000
000000000007FFF80000
000000000007FFF80000
000000000007FFF80000
000000000007FFF80000
000000000007FFF80000
0FE000000007FFF80000
3FF000000007FFF80000
7FF800000007FFF80000
7FFC00000007FFF80000
FFFC00000007FFF80000
FFFE00000007FFF80000
FFFE00000007FFF80000
FFFE00000007FFF80000
FFFE00000007FFF80000
FFFE00000007FFF80000
FFFE00000007FFF80000
FFFE00000007FFF80000
FFFE00000007FFF80000
FFFE00000007FFF80000
FFFE00000007FFF80000
FFFE00000007FFF80000
FFFE00000007FFF80000
FFFE00000007FFF80000
FFFE00000007FFF80000
FFFE00000007FFF80000
FFFE00000007FFF80000
FFFE00000007FFF80000
FFFE00000007FFF80000
FFFE00000007FFF80000
FFFE00000007FFF80000
FFFE00000007FFF80000
FFFE00000007FFF80000
FFFE00000007FFF80000
FFFE00000007FFF80000
FFFE00000007FFF80000
FFFE00000007FFF80000
FFFE00000007FFF80000
FFFE00000007FFF80000
FFFE00000007FFF80000
FFFE00000007FFF80000
FFFE00000007FFF80000
FFFE00000007FFF80000
FFFE00000007FFF80000
FFFE00000007FFF80000
FFFE00000007FFF80000
FFFE00000007FFF80000
FFFE00000007FFF80000
FFFE00000007FFF80000
FFFE00000007FFF80000
FFFE00000007FFF80000
FFFFFFFFFFFFFFFFFC00
FFFFFFFFFFFFFFFFFF00
FFFFFFFFFFFFFFFFFF80
FFFFFFFFFFFFFFFFFFC0
FFFFFFFFFFFFFFFFFFE0
FFFFFFFFFFFFFFFFFFE0
FFFFFFFFFFFFFFFFFFF0
FFFFFFFFFFFFFFFFFFF0
FFFFFFFFFFFFFFFFFFF0
FFFFFFFFFFFFFFFFFFF0
FFFFFFFFFFFFFFFFFFE0
7FFFFFFFFFFFFFFFFFE0
7FFFFFFFFFFFFFFFFFC0
3FFFFFFFFFFFFFFFFF80
1FFFFFFFFFFFFFFFFF00
01FFFFFFFFFFFFFFF800
000000000007FFF80000
000000000007FFF80000
000000000007FFF80000
000000000007FFF80000
000000000007FFF80000
000000000007FFF80000
000000000007FFF80000
000000000007FFF80000
000000000007FFF80000
000000000007FFF80000
000000000007FFF80000
000000000007FFF80000
000000000007FFF80000
000000000007FFF80000
000000000007FFF80000
000000000007FFF80000
000000000007FFF80000
000000000007FFF80000
000000000007FFF80000
000000000007FFF80000
000000000007FFF80000
000000000007FFF80000
000000000007FFF80000
000000000007FFF80000
000000000003FFF00000
000000000003FFF00000
000000000001FFE00000
000000000001FFE00000
000000000000FF800000
0000000000003F000000
ENDCHAR
STARTCHAR 0035
ENCODING 53
SWIDTH 568 0
DWIDTH 91 0
BBX 76 107 8 0
BITMAP
03FFFFFFFFFFFFFFFC00
1FFFFFFFFFFFFFFFFF00
3FFFFFFFFFFFFFFFFF80
7FFFFFFFFFFFFFFFFFC0
FFFFFFFFFFFFFFFFFFE0
FFFFFFFFFFFFFFFFFFE0
FFFFFFFFFFFFFFFFFFF0
FFFFFFFFFFFFFFFFFFF0
FFFFFFFFFFFFFFFFFFF0
FFFFFFFFFFFFFFFFFFF0
FFFFFFFFFFFFFFFFFFE0
FFFFFFFFFFFFFFFFFFE0
FFFFFFFFFFFFFFFFFFC0
FFFFFFFFFFFFFFFFFF80
FFFFFFFFFFFFFFFFFF00
FFFFFFFFFFFFFFFFF800
FFFE0000000000000000
FFFE0000000000000000
FFFE0000000000000000
FFFE0000000000000000
FFFE0000000000000000
FFFE0000000000000000
FFFE0000000000000000
FFFE0000000000000000
FFFE0000000000000000
FFFE0000000000000000
FFFE0000000000000000
FFFE0000000000000000
FFFE0000000000000000
FFFE0000000000000000
FFFE0000000000000000
FFFE0000000000000000
FFFE0000000000000000
FFFE0000000000000000
FFFE0000000000000000
FFFE0000000000000000
FFFE0000000000000000
FFFE0000000000000000
FFFE0000000000000000
FFFE0000000000000000
FFFE0000000000000000
FFFE0000000000000000
FFFE0000000000000000
FFFE0000000000000000
FFFE0000000000000000
FFFE0000000000000000
FFFFFFFFFFFFFF800000
FFFFFFFFFFFFFFF80000
FFFFFFFFFFFFFFFE0000
FFFFFFFFFFFFFFFF8000
FFFFFFFFFFFFFFFFC000
FFFFFFFFFFFFFFFFE000
FFFFFFFFFFFFFFFFF800
FFFFFFFFFFFFFFFFFC00
FFFFFFFFFFFFFFFFFC00
FFFFFFFFFFFFFFFFFE00
FFFFFFFFFFFFFFFFFF00
7FFFFFFFFFFFFFFFFF80
7FFFFFFFFFFFFFFFFF80
3FFFFFFFFFFFFFFFFFC0
0FFFFFFFFFFFFFFFFFC0
00000000000001FFFFE0
000000000000007FFFE0
000000000000003FFFE0
000000000000001FFFE0
000000000000000FFFF0
000000000000000FFFF0
000000000000000FFFF0
0000000000000007FFF0
0000000000000007FFF0
0000000000000007FFF0
0000000000000007FFF0
0000000000000007FFF0
0000000000000007FFF0
0000000000000007FFF0
0000000000000007FFF0
0000000000000007FFF0
0000000000000007FFF0
0000000000000007FFF0
0000000000000007FFF0
0000000000000007FFF0
0000000000000007FFF0
0000000000000007FFF0
0000000000000007FFF0
0000000000000007FFF0
000000000000000FFFF0
000000000000000FFFF0
000000000000000FFFF0
000000000000001FFFE0
000000000000003FFFE0
000000000000007FFFE0
00000000000001FFFFE0
0FFFFFFFFFFFFFFFFFC0
3FFFFFFFFFFFFFFFFFC0
7FFFFFFFFFFFFFFFFF80
7FFFFFFFFFFFFFFFFF80
FFFFFFFFFFFFFFFFFF00
FFFFFFFFFFFFFFFFFE00
FFFFFFFFFFFFFFFFFC00
FFFFFFFFFFFFFFFFFC00
FFFFFFFFFFFFFFFFF800
FFFFFFFFFFFFFFFFF000
FFFFFFFFFFFFFFFFC000
7FFFFFFFFFFFFFFF8000
3FFFFFFFFFFFFFFE0000
1FFFFFFFFFFFFFF80000
07FFFFFFFFFFFFC00000
ENDCHAR
STARTCHAR 0036
ENCODING 54
SWIDTH 568 0
DWIDTH 91 0
BBX 76 107 8 0
BITMAP
000007FFFFFFFC000000
0001FFFFFFFFFF800000
0007FFFFFFFFFFC00000
001FFFFFFFFFFFE00000
003FFFFFFFFFFFF00000
00FFFFFFFFFFFFF00000
01FFFFFFFFFFFFF00000
03FFFFFFFFFFFFF80000
07FFFFFFFFFFFFF80000
0FFFFFFFFFFFFFF00000
0FFFFFFFFFFFFFF00000
1FFFFFFFFFFFFFF00000
3FFFFFFFFFFFFFE00000
3FFFFFFFFFFFFFC00000
7FFFFFFFFFFFFF800000
7FFFFFFFFFFFFC000000
7FFFE000000000000000
FFFFC000000000000000
FFFF8000000000000000
FFFF0000000000000000
FFFE0000000000000000
FFFE0000000000000000
FFFE0000000000000000
FFFE0000000000000000
FFFE0000000000000000
FFFE0000000000000000
FFFE0000000000000000
FFFE0000000000000000
FFFE0000000000000000
FFFE0000000000000000
FFFE0000000000000000
FFFE0000000000000000
FFFE0000000000000000
FFFE0000000000000000
FFFE0000000000000000
FFFE0000000000000000
FFFE0000000000000000
FFFE0000000000000000
FFFE0000000000000000
FFFE0000000000000000
FFFE0000000000000000
FFFE0000000000000000
FFFE0000000000000000
FFFE0000000000000000
FFFE0000000000000000
FFFE0000000000000000
FFFFFFFFFFFFFFC00000
FFFFFFFFFFFFFFF80000
FFFFFFFFFFFFFFFF0000
FFFFFFFFFFFFFFFF8000
FFFFFFFFFFFFFFFFE000
FFFFFFFFFFFFFFFFF000
FFFFFFFFFFFFFFFFF800
FFFFFFFFFFFFFFFFFC00
FFFFFFFFFFFFFFFFFE00
FFFFFFFFFFFFFFFFFF00
FFFFFFFFFFFFFFFFFF80
FFFFFFFFFFFFFFFFFF80
FFFFFFFFFFFFFFFFFFC0
FFFFFFFFFFFFFFFFFFC0
FFFFFFFFFFFFFFFFFFC0
FFFE0000000001FFFFE0
FFFE00000000007FFFE0
FFFE00000000003FFFE0
FFFE00000000001FFFE0
FFFE00000000000FFFF0
FFFE00000000000FFFF0
FFFE00000000000FFFF0
FFFE000000000007FFF0
FFFE000000000007FFF0
FFFE000000000007FFF0
FFFE000000000007FFF0
FFFE000000000007FFF0
FFFE000000000007FFF0
FFFE000000000007FFF0
FFFE000000000007FFF0
FFFE000000000007FFF0
FFFE000000000007FFF0
FFFE000000000007FFF0
FFFE000000000007FFF0
FFFE000000000007FFF0
FFFE000000000007FFF0
FFFE000000000007FFF0
FFFE000000000007FFF0
FFFE000000000007FFF0
FFFE00000000000FFFF0
FFFE00000000000FFFF0
FFFF00000000000FFFF0
FFFF00000000001FFFE0
FFFF80000000003FFFE0
FFFFC0000000007FFFE0
7FFFF800000001FFFFE0
7FFFFFFFFFFFFFFFFFC0
3FFFFFFFFFFFFFFFFFC0
3FFFFFFFFFFFFFFFFF80
1FFFFFFFFFFFFFFFFF80
1FFFFFFFFFFFFFFFFF00
0FFFFFFFFFFFFFFFFE00
07FFFFFFFFFFFFFFFC00
03FFFFFFFFFFFFFFFC00
01FFFFFFFFFFFFFFF800
00FFFFFFFFFFFFFFF000
007FFFFFFFFFFFFFC000
001FFFFFFFFFFFFF8000
000FFFFFFFFFFFFE0000
0003FFFFFFFFFFF80000
00003FFFFFFFFFC00000
ENDCHAR
STARTCHAR 0037
ENCODING 55
SWIDTH 568 0
DWIDTH 91 0
BBX 76 107 8 0
BITMAP
03FFFFFFFFFFFFFFFC00
1FFFFFFFFFFFFFFFFF00
3FFFFFFFFFFFFFFFFF80
7FFFFFFFFFFFFFFFFFC0
FFFFFFFFFFFFFFFFFFE0
FFFFFFFFFFFFFFFFFFE0
FFFFFFFFFFFFFFFFFFF0
FFFFFFFFFFFFFFFFFFF0
FFFFFFFFFFFFFFFFFFF0
FFFFFFFFFFFFFFFFFFF0
FFFFFFFFFFFFFFFFFFF0
FFFFFFFFFFFFFFFFFFF0
7FFFFFFFFFFFFFFFFFF0
3FFFFFFFFFFFFFFFFFF0
1FFFFFFFFFFFFFFFFFF0
03FFFFFFFFFFFFFFFFF0
0000000000000007FFF0
0000000000000007FFF0
0000000000000007FFF0
0000000000000007FFF0
0000000000000007FFF0
0000000000000007FFF0
0000000000000007FFF0
0000000000000007FFF0
0000000000000007FFF0
0000000000000007FFF0
0000000000000007FFF0
0000000000000007FFF0
0000000000000007FFF0
0000000000000007FFF0
0000000000000007FFF0
0000000000000007FFF0
0000000000000007FFF0
0000000000000007FFF0
0000000000000007FFF0
000000000000000FFFF0
000000000000001FFFF0
000000000000003FFFF0
000000000000007FFFF0
00000000000000FFFFF0
00000000000001FFFFF0
00000000000003FFFFE0
00000000000007FFFFE0
0000000000000FFFFFC0
0000000000001FFFFF80
0000000000003FFFFF00
0000000000007FFFFE00
000000000000FFFFFC00
000000000001FFFFF800
000000000003FFFFF000
000000000007FFFFE000
00000000000FFFFFC000
00000000001FFFFF8000
00000000003FFFFF0000
00000000007FFFFE0000
0000000000FFFFFC0000
0000000001FFFFF80000
0000000003FFFFF00000
0000000007FFFFE00000
000000000FFFFFC00000
000000001FFFFF800000
000000003FFFFF000000
000000007FFFFE000000
00000000FFFFFC000000
00000001FFFFF8000000
00000003FFFFF0000000
00000007FFFFE0000000
0000000FFFFFC0000000
0000001FFFFF80000000
0000003FFFFF00000000
0000007FFFFE00000000
000000FFFFFC00000000
000001FFFFF800000000
000003FFFFF000000000
000007FFFFE000000000
00000FFFFFC000000000
00001FFFFF8000000000
00003FFFFF0000000000
00007FFFFE0000000000
0000FFFFFC0000000000
0001FFFFF80000000000
0003FFFFF00000000000
0007FFFFE00000000000
000FFFFFC00000000000
001FFFFF800000000000
003FFFFF000000000000
007FFFFE000000000000
00FFFFFC000000000000
01FFFFF8000000000000
03FFFFF0000000000000
07FFFFE0000000000000
0FFFFFC0000000000000
1FFFFF80000000000000
3FFFFF00000000000000
7FFFFE00000000000000
7FFFFC00000000000000
FFFFF800000000000000
FFFFF000000000000000
FFFFE000000000000000
FFFFC000000000000000
FFFF8000000000000000
FFFF0000000000000000
FFFE0000000000000000
7FFC0000000000000000
3FF80000000000000000
1FF00000000000000000
07C00000000000000000
ENDCHAR
STARTCHAR 0038
ENCODING 56
SWIDTH 568 0
DWIDTH 91 0
BBX 76 107 8 0
BITMAP
000007FFFFFFFE000000
0001FFFFFFFFFFF00000
0007FFFFFFFFFFFC0000
001FFFFFFFFFFFFF0000
003FFFFFFFFFFFFFC000
00FFFFFFFFFFFFFFE000
01FFFFFFFFFFFFFFF000
03FFFFFFFFFFFFFFF800
07FFFFFFFFFFFFFFFC00
0FFFFFFFFFFFFFFFFE00
0FFFFFFFFFFFFFFFFF00
1FFFFFFFFFFFFFFFFF00
3FFFFFFFFFFFFFFFFF80
3FFFFFFFFFFFFFFFFFC0
7FFFFFFFFFFFFFFFFFC0
7FFFFFFFFFFFFFFFFFC0
7FFFE000000000FFFFE0
FFFFC0000000003FFFE0
FFFF80000000001FFFE0
FFFF00000000000FFFE0
FFFE00000000000FFFF0
FFFE00000000000FFFF0
FFFE000000000007FFF0
FFFE000000000007FFF0
FFFE000000000007FFF0
FFFE000000000007FFF0
FFFE000000000007FFF0
FFFE000000000007FFF0
FFFE000000000007FFF0
FFFE000000000007FFF0
FFFE000000000007FFF0
FFFE000000000007FFF0
FFFE000000000007FFF0
FFFE000000000007FFF0
FFFE000000000007FFF0
FFFE000000000007FFF0
FFFE000000000007FFF0
FFFE000000000007FFF0
FFFE000000000007FFF0
FFFE00000000000FFFF0
FFFE00000000000FFFF0
FFFF00000000000FFFF0
FFFF00000000001FFFE0
FFFF80000000001FFFE0
FFFFC0000000007FFFE0
7FFFF000000000FFFFE0
7FFFFFFFFFFFFFFFFFC0
3FFFFFFFFFFFFFFFFFC0
3FFFFFFFFFFFFFFFFF80
1FFFFFFFFFFFFFFFFF80
0FFFFFFFFFFFFFFFFF00
07FFFFFFFFFFFFFFFE00
03FFFFFFFFFFFFFFFE00
03FFFFFFFFFFFFFFFC00
07FFFFFFFFFFFFFFF800
0FFFFFFFFFFFFFFFFC00
1FFFFFFFFFFFFFFFFE00
1FFFFFFFFFFFFFFFFF00
3FFFFFFFFFFFFFFFFF80
3FFFFFFFFFFFFFFFFF80
7FFFFFFFFFFFFFFFFFC0
7FFFF800000001FFFFC0
7FFFC0000000007FFFE0
FFFF80000000003FFFE0
FFFF00000000001FFFE0
FFFF00000000000FFFF0
FFFE00000000000FFFF0
FFFE00000000000FFFF0
FFFE000000000007FFF0
FFFE000000000007FFF0
FFFE000000000007FFF0
FFFE000000000007FFF0
FFFE000000000007FFF0
FFFE000000000007FFF0
FFFE000000000007FFF0
FFFE000000000007FFF0
FFFE000000000007FFF0
FFFE000000000007FFF0
FFFE000000000007FFF0
FFFE000000000007FFF0
FFFE000000000007FFF0
FFFE000000000007FFF0
FFFE000000000007FFF0
FFFE000000000007FFF0
FFFE000000000007FFF0
FFFE00000000000FFFF0
FFFE00000000000FFFF0
FFFF00000000000FFFF0
FFFF00000000001FFFE0
FFFF80000000003FFFE0
FFFFC0000000007FFFE0
7FFFF800000001FFFFE0
7FFFFFFFFFFFFFFFFFC0
3FFFFFFFFFFFFFFFFFC0
3FFFFFFFFFFFFFFFFF80
1FFFFFFFFFFFFFFFFF80
1FFFFFFFFFFFFFFFFF00
0FFFFFFFFFFFFFFFFE00
07FFFFFFFFFFFFFFFC00
03FFFFFFFFFFFFFFFC00
01FFFFFFFFFFFFFFF800
00FFFFFFFFFFFFFFF000
007FFFFFFFFFFFFFC000
001FFFFFFFFFFFFF8000
000FFFFFFFFFFFFE0000
0003FFFFFFFFFFF80000
00003FFFFFFFFFC00000
ENDCHAR
STARTCHAR 0039
ENCODING 57
SWIDTH 568 0
DWIDTH 91 0
BBX 76 107 8 0
BITMAP
000007FFFFFFFE000000
0001FFFFFFFFFFF00000
0007FFFFFFFFFFFC0000
001FFFFFFFFFFFFF0000
003FFFFFFFFFFFFFC000
00FFFFFFFFFFFFFFE000
01FFFFFFFFFFFFFFF000
03FFFFFFFFFFFFFFF800
07FFFFFFFFFFFFFFFC00
0FFFFFFFFFFFFFFFFE00
0FFFFFFFFFFFFFFFFF00
1FFFFFFFFFFFFFFFFF00
3FFFFFFFFFFFFFFFFF80
3FFFFFFFFFFFFFFFFFC0
7FFFFFFFFFFFFFFFFFC0
7FFFFFFFFFFFFFFFFFC0
7FFFE000000000FFFFE0
FFFFC0000000003FFFE0
FFFF80000000001FFFE0
FFFF00000000000FFFE0
FFFE00000000000FFFF0
FFFE00000000000FFFF0
FFFE000000000007FFF0
FFFE000000000007FFF0
FFFE000000000007FFF0
FFFE000000000007FFF0
FFFE000000000007FFF0
FFFE000000000007FFF0
FFFE000000000007FFF0
FFFE000000000007FFF0
FFFE000000000007FFF0
FFFE000000000007FFF0
FFFE000000000007FFF0
FFFE000000000007FFF0
FFFE000000000007FFF0
FFFE000000000007FFF0
FFFE000000000007FFF0
FFFE000000000007FFF0
FFFE000000000007FFF0
FFFE000000000007FFF0
FFFE000000000007FFF0
FFFF000000000007FFF0
FFFF000000000007FFF0
FFFF800000000007FFF0
FFFFC00000000007FFF0
FFFFF00000000007FFF0
7FFFFFFFFFFFFFFFFFF0
7FFFFFFFFFFFFFFFFFF0
3FFFFFFFFFFFFFFFFFF0
3FFFFFFFFFFFFFFFFFF0
1FFFFFFFFFFFFFFFFFF0
1FFFFFFFFFFFFFFFFFF0
0FFFFFFFFFFFFFFFFFF0
07FFFFFFFFFFFFFFFFF0
03FFFFFFFFFFFFFFFFF0
01FFFFFFFFFFFFFFFFF0
00FFFFFFFFFFFFFFFFF0
007FFFFFFFFFFFFFFFF0
001FFFFFFFFFFFFFFFF0
0007FFFFFFFFFFFFFFF0
0000FFFFFFFFFFFFFFF0
0000000000000007FFF0
0000000000000007FFF0
0000000000000007FFF0
0000000000000007FFF0
0000000000000007FFF0
0000000000000007FFF0
0000000000000007FFF0
0000000000000007FFF0
0000000000000007FFF0
0000000000000007FFF0
0000000000000007FFF0
0000000000000007FFF0
0000000000000007FFF0
0000000000000007FFF0
0000000000000007FFF0
0000000000000007FFF0
0000000000000007FFF0
0000000000000007FFF0
0000000000000007FFF0
0000000000000007FFF0
0000000000000007FFF0
0000000000000007FFF0
0000000000000007FFF0
0000000000000007FFF0
000000000000000FFFF0
000000000000000FFFF0
000000000000000FFFF0
000000000000001FFFE0
000000000000003FFFE0
000000000000007FFFE0
00000000000001FFFFE0
0FFFFFFFFFFFFFFFFFC0
3FFFFFFFFFFFFFFFFFC0
7FFFFFFFFFFFFFFFFF80
7FFFFFFFFFFFFFFFFF80
FFFFFFFFFFFFFFFFFF00
FFFFFFFFFFFFFFFFFE00
FFFFFFFFFFFFFFFFFC00
FFFFFFFFFFFFFFFFFC00
FFFFFFFFFFFFFFFFF800
FFFFFFFFFFFFFFFFF000
FFFFFFFFFFFFFFFFC000
7FFFFFFFFFFFFFFF8000
3FFFFFFFFFFFFFFE0000
1FFFFFFFFFFFFFF80000
07FFFFFFFFFFFFC00000
ENDCHAR
STARTCHAR 003A
ENCODING 58
SWIDTH 568 0
DWIDTH 91 0
BBX 30 91 23 1
BITMAP
0FFFFFC0
1FFFFFF0
3FFFFFF8
7FFFFFF8
FFFFFFFC
FFFFFFFC
FFFFFFFC
FFFFFFFC
FFFFFFFC
FFFFFFFC
FFFFFFFC
FFFFFFFC
FFFFFFFC
FFFFFFFC
FFFFFFFC
FFFFFFFC
FFFFFFFC
FFFFFFFC
FFFFFFFC
FFFFFFFC
FFFFFFFC
FFFFFFFC
FFFFFFFC
FFFFFFFC
FFFFFFFC
7FFFFFFC
7FFFFFF8
3FFFFFF0
1FFFFFE0
07FFFFC0
00000000
00000000
00000000
00000000
00000000
00000000
00000000
00000000
00000000
00000000
00000000
00000000
00000000
00000000
00000000
00000000
00000000
00000000
00000000
00000000
00000000
00000000
00000000
00000000
00000000
00000000
00000000
00000000
00000000
00000000
00000000
0FFFFFC0
3FFFFFF0
3FFFFFF8
7FFFFFF8
FFFFFFFC
FFFFFFFC
FFFFFFFC
FFFFFFFC
FFFFFFFC
FFFFFFFC
FFFFFFFC
FFFFFFFC
FFFFFFFC
FFFFFFFC
FFFFFFFC
FFFFFFFC
FFFFFFFC
FFFFFFFC
FFFFFFFC
FFFFFFFC
FFFFFFFC
FFFFFFFC
FFFFFFFC
FFFFFFFC
FFFFFFFC
7FFFFFFC
7FFFFFF8
3FFFFFF0
1FFFFFE0
07FFFF80
ENDCHAR
STARTCHAR 003B
ENCODING 59
SWIDTH 568 0
DWIDTH 91 0
BBX 30 106 23 -15
BITMAP
0FFFFFC0
1FFFFFF0
3FFFFFF8
7FFFFFF8
FFFFFFFC
FFFFFFFC
FFFFFFFC
FFFFFFFC
FFFFFFFC
FFFFFFFC
FFFFFFFC
FFFFFFFC
FFFFFFFC
FFFFFFFC
FFFFFFFC
FFFFFFFC
FFFFFFFC
FFFFFFFC
FFFFFFFC
FFFFFFFC
FFFFFFFC
FFFFFFFC
FFFFFFFC
FFFFFFFC
FFFFFFFC
7FFFFFFC
7FFFFFF8
3FFFFFF0
1FFFFFE0
07FFFFC0
00000000
00000000
00000000
00000000
00000000
00000000
00000000
00000000
00000000
00000000
00000000
00000000
00000000
00000000
00000000
00000000
00000000
00000000
00000000
00000000
00000000
00000000
00000000
00000000
00000000
00000000
00000000
00000000
00000000
00000000
00000000
0FFFFFC0
3FFFFFF0
3FFFFFF8
7FFFFFF8
FFFFFFFC
FFFFFFFC
FFFFFFFC
FFFFFFFC
FFFFFFFC
FFFFFFFC
FFFFFFFC
FFFFFFFC
FFFFFFFC
FFFFFFFC
FFFFFFFC
FFFFFFFC
FFFFFFFC
FFFFFFFC
FFFFFFFC
FFFFFFFC
FFFFFFFC
FFFFFFFC
FFFFFFFC
FFFFFFFC
FFFFFFFC
FFFFFFFC
FFFFFFF8
FFFFFFF0
FFFFFFE0
FFFFFFC0
FFFFFF80
FFFFFF00
FFFFFE00
FFFFFC00
FFFFF800
FFFFF000
FFFFE000
FFFFC000
FFFF8000
FFFF0000
FFFE0000
7FFC0000
3FF80000
1FF00000
0FE00000
ENDCHAR
STARTCHAR 003C
ENCODING 60
SWIDTH 568 0
DWIDTH 91 0
BBX 61 107 8 0
BITMAP
0000000000001C00
0000000000007F80
000000000000FFC0
000000000001FFE0
000000000003FFF0
000000000007FFF0
00000000000FFFF0
00000000001FFFF8
00000000003FFFF8
00000000007FFFF0
0000000000FFFFF0
0000000001FFFFF0
0000000003FFFFE0
0000000007FFFFC0
000000000FFFFF80
000000001FFFFF00
000000003FFFFE00
000000007FFFFC00
00000000FFFFF800
00000001FFFFF000
00000003FFFFE000
00000007FFFFC000
0000000FFFFF8000
0000001FFFFF0000
0000003FFFFE0000
0000007FFFFC0000
000000FFFFF80000
000001FFFFF00000
000003FFFFE00000
000007FFFFC00000
00000FFFFF800000
00001FFFFF000000
00003FFFFE000000
00007FFFFC000000
0000FFFFF8000000
0001FFFFF0000000
0003FFFFE0000000
0007FFFFC0000000
000FFFFF80000000
001FFFFF00000000
003FFFFE00000000
007FFFFC00000000
00FFFFF800000000
01FFFFF000000000
03FFFFE000000000
07FFFFC000000000
0FFFFF8000000000
1FFFFF0000000000
3FFFFE0000000000
7FFFFC0000000000
FFFFF80000000000
FFFFF00000000000
FFFFE00000000000
FFFFC00000000000
FFFFC00000000000
FFFFE00000000000
FFFFF00000000000
7FFFF80000000000
7FFFFC0000000000
3FFFFE0000000000
1FFFFF0000000000
0FFFFF8000000000
07FFFFC000000000
03FFFFE000000000
01FFFFF000000000
00FFFFFC00000000
007FFFFE00000000
003FFFFF00000000
001FFFFF80000000
000FFFFFC0000000
0007FFFFE0000000
0003FFFFF0000000
0001FFFFF8000000
0000FFFFFC000000
00007FFFFE000000
00003FFFFF000000
00001FFFFF800000
00000FFFFFC00000
000007FFFFE00000
000003FFFFF00000
000001FFFFF80000
000000FFFFFC0000
0000007FFFFE0000
0000003FFFFF0000
0000001FFFFF8000
0000000FFFFFC000
00000007FFFFE000
00000003FFFFF000
00000001FFFFF800
00000000FFFFFC00
000000007FFFFE00
000000003FFFFF00
000000001FFFFF80
000000000FFFFFC0
0000000007FFFFE0
0000000003FFFFE0
0000000001FFFFF0
0000000000FFFFF0
00000000007FFFF8
00000000003FFFF8
00000000001FFFF8
00000000000FFFF0
000000000007FFF0
000000000003FFE0
000000000001FFE0
000000000000FF80
0000000000003F00
ENDCHAR
STARTCHAR 003D
ENCODING 61
SWIDTH 568 0
DWIDTH 91 0
BBX 76 46 8 31
BITMAP
0FFFFFFFFFFFFFFFFE00
1FFFFFFFFFFFFFFFFF80
3FFFFFFFFFFFFFFFFFC0
7FFFFFFFFFFFFFFFFFE0
FFFFFFFFFFFFFFFFFFE0
FFFFFFFFFFFFFFFFFFF0
FFFFFFFFFFFFFFFFFFF0
FFFFFFFFFFFFFFFFFFF0
FFFFFFFFFFFFFFFFFFF0
FFFFFFFFFFFFFFFFFFF0
FFFFFFFFFFFFFFFFFFE0
7FFFFFFFFFFFFFFFFFE0
3FFFFFFFFFFFFFFFFFC0
1FFFFFFFFFFFFFFFFF80
0FFFFFFFFFFFFFFFFE00
00000000000000000000
00000000000000000000
00000000000000000000
00000000000000000000
00000000000000000000
00000000000000000000
00000000000000000000
00000000000000000000
00000000000000000000
00000000000000000000
00000000000000000000
00000000000000000000
00000000000000000000
00000000000000000000
00000000000000000000
03FFFFFFFFFFFFFFFC00
1FFFFFFFFFFFFFFFFF00
3FFFFFFFFFFFFFFFFF80
7FFFFFFFFFFFFFFFFFC0
FFFFFFFFFFFFFFFFFFE0
FFFFFFFFFFFFFFFFFFE0
FFFFFFFFFFFFFFFFFFF0
FFFFFFFFFFFFFFFFFFF0
FFFFFFFFFFFFFFFFFFF0
FFFFFFFFFFFFFFFFFFF0
FFFFFFFFFFFFFFFFFFE0
7FFFFFFFFFFFFFFFFFE0
7FFFFFFFFFFFFFFFFFC0
3FFFFFFFFFFFFFFFFF80
1FFFFFFFFFFFFFFFFF00
01FFFFFFFFFFFFFFF800
ENDCHAR
STARTCHAR 003E
ENCODING 62
SWIDTH 568 0
DWIDTH 91 0
BBX 61 107 23 0
BITMAP
0380000000000000
0FE0000000000000
3FF8000000000000
7FFC000000000000
7FFE000000000000
FFFF000000000000
FFFF800000000000
FFFFC00000000000
FFFFE00000000000
FFFFF00000000000
FFFFF80000000000
7FFFFC0000000000
7FFFFE0000000000
3FFFFF0000000000
1FFFFF8000000000
0FFFFFC000000000
07FFFFE000000000
03FFFFF000000000
01FFFFF800000000
00FFFFFC00000000
007FFFFE00000000
003FFFFF00000000
001FFFFF80000000
000FFFFFC0000000
0007FFFFE0000000
0003FFFFF0000000
0001FFFFF8000000
0000FFFFFC000000
00007FFFFE000000
00003FFFFF000000
00001FFFFF800000
00000FFFFFC00000
000003FFFFE00000
000001FFFFF00000
000000FFFFF80000
0000007FFFFC0000
0000003FFFFE0000
0000001FFFFF0000
0000000FFFFF8000
00000007FFFFC000
00000003FFFFE000
00000001FFFFF000
00000000FFFFF800
000000007FFFFC00
000000003FFFFE00
000000001FFFFF00
000000000FFFFF80
0000000007FFFFC0
0000000003FFFFE0
0000000001FFFFE0
0000000000FFFFF0
00000000007FFFF0
00000000003FFFF8
00000000001FFFF8
00000000003FFFF8
00000000007FFFF8
0000000000FFFFF0
0000000001FFFFF0
0000000003FFFFE0
0000000007FFFFC0
000000000FFFFF80
000000001FFFFF00
000000003FFFFE00
000000007FFFFC00
00000000FFFFF800
00000001FFFFF000
00000003FFFFE000
00000007FFFFC000
0000000FFFFF8000
0000001FFFFF0000
0000003FFFFE0000
0000007FFFFC0000
000000FFFFF80000
000001FFFFF00000
000003FFFFE00000
000007FFFFC00000
00000FFFFF800000
00001FFFFF000000
00003FFFFE000000
00007FFFFC000000
0000FFFFF8000000
0001FFFFF0000000
0003FFFFE0000000
0007FFFFC0000000
000FFFFF80000000
001FFFFF00000000
003FFFFE00000000
007FFFFC00000000
00FFFFF800000000
01FFFFF000000000
03FFFFE000000000
07FFFFC000000000
0FFFFF8000000000
1FFFFF0000000000
3FFFFE0000000000
7FFFFC0000000000
FFFFF80000000000
FFFFF00000000000
FFFFE00000000000
FFFFC00000000000
FFFF800000000000
FFFF000000000000
7FFE000000000000
7FFC000000000000
3FF8000000000000
1FF0000000000000
07C0000000000000
ENDCHAR
STARTCHAR 003F
ENCODING 63
SWIDTH 568 0
DWIDTH 91 0
BBX 76 107 8 0
BITMAP
000007FFFFFFFE000000
0001FFFFFFFFFFF00000
0007FFFFFFFFFFFC0000
001FFFFFFFFFFFFF0000
003FFFFFFFFFFFFFC000
00FFFFFFFFFFFFFFE000
01FFFFFFFFFFFFFFF000
03FFFFFFFFFFFFFFF800
07FFFFFFFFFFFFFFFC00
0FFFFFFFFFFFFFFFFE00
0FFFFFFFFFFFFFFFFF00
1FFFFFFFFFFFFFFFFF00
3FFFFFFFFFFFFFFFFF80
3FFFFFFFFFFFFFFFFFC0
7FFFFFFFFFFFFFFFFFC0
7FFFFFFFFFFFFFFFFFC0
7FFFE000000000FFFFE0
FFFFC0000000003FFFE0
FFFF80000000001FFFE0
FFFF00000000000FFFE0
FFFE00000000000FFFF0
FFFE00000000000FFFF0
FFFE000000000007FFF0
FFFE000000000007FFF0
FFFE000000000007FFF0
FFFC000000000007FFF0
FFFC000000000007FFF0
7FF8000000000007FFF0
3FF8000000000007FFF0
1FE0000000000007FFF0
0780000000000007FFF0
0000000000000007FFF0
0000000000000007FFF0
0000000000000007FFF0
0000000000000007FFF0
000000000000000FFFF0
000000000000001FFFF0
000000000000003FFFF0
000000000000007FFFF0
00000000000000FFFFF0
00000000000001FFFFF0
00000000000003FFFFE0
00000000000007FFFFE0
0000000000000FFFFFC0
0000000000001FFFFF80
0000000000003FFFFF00
0000000000007FFFFE00
000000000000FFFFFC00
000000000001FFFFF800
000000000003FFFFF000
000000000007FFFFE000
00000000000FFFFFC000
00000000001FFFFF8000
00000000003FFFFF0000
00000000007FFFFE0000
0000000000FFFFFC0000
0000000001FFFFF80000
0000000003FFFFF00000
0000000007FFFFE00000
000000000FFFFFC00000
000000001FFFFF800000
000000003FFFFF000000
000000007FFFFE000000
00000000FFFFFC000000
00000000FFFFF8000000
00000001FFFFF0000000
00000003FFFFE0000000
00000003FFFFC0000000
00000003FFFF80000000
00000003FFFF00000000
00000003FFFE00000000
00000001FFFC00000000
00000001FFF800000000
00000000FFF000000000
000000007FE000000000
000000003F8000000000
00000000040000000000
00000000000000000000
00000000000000000000
00000000000000000000
00000000000000000000
00000000000000000000
00000000000000000000
00000000000000000000
00000000000000000000
00000000000000000000
00000000000000000000
00000000000000000000
00000000000000000000
00000000000000000000
00000000000000000000
00000000000000000000
000000001F8000000000
000000007FC000000000
00000000FFE000000000
00000001FFF000000000
00000001FFF800000000
00000003FFF800000000
00000003FFF800000000
00000003FFF800000000
00000003FFF800000000
00000003FFF800000000
00000001FFF800000000
00000001FFF000000000
00000000FFE000000000
000000007FC000000000
000000001F0000000000
ENDCHAR
STARTCHAR 0040
ENCODING 64
SWIDTH 568 0
DWIDTH 91 0
BBX 76 107 8 0
BITMAP
000007FFFFFFFE000000
0001FFFFFFFFFFF00000
0007FFFFFFFFFFFC0000
001FFFFFFFFFFFFF0000
003FFFFFFFFFFFFFC000
00FFFFFFFFFFFFFFE000
01FFFFFFFFFFFFFFF000
03FFFFFFFFFFFFFFF800
07FFFFFFFFFFFFFFFC00
0FFFFFFFFFFFFFFFFE00
0FFFFFFFFFFFFFFFFF00
1FFFFFFFFFFFFFFFFF00
3FFFFFFFFFFFFFFFFF80
3FFFFFFFFFFFFFFFFFC0
7FFFFFFFFFFFFFFFFFC0
7FFFFFFFFFFFFFFFFFC0
7FFFE000000000FFFFE0
FFFFC0000000003FFFE0
FFFF80000000001FFFE0
FFFF00000000000FFFE0
FFFE00000000000FFFF0
FFFE00000000000FFFF0
FFFE000000000007FFF0
FFFE000000000007FFF0
FFFE000000000007FFF0
FFFE000000000007FFF0
FFFE000000000007FFF0
FFFE000000000007FFF0
FFFE000000000007FFF0
FFFE000000000007FFF0
FFFE000000000007FFF0
FFFE00000001FFFFFFF0
FFFE0000000FFFFFFFF0
FFFE0000003FFFFFFFF0
FFFE0000007FFFFFFFF0
FFFE000001FFFFFFFFF0
FFFE000003FFFFFFFFF0
FFFE000007FFFFFFFFF0
FFFE00000FFFFFFFFFF0
FFFE00001FFFFFFFFFF0
FFFE00003FFFFFFFFFF0
FFFE00003FFFFFFFFFF0
FFFE00007FFFFFFFFFF0
FFFE00007FFFFFFFFFF0
FFFE0000FFFFFFFFFFF0
FFFE0000FFFFFFFFFFF0
FFFE0001FFFFE1FFFFF0
FFFE0001FFFF807FFFF0
FFFE0001FFFE003FFFF0
FFFE0003FFFE001FFFF0
FFFE0003FFFC000FFFF0
FFFE0003FFFC000FFFF0
FFFE0003FFF8000FFFF0
FFFE0003FFF80007FFF0
FFFE0003FFF80007FFF0
FFFE0003FFFC000FFFF0
FFFE0003FFFC000FFFF0
FFFE0003FFFC001FFFE0
FFFE0001FFFE001FFFE0
FFFE0001FFFF003FFFE0
FFFE0001FFFFC0FFFFE0
FFFE0001FFFFFFFFFFC0
FFFE0000FFFFFFFFFFC0
FFFE0000FFFFFFFFFF80
FFFE00007FFFFFFFFF80
FFFE00003FFFFFFFFF00
FFFE00003FFFFFFFFF00
FFFE00001FFFFFFFFE00
FFFE00000FFFFFFFFC00
FFFE000007FFFFFFF800
FFFE000003FFFFFFF000
FFFE000001FFFFFFE000
FFFE000000FFFFFFC000
FFFE0000003FFFFF0000
FFFE0000000FFFFC0000
FFFE00000003FFF00000
FFFE0000000000000000
FFFE0000000000000000
FFFE0000000000000000
FFFE0000000000000000
FFFE0000000000000000
FFFE0000000000000000
FFFE0000000000000000
FFFE0000000000000000
FFFE0000000000000000
FFFE0000000000000000
FFFE0000000000000000
FFFF0000000000000000
FFFF0000000000000000
FFFF8000000000000000
FFFFC000000000000000
7FFFF800000000000000
7FFFFFFFFFFFFFFFFE00
3FFFFFFFFFFFFFFFFF80
3FFFFFFFFFFFFFFFFFC0
1FFFFFFFFFFFFFFFFFE0
1FFFFFFFFFFFFFFFFFE0
0FFFFFFFFFFFFFFFFFF0
07FFFFFFFFFFFFFFFFF0
03FFFFFFFFFFFFFFFFF0
01FFFFFFFFFFFFFFFFF0
00FFFFFFFFFFFFFFFFF0
007FFFFFFFFFFFFFFFE0
001FFFFFFFFFFFFFFFE0
000FFFFFFFFFFFFFFFC0
0003FFFFFFFFFFFFFF80
00003FFFFFFFFFFFFE00
ENDCHAR
STARTCHAR 0041
ENCODING 65
SWIDTH 568 0
DWIDTH 91 0
BBX 76 107 8 0
BITMAP
000007FFFFFFFE000000
0001FFFFFFFFFFF00000
0007FFFFFFFFFFFC0000
001FFFFFFFFFFFFF0000
003FFFFFFFFFFFFFC000
00FFFFFFFFFFFFFFE000
01FFFFFFFFFFFFFFF000
03FFFFFFFFFFFFFFF800
07FFFFFFFFFFFFFFFC00
0FFFFFFFFFFFFFFFFE00
0FFFFFFFFFFFFFFFFF00
1FFFFFFFFFFFFFFFFF00
3FFFFFFFFFFFFFFFFF80
3FFFFFFFFFFFFFFFFFC0
7FFFFFFFFFFFFFFFFFC0
7FFFFFFFFFFFFFFFFFC0
7FFFE000000000FFFFE0
FFFFC0000000003FFFE0
FFFF80000000001FFFE0
FFFF00000000000FFFE0
FFFE00000000000FFFF0
FFFE00000000000FFFF0
FFFE000000000007FFF0
FFFE000000000007FFF0
FFFE000000000007FFF0
FFFE000000000007FFF0
FFFE000000000007FFF0
FFFE000000000007FFF0
FFFE000000000007FFF0
FFFE000000000007FFF0
FFFE000000000007FFF0
FFFE000000000007FFF0
FFFE000000000007FFF0
FFFE000000000007FFF0
FFFE000000000007FFF0
FFFE000000000007FFF0
FFFE000000000007FFF0
FFFE000000000007FFF0
FFFE000000000007FFF0
FFFE000000000007FFF0
FFFE000000000007FFF0
FFFE000000000007FFF0
FFFE000000000007FFF0
FFFE000000000007FFF0
FFFE000000000007FFF0
FFFE000000000007FFF0
FFFFFFFFFFFFFFFFFFF0
FFFFFFFFFFFFFFFFFFF0
FFFFFFFFFFFFFFFFFFF0
FFFFFFFFFFFFFFFFFFF0
FFFFFFFFFFFFFFFFFFF0
FFFFFFFFFFFFFFFFFFF0
FFFFFFFFFFFFFFFFFFF0
FFFFFFFFFFFFFFFFFFF0
FFFFFFFFFFFFFFFFFFF0
FFFFFFFFFFFFFFFFFFF0
FFFFFFFFFFFFFFFFFFF0
FFFFFFFFFFFFFFFFFFF0
FFFFFFFFFFFFFFFFFFF0
FFFFFFFFFFFFFFFFFFF0
FFFFFFFFFFFFFFFFFFF0
FFFE000000000007FFF0
FFFE000000000007FFF0
FFFE000000000007FFF0
FFFE000000000007FFF0
FFFE000000000007FFF0
FFFE000000000007FFF0
FFFE000000000007FFF0
FFFE000000000007FFF0
FFFE000000000007FFF0
FFFE000000000007FFF0
FFFE000000000007FFF0
FFFE000000000007FFF0
FFFE000000000007FFF0
FFFE000000000007FFF0
FFFE000000000007FFF0
FFFE000000000007FFF0
FFFE000000000007FFF0
FFFE000000000007FFF0
FFFE000000000007FFF0
FFFE000000000007FFF0
FFFE000000000007FFF0
FFFE000000000007FFF0
FFFE000000000007FFF0
FFFE000000000007FFF0
FFFE000000000007FFF0
FFFE000000000007FFF0
FFFE000000000007FFF0
FFFE000000000007FFF0
FFFE000000000007FFF0
FFFE000000000007FFF0
FFFE000000000007FFF0
FFFE000000000007FFF0
FFFE000000000007FFF0
FFFE000000000007FFF0
FFFE000000000007FFF0
FFFE000000000007FFF0
FFFE000000000007FFF0
FFFE000000000007FFF0
FFFE000000000007FFF0
FFFE000000000007FFF0
FFFE000000000007FFF0
FFFC000000000007FFE0
7FFC000000000003FFE0
3FF8000000000001FFC0
1FF0000000000000FF80
07C00000000000003E00
ENDCHAR
STARTCHAR 0042
ENCODING 66
SWIDTH 568 0
DWIDTH 91 0
BBX 76 107 8 0
BITMAP
03FFFFFFFFFFFE000000
1FFFFFFFFFFFFFF00000
3FFFFFFFFFFFFFFC0000
7FFFFFFFFFFFFFFF0000
FFFFFFFFFFFFFFFFC000
FFFFFFFFFFFFFFFFE000
FFFFFFFFFFFFFFFFF000
FFFFFFFFFFFFFFFFF800
FFFFFFFFFFFFFFFFFC00
FFFFFFFFFFFFFFFFFE00
FFFFFFFFFFFFFFFFFF00
FFFFFFFFFFFFFFFFFF00
FFFFFFFFFFFFFFFFFF80
FFFFFFFFFFFFFFFFFFC0
FFFFFFFFFFFFFFFFFFC0
FFFFFFFFFFFFFFFFFFC0
FFFE0000000000FFFFE0
FFFE00000000003FFFE0
FFFE00000000001FFFE0
FFFE00000000000FFFE0
FFFE00000000000FFFF0
FFFE00000000000FFFF0
FFFE000000000007FFF0
FFFE000000000007FFF0
FFFE000000000007FFF0
FFFE000000000007FFF0
FFFE000000000007FFF0
FFFE000000000007FFF0
FFFE000000000007FFF0
FFFE000000000007FFF0
FFFE000000000007FFF0
FFFE000000000007FFF0
FFFE000000000007FFF0
FFFE000000000007FFF0
FFFE000000000007FFF0
FFFE000000000007FFF0
FFFE000000000007FFF0
FFFE000000000007FFF0
FFFE000000000007FFF0
FFFE00000000000FFFF0
FFFE00000000000FFFF0
FFFE00000000000FFFF0
FFFE00000000001FFFE0
FFFE00000000001FFFE0
FFFE00000000007FFFE0
FFFE0000000000FFFFE0
FFFFFFFFFFFFFFFFFFC0
FFFFFFFFFFFFFFFFFFC0
FFFFFFFFFFFFFFFFFF80
FFFFFFFFFFFFFFFFFF80
FFFFFFFFFFFFFFFFFF00
FFFFFFFFFFFFFFFFFE00
FFFFFFFFFFFFFFFFFE00
FFFFFFFFFFFFFFFFFC00
FFFFFFFFFFFFFFFFF800
FFFFFFFFFFFFFFFFFC00
FFFFFFFFFFFFFFFFFE00
FFFFFFFFFFFFFFFFFF00
FFFFFFFFFFFFFFFFFF80
FFFFFFFFFFFFFFFFFF80
FFFFFFFFFFFFFFFFFFC0
FFFE0000000001FFFFC0
FFFE00000000007FFFE0
FFFE00000000003FFFE0
FFFE00000000001FFFE0
FFFE00000000000FFFF0
FFFE00000000000FFFF0
FFFE00000000000FFFF0
FFFE000000000007FFF0
FFFE000000000007FFF0
FFFE000000000007FFF0
FFFE000000000007FFF0
FFFE000000000007FFF0
FFFE000000000007FFF0
FFFE000000000007FFF0
FFFE000000000007FFF0
FFFE000000000007FFF0
FFFE000000000007FFF0
FFFE000000000007FFF0
FFFE000000000007FFF0
FFFE000000000007FFF0
FFFE000000000007FFF0
FFFE000000000007FFF0
FFFE000000000007FFF0
FFFE000000000007FFF0
FFFE00000000000FFFF0
FFFE00000000000FFFF0
FFFE00000000000FFFF0
FFFE00000000001FFFE0
FFFE00000000003FFFE0
FFFE00000000007FFFE0
FFFE0000000001FFFFE0
FFFFFFFFFFFFFFFFFFC0
FFFFFFFFFFFFFFFFFFC0
FFFFFFFFFFFFFFFFFF80
FFFFFFFFFFFFFFFFFF80
FFFFFFFFFFFFFFFFFF00
FFFFFFFFFFFFFFFFFE00
FFFFFFFFFFFFFFFFFC00
FFFFFFFFFFFFFFFFFC00
FFFFFFFFFFFFFFFFF800
FFFFFFFFFFFFFFFFF000
FFFFFFFFFFFFFFFFC000
7FFFFFFFFFFFFFFF8000
3FFFFFFFFFFFFFFE0000
1FFFFFFFFFFFFFF80000
07FFFFFFFFFFFFC00000
ENDCHAR
STARTCHAR 0043
ENCODING 67
SWIDTH 568 0
DWIDTH 91 0
BBX 76 107 8 0
BITMAP
000007FFFFFFFE000000
0001FFFFFFFFFFF00000
0007FFFFFFFFFFFC0000
001FFFFFFFFFFFFF0000
003FFFFFFFFFFFFFC000
00FFFFFFFFFFFFFFE000
01FFFFFFFFFFFFFFF000
03FFFFFFFFFFFFFFF800
07FFFFFFFFFFFFFFFC00
0FFFFFFFFFFFFFFFFE00
0FFFFFFFFFFFFFFFFF00
1FFFFFFFFFFFFFFFFF00
3FFFFFFFFFFFFFFFFF80
3FFFFFFFFFFFFFFFFFC0
7FFFFFFFFFFFFFFFFFC0
7FFFFFFFFFFFFFFFFFC0
7FFFE000000000FFFFE0
FFFFC0000000003FFFE0
FFFF80000000001FFFE0
FFFF00000000000FFFE0
FFFE00000000000FFFF0
FFFE00000000000FFFF0
FFFE000000000007FFF0
FFFE000000000007FFF0
FFFE000000000007FFF0
FFFE000000000007FFE0
FFFE000000000007FFE0
FFFE000000000003FFC0
FFFE000000000001FFC0
FFFE000000000000FF00
FFFE0000000000003C00
FFFE0000000000000000
FFFE0000000000000000
FFFE0000000000000000
FFFE0000000000000000
FFFE0000000000000000
FFFE0000000000000000
FFFE0000000000000000
FFFE0000000000000000
FFFE0000000000000000
FFFE0000000000000000
FFFE0000000000000000
FFFE0000000000000000
FFFE0000000000000000
FFFE0000000000000000
FFFE0000000000000000
FFFE0000000000000000
FFFE0000000000000000
FFFE0000000000000000
FFFE0000000000000000
FFFE0000000000000000
FFFE0000000000000000
FFFE0000000000000000
FFFE0000000000000000
FFFE0000000000000000
FFFE0000000000000000
FFFE0000000000000000
FFFE0000000000000000
FFFE0000000000000000
FFFE0000000000000000
FFFE0000000000000000
FFFE0000000000000000
FFFE0000000000000000
FFFE0000000000000000
FFFE0000000000000000
FFFE0000000000000000
FFFE0000000000000000
FFFE0000000000000000
FFFE0000000000000000
FFFE0000000000000000
FFFE0000000000000000
FFFE0000000000000000
FFFE0000000000000000
FFFE0000000000000000
FFFE0000000000000000
FFFE0000000000000000
FFFE0000000000000000
FFFE0000000000007F00
FFFE000000000001FF80
FFFE000000000003FFC0
FFFE000000000003FFE0
FFFE000000000007FFE0
FFFE000000000007FFF0
FFFE000000000007FFF0
FFFE000000000007FFF0
FFFE00000000000FFFF0
FFFE00000000000FFFF0
FFFF00000000000FFFF0
FFFF00000000001FFFE0
FFFF80000000003FFFE0
FFFFC0000000007FFFE0
7FFFF800000001FFFFE0
7FFFFFFFFFFFFFFFFFC0
3FFFFFFFFFFFFFFFFFC0
3FFFFFFFFFFFFFFFFF80
1FFFFFFFFFFFFFFFFF80
1FFFFFFFFFFFFFFFFF00
0FFFFFFFFFFFFFFFFE00
07FFFFFFFFFFFFFFFC00
03FFFFFFFFFFFFFFFC00
01FFFFFFFFFFFFFFF800
00FFFFFFFFFFFFFFF000
007FFFFFFFFFFFFFC000
001FFFFFFFFFFFFF8000
000FFFFFFFFFFFFE0000
0003FFFFFFFFFFF80000
00003FFFFFFFFFC00000
ENDCHAR
STARTCHAR 0044
ENCODING 68
SWIDTH 568 0
DWIDTH 91 0
BBX 76 107 8 0
BITMAP
03FFFFFFFFFFFE000000
1FFFFFFFFFFFFFF00000
3FFFFFFFFFFFFFFC0000
7FFFFFFFFFFFFFFF0000
FFFFFFFFFFFFFFFFC000
FFFFFFFFFFFFFFFFE000
FFFFFFFFFFFFFFFFF000
FFFFFFFFFFFFFFFFF800
FFFFFFFFFFFFFFFFFC00
FFFFFFFFFFFFFFFFFE00
FFFFFFFFFFFFFFFFFF00
FFFFFFFFFFFFFFFFFF00
FFFFFFFFFFFFFFFFFF80
FFFFFFFFFFFFFFFFFFC0
FFFFFFFFFFFFFFFFFFC0
FFFFFFFFFFFFFFFFFFC0
FFFE0000000000FFFFE0
FFFE00000000003FFFE0
FFFE00000000001FFFE0
FFFE00000000000FFFE0
FFFE00000000000FFFF0
FFFE00000000000FFFF0
FFFE000000000007FFF0
FFFE000000000007FFF0
FFFE000000000007FFF0
FFFE000000000007FFF0
FFFE000000000007FFF0
FFFE000000000007FFF0
FFFE000000000007FFF0
FFFE000000000007FFF0
FFFE000000000007FFF0
FFFE000000000007FFF0
FFFE000000000007FFF0
FFFE000000000007FFF0
FFFE000000000007FFF0
FFFE000000000007FFF0
FFFE000000000007FFF0
FFFE000000000007FFF0
FFFE000000000007FFF0
FFFE000000000007FFF0
FFFE000000000007FFF0
FFFE000000000007FFF0
FFFE000000000007FFF0
FFFE000000000007FFF0
FFFE000000000007FFF0
FFFE000000000007FFF0
FFFE000000000007FFF0
FFFE000000000007FFF0
FFFE000000000007FFF0
FFFE000000000007FFF0
FFFE000000000007FFF0
FFFE000000000007FFF0
FFFE000000000007FFF0
FFFE000000000007FFF0
FFFE000000000007FFF0
FFFE000000000007FFF0
FFFE000000000007FFF0
FFFE000000000007FFF0
FFFE000000000007FFF0
FFFE000000000007FFF0
FFFE000000000007FFF0
FFFE000000000007FFF0
FFFE000000000007FFF0
FFFE000000000007FFF0
FFFE000000000007FFF0
FFFE000000000007FFF0
FFFE000000000007FFF0
FFFE000000000007FFF0
FFFE000000000007FFF0
FFFE000000000007FFF0
FFFE000000000007FFF0
FFFE000000000007FFF0
FFFE000000000007FFF0
FFFE000000000007FFF0
FFFE000000000007FFF0
FFFE000000000007FFF0
FFFE000000000007FFF0
FFFE000000000007FFF0
FFFE000000000007FFF0
FFFE000000000007FFF0
FFFE000000000007FFF0
FFFE000000000007FFF0
FFFE000000000007FFF0
FFFE000000000007FFF0
FFFE000000000007FFF0
FFFE00000000000FFFF0
FFFE00000000000FFFF0
FFFE00000000000FFFF0
FFFE00000000001FFFE0
FFFE00000000003FFFE0
FFFE00000000007FFFE0
FFFE0000000001FFFFE0
FFFFFFFFFFFFFFFFFFC0
FFFFFFFFFFFFFFFFFFC0
FFFFFFFFFFFFFFFFFF80
FFFFFFFFFFFFFFFFFF80
FFFFFFFFFFFFFFFFFF00
FFFFFFFFFFFFFFFFFE00
FFFFFFFFFFFFFFFFFC00
FFFFFFFFFFFFFFFFFC00
FFFFFFFFFFFFFFFFF800
FFFFFFFFFFFFFFFFF000
FFFFFFFFFFFFFFFFC000
7FFFFFFFFFFFFFFF8000
3FFFFFFFFFFFFFFE0000
1FFFFFFFFFFFFFF80000
07FFFFFFFFFFFFC00000
ENDCHAR
STARTCHAR 0045
ENCODING 69
SWIDTH 568 0
DWIDTH 91 0
BBX 76 107 8 0
BITMAP
03FFFFFFFFFFFFFFFC00
1FFFFFFFFFFFFFFFFF00
3FFFFFFFFFFFFFFFFF80
7FFFFFFFFFFFFFFFFFC0
FFFFFFFFFFFFFFFFFFE0
FFFFFFFFFFFFFFFFFFE0
FFFFFFFFFFFFFFFFFFF0
FFFFFFFFFFFFFFFFFFF0
FFFFFFFFFFFFFFFFFFF0
FFFFFFFFFFFFFFFFFFF0
FFFFFFFFFFFFFFFFFFE0
FFFFFFFFFFFFFFFFFFE0
FFFFFFFFFFFFFFFFFFC0
FFFFFFFFFFFFFFFFFF80
FFFFFFFFFFFFFFFFFF00
FFFFFFFFFFFFFFFFF800
FFFE0000000000000000
FFFE0000000000000000
FFFE0000000000000000
FFFE0000000000000000
FFFE0000000000000000
FFFE0000000000000000
FFFE0000000000000000
FFFE0000000000000000
FFFE0000000000000000
FFFE0000000000000000
FFFE0000000000000000
FFFE0000000000000000
FFFE0000000000000000
FFFE0000000000000000
FFFE0000000000000000
FFFE0000000000000000
FFFE0000000000000000
FFFE0000000000000000
FFFE0000000000000000
FFFE0000000000000000
FFFE0000000000000000
FFFE0000000000000000
FFFE0000000000000000
FFFE0000000000000000
FFFE0000000000000000
FFFE0000000000000000
FFFE0000000000000000
FFFE0000000000000000
FFFE0000000000000000
FFFE0000000000000000
FFFFFFFFFFFFFE000000
FFFFFFFFFFFFFF800000
FFFFFFFFFFFFFFC00000
FFFFFFFFFFFFFFE00000
FFFFFFFFFFFFFFF00000
FFFFFFFFFFFFFFF00000
FFFFFFFFFFFFFFF00000
FFFFFFFFFFFFFFF80000
FFFFFFFFFFFFFFF80000
FFFFFFFFFFFFFFF00000
FFFFFFFFFFFFFFF00000
FFFFFFFFFFFFFFE00000
FFFFFFFFFFFFFFE00000
FFFFFFFFFFFFFFC00000
FFFFFFFFFFFFFF000000
FFFE0000000000000000
FFFE0000000000000000
FFFE0000000000000000
FFFE0000000000000000
FFFE0000000000000000
FFFE0000000000000000
FFFE0000000000000000
FFFE0000000000000000
FFFE0000000000000000
FFFE0000000000000000
FFFE0000000000000000
FFFE0000000000000000
FFFE0000000000000000
FFFE0000000000000000
FFFE0000000000000000
FFFE0000000000000000
FFFE0000000000000000
FFFE0000000000000000
FFFE0000000000000000
FFFE0000000000000000
FFFE0000000000000000
FFFE0000000000000000
FFFE0000000000000000
FFFE0000000000000000
FFFE0000000000000000
FFFE0000000000000000
FFFE0000000000000000
FFFE0000000000000000
FFFE0000000000000000
FFFE0000000000000000
FFFE0000000000000000
FFFFFFFFFFFFFFFFFE00
FFFFFFFFFFFFFFFFFF80
FFFFFFFFFFFFFFFFFFC0
FFFFFFFFFFFFFFFFFFE0
FFFFFFFFFFFFFFFFFFE0
FFFFFFFFFFFFFFFFFFF0
FFFFFFFFFFFFFFFFFFF0
FFFFFFFFFFFFFFFFFFF0
FFFFFFFFFFFFFFFFFFF0
FFFFFFFFFFFFFFFFFFF0
FFFFFFFFFFFFFFFFFFE0
7FFFFFFFFFFFFFFFFFE0
3FFFFFFFFFFFFFFFFFC0
1FFFFFFFFFFFFFFFFF80
07FFFFFFFFFFFFFFFE00
ENDCHAR
STARTCHAR 0046
ENCODING 70
SWIDTH 568 0
DWIDTH 91 0
BBX 76 107 8 0
BITMAP
03FFFFFFFFFFFFFFFC00
1FFFFFFFFFFFFFFFFF00
3FFFFFFFFFFFFFFFFF80
7FFFFFFFFFFFFFFFFFC0
FFFFFFFFFFFFFFFFFFE0
FFFFFFFFFFFFFFFFFFE0
FFFFFFFFFFFFFFFFFFF0
FFFFFFFFFFFFFFFFFFF0
FFFFFFFFFFFFFFFFFFF0
FFFFFFFFFFFFFFFFFFF0
FFFFFFFFFFFFFFFFFFE0
FFFFFFFFFFFFFFFFFFE0
FFFFFFFFFFFFFFFFFFC0
FFFFFFFFFFFFFFFFFF80
FFFFFFFFFFFFFFFFFF00
FFFFFFFFFFFFFFFFF800
FFFE0000000000000000
FFFE0000000000000000
FFFE0000000000000000
FFFE0000000000000000
FFFE0000000000000000
FFFE0000000000000000
FFFE0000000000000000
FFFE0000000000000000
FFFE0000000000000000
FFFE0000000000000000
FFFE0000000000000000
FFFE0000000000000000
FFFE0000000000000000
FFFE0000000000000000
FFFE0000000000000000
FFFE0000000000000000
FFFE0000000000000000
FFFE0000000000000000
FFFE0000000000000000
FFFE0000000000000000
FFFE0000000000000000
FFFE0000000000000000
FFFE0000000000000000
FFFE0000000000000000
FFFE0000000000000000
FFFE0000000000000000
FFFE0000000000000000
FFFE0000000000000000
FFFE0000000000000000
FFFE0000000000000000
FFFFFFFFFFFFFE000000
FFFFFFFFFFFFFF800000
FFFFFFFFFFFFFFC00000
FFFFFFFFFFFFFFE00000
FFFFFFFFFFFFFFF00000
FFFFFFFFFFFFFFF00000
FFFFFFFFFFFFFFF00000
FFFFFFFFFFFFFFF80000
FFFFFFFFFFFFFFF80000
FFFFFFFFFFFFFFF00000
FFFFFFFFFFFFFFF00000
FFFFFFFFFFFFFFE00000
FFFFFFFFFFFFFFE00000
FFFFFFFFFFFFFFC00000
FFFFFFFFFFFFFF000000
FFFE0000000000000000
FFFE0000000000000000
FFFE0000000000000000
FFFE0000000000000000
FFFE0000000000000000
FFFE0000000000000000
FFFE0000000000000000
FFFE0000000000000000
FFFE0000000000000000
FFFE0000000000000000
FFFE0000000000000000
FFFE0000000000000000
FFFE0000000000000000
FFFE0000000000000000
FFFE0000000000000000
FFFE0000000000000000
FFFE0000000000000000
FFFE0000000000000000
FFFE0000000000000000
FFFE0000000000000000
FFFE0000000000000000
FFFE0000000000000000
FFFE0000000000000000
FFFE0000000000000000
FFFE0000000000000000
FFFE0000000000000000
FFFE0000000000000000
FFFE0000000000000000
FFFE0000000000000000
FFFE0000000000000000
FFFE0000000000000000
FFFE0000000000000000
FFFE0000000000000000
FFFE0000000000000000
FFFE0000000000000000
FFFE0000000000000000
FFFE0000000000000000
FFFE0000000000000000
FFFC0000000000000000
FFFC0000000000000000
FFFC0000000000000000
FFFC0000000000000000
7FF80000000000000000
3FF80000000000000000
1FF00000000000000000
07C00000000000000000
ENDCHAR
STARTCHAR 0047
ENCODING 71
SWIDTH 568 0
DWIDTH 91 0
BBX 76 107 8 0
BITMAP
000007FFFFFFFE000000
0001FFFFFFFFFFF00000
0007FFFFFFFFFFFC0000
001FFFFFFFFFFFFF0000
003FFFFFFFFFFFFFC000
00FFFFFFFFFFFFFFE000
01FFFFFFFFFFFFFFF000
03FFFFFFFFFFFFFFF800
07FFFFFFFFFFFFFFFC00
0FFFFFFFFFFFFFFFFE00
0FFFFFFFFFFFFFFFFF00
1FFFFFFFFFFFFFFFFF00
3FFFFFFFFFFFFFFFFF80
3FFFFFFFFFFFFFFFFFC0
7FFFFFFFFFFFFFFFFFC0
7FFFFFFFFFFFFFFFFFC0
7FFFE000000000FFFFE0
FFFFC0000000003FFFE0
FFFF80000000001FFFE0
FFFF00000000000FFFE0
FFFE00000000000FFFF0
FFFE00000000000FFFF0
FFFE000000000007FFF0
FFFE000000000007FFF0
FFFE000000000007FFF0
FFFE000000000007FFE0
FFFE000000000007FFE0
FFFE000000000003FFC0
FFFE000000000001FFC0
FFFE000000000000FF00
FFFE0000000000003C00
FFFE0000000000000000
FFFE0000000000000000
FFFE0000000000000000
FFFE0000000000000000
FFFE0000000000000000
FFFE0000000000000000
FFFE0000000000000000
FFFE0000000000000000
FFFE0000000000000000
FFFE0000000000000000
FFFE0000000000000000
FFFE0000000000000000
FFFE0000000000000000
FFFE0000000000000000
FFFE0000000000000000
FFFE000000003FFFFE00
FFFE000000007FFFFF00
FFFE00000001FFFFFFC0
FFFE00000001FFFFFFC0
FFFE00000003FFFFFFE0
FFFE00000003FFFFFFE0
FFFE00000007FFFFFFF0
FFFE00000007FFFFFFF0
FFFE00000007FFFFFFF0
FFFE00000003FFFFFFF0
FFFE00000003FFFFFFF0
FFFE00000003FFFFFFF0
FFFE00000001FFFFFFF0
FFFE00000000FFFFFFF0
FFFE000000003FFFFFF0
FFFE000000000007FFF0
FFFE000000000007FFF0
FFFE000000000007FFF0
FFFE000000000007FFF0
FFFE000000000007FFF0
FFFE000000000007FFF0
FFFE000000000007FFF0
FFFE000000000007FFF0
FFFE000000000007FFF0
FFFE000000000007FFF0
FFFE000000000007FFF0
FFFE000000000007FFF0
FFFE000000000007FFF0
FFFE000000000007FFF0
FFFE000000000007FFF0
FFFE000000000007FFF0
FFFE000000000007FFF0
FFFE000000000007FFF0
FFFE000000000007FFF0
FFFE000000000007FFF0
FFFE000000000007FFF0
FFFE000000000007FFF0
FFFE000000000007FFF0
FFFE000000000007FFF0
FFFE00000000000FFFF0
FFFE00000000000FFFF0
FFFF00000000000FFFF0
FFFF00000000001FFFE0
FFFF80000000003FFFE0
FFFFC0000000007FFFE0
7FFFF800000001FFFFE0
7FFFFFFFFFFFFFFFFFC0
3FFFFFFFFFFFFFFFFFC0
3FFFFFFFFFFFFFFFFF80
1FFFFFFFFFFFFFFFFF80
1FFFFFFFFFFFFFFFFF00
0FFFFFFFFFFFFFFFFE00
07FFFFFFFFFFFFFFFC00
03FFFFFFFFFFFFFFFC00
01FFFFFFFFFFFFFFF800
00FFFFFFFFFFFFFFF000
007FFFFFFFFFFFFFC000
001FFFFFFFFFFFFF8000
000FFFFFFFFFFFFE0000
0003FFFFFFFFFFF80000
00003FFFFFFFFFC00000
ENDCHAR
STARTCHAR 0048
ENCODING 72
SWIDTH 568 0
DWIDTH 91 0
BBX 76 107 8 0
BITMAP
03800000000000001C00
1FE0000000000000FF00
3FF0000000000001FF80
7FF8000000000003FFC0
FFFC000000000007FFE0
FFFC000000000007FFE0
FFFE000000000007FFF0
FFFE000000000007FFF0
FFFE000000000007FFF0
FFFE000000000007FFF0
FFFE000000000007FFF0
FFFE000000000007FFF0
FFFE000000000007FFF0
FFFE000000000007FFF0
FFFE000000000007FFF0
FFFE000000000007FFF0
FFFE000000000007FFF0
FFFE000000000007FFF0
FFFE000000000007FFF0
FFFE000000000007FFF0
FFFE000000000007FFF0
FFFE000000000007FFF0
FFFE000000000007FFF0
FFFE000000000007FFF0
FFFE000000000007FFF0
FFFE000000000007FFF0
FFFE000000000007FFF0
FFFE000000000007FFF0
FFFE000000000007FFF0
FFFE000000000007FFF0
FFFE000000000007FFF0
FFFE000000000007FFF0
FFFE000000000007FFF0
FFFE000000000007FFF0
FFFE000000000007FFF0
FFFE000000000007FFF0
FFFE000000000007FFF0
FFFE000000000007FFF0
FFFE000000000007FFF0
FFFE000000000007FFF0
FFFE000000000007FFF0
FFFE000000000007FFF0
FFFE000000000007FFF0
FFFE000000000007FFF0
FFFE000000000007FFF0
FFFE000000000007FFF0
FFFFFFFFFFFFFFFFFFF0
FFFFFFFFFFFFFFFFFFF0
FFFFFFFFFFFFFFFFFFF0
FFFFFFFFFFFFFFFFFFF0
FFFFFFFFFFFFFFFFFFF0
FFFFFFFFFFFFFFFFFFF0
FFFFFFFFFFFFFFFFFFF0
FFFFFFFFFFFFFFFFFFF0
FFFFFFFFFFFFFFFFFFF0
FFFFFFFFFFFFFFFFFFF0
FFFFFFFFFFFFFFFFFFF0
FFFFFFFFFFFFFFFFFFF0
FFFFFFFFFFFFFFFFFFF0
FFFFFFFFFFFFFFFFFFF0
FFFFFFFFFFFFFFFFFFF0
FFFE000000000007FFF0
FFFE000000000007FFF0
FFFE000000000007FFF0
FFFE000000000007FFF0
FFFE000000000007FFF0
FFFE000000000007FFF0
FFFE000000000007FFF0
FFFE000000000007FFF0
FFFE000000000007FFF0
FFFE000000000007FFF0
FFFE000000000007FFF0
FFFE000000000007FFF0
FFFE000000000007FFF0
FFFE000000000007FFF0
FFFE000000000007FFF0
FFFE000000000007FFF0
FFFE000000000007FFF0
FFFE000000000007FFF0
FFFE000000000007FFF0
FFFE000000000007FFF0
FFFE000000000007FFF0
FFFE000000000007FFF0
FFFE000000000007FFF0
FFFE000000000007FFF0
FFFE000000000007FFF0
FFFE000000000007FFF0
FFFE000000000007FFF0
FFFE000000000007FFF0
FFFE000000000007FFF0
FFFE000000000007FFF0
FFFE000000000007FFF0
FFFE000000000007FFF0
FFFE000000000007FFF0
FFFE000000000007FFF0
FFFE000000000007FFF0
FFFE000000000007FFF0
FFFE000000000007FFF0
FFFE000000000007FFF0
FFFE000000000007FFF0
FFFE000000000007FFF0
FFFE000000000007FFF0
FFFC000000000007FFE0
7FFC000000000003FFE0
3FF8000000000001FFC0
1FF0000000000000FF80
07C00000000000003E00
ENDCHAR
STARTCHAR 0049
ENCODING 73
SWIDTH 568 0
DWIDTH 91 0
BBX 46 107 23 0
BITMAP
03FFFFFFFE00
0FFFFFFFFFC0
3FFFFFFFFFE0
7FFFFFFFFFF0
7FFFFFFFFFF8
FFFFFFFFFFF8
FFFFFFFFFFF8
FFFFFFFFFFFC
FFFFFFFFFFFC
FFFFFFFFFFF8
FFFFFFFFFFF8
7FFFFFFFFFF8
7FFFFFFFFFF0
3FFFFFFFFFE0
0FFFFFFFFFC0
01FFFFFFFE00
0001FFFC0000
0001FFFC0000
0001FFFC0000
0001FFFC0000
0001FFFC0000
0001FFFC0000
0001FFFC0000
0001FFFC0000
0001FFFC0000
0001FFFC0000
0001FFFC0000
0001FFFC0000
0001FFFC0000
0001FFFC0000
0001FFFC0000
0001FFFC0000
0001FFFC0000
0001FFFC0000
0001FFFC0000
0001FFFC0000
0001FFFC0000
0001FFFC0000
0001FFFC0000
0001FFFC0000
0001FFFC0000
0001FFFC0000
0001FFFC0000
0001FFFC0000
0001FFFC0000
0001FFFC0000
0001FFFC0000
0001FFFC0000
0001FFFC0000
0001FFFC0000
0001FFFC0000
0001FFFC0000
0001FFFC0000
0001FFFC0000
0001FFFC0000
0001FFFC0000
0001FFFC0000
0001FFFC0000
0001FFFC0000
0001FFFC0000
0001FFFC0000
0001FFFC0000
0001FFFC0000
0001FFFC0000
0001FFFC0000
0001FFFC0000
0001FFFC0000
0001FFFC0000
0001FFFC0000
0001FFFC0000
0001FFFC0000
0001FFFC0000
0001FFFC0000
0001FFFC0000
0001FFFC0000
0001FFFC0000
0001FFFC0000
0001FFFC0000
0001FFFC0000
0001FFFC0000
0001FFFC0000
0001FFFC0000
0001FFFC0000
0001FFFC0000
0001FFFC0000
0001FFFC0000
0001FFFC0000
0001FFFC0000
0001FFFC0000
0001FFFC0000
0001FFFC0000
0001FFFC0000
0FFFFFFFFF80
1FFFFFFFFFE0
3FFFFFFFFFF0
7FFFFFFFFFF0
FFFFFFFFFFF8
FFFFFFFFFFF8
FFFFFFFFFFFC
FFFFFFFFFFFC
FFFFFFFFFFFC
FFFFFFFFFFF8
7FFFFFFFFFF8
7FFFFFFFFFF0
3FFFFFFFFFF0
1FFFFFFFFFC0
07FFFFFFFF80
ENDCHAR
STARTCHAR 004A
ENCODING 74
SWIDTH 568 0
DWIDTH 91 0
BBX 76 107 8 0
BITMAP
00000000000000001C00
0000000000000000FF00
0000000000000001FF80
0000000000000003FFC0
0000000000000007FFE0
0000000000000007FFE0
0000000000000007FFF0
0000000000000007FFF0
0000000000000007FFF0
0000000000000007FFF0
0000000000000007FFF0
0000000000000007FFF0
0000000000000007FFF0
0000000000000007FFF0
0000000000000007FFF0
0000000000000007FFF0
0000000000000007FFF0
0000000000000007FFF0
0000000000000007FFF0
0000000000000007FFF0
0000000000000007FFF0
0000000000000007FFF0
0000000000000007FFF0
0000000000000007FFF0
0000000000000007FFF0
0000000000000007FFF0
0000000000000007FFF0
0000000000000007FFF0
0000000000000007FFF0
0000000000000007FFF0
0000000000000007FFF0
0000000000000007FFF0
0000000000000007FFF0
0000000000000007FFF0
0000000000000007FFF0
0000000000000007FFF0
0000000000000007FFF0
0000000000000007FFF0
0000000000000007FFF0
0000000000000007FFF0
0000000000000007FFF0
0000000000000007FFF0
0000000000000007FFF0
0000000000000007FFF0
0000000000000007FFF0
0000000000000007FFF0
0000000000000007FFF0
0000000000000007FFF0
0000000000000007FFF0
0000000000000007FFF0
0000000000000007FFF0
0000000000000007FFF0
0000000000000007FFF0
0000000000000007FFF0
0000000000000007FFF0
0000000000000007FFF0
0000000000000007FFF0
0000000000000007FFF0
0000000000000007FFF0
0000000000000007FFF0
0000000000000007FFF0
0000000000000007FFF0
0000000000000007FFF0
0000000000000007FFF0
0000000000000007FFF0
0000000000000007FFF0
0000000000000007FFF0
0000000000000007FFF0
0000000000000007FFF0
0000000000000007FFF0
0000000000000007FFF0
0000000000000007FFF0
0000000000000007FFF0
0000000000000007FFF0
0000000000000007FFF0
0000000000000007FFF0
0000000000000007FFF0
0FE0000000000007FFF0
3FF0000000000007FFF0
7FF8000000000007FFF0
7FFC000000000007FFF0
FFFC000000000007FFF0
FFFE000000000007FFF0
FFFE000000000007FFF0
FFFE000000000007FFF0
FFFE00000000000FFFF0
FFFE00000000000FFFF0
FFFF00000000000FFFF0
FFFF00000000001FFFE0
FFFF80000000003FFFE0
FFFFC0000000007FFFE0
7FFFF800000001FFFFE0
7FFFFFFFFFFFFFFFFFC0
3FFFFFFFFFFFFFFFFFC0
3FFFFFFFFFFFFFFFFF80
1FFFFFFFFFFFFFFFFF80
1FFFFFFFFFFFFFFFFF00
0FFFFFFFFFFFFFFFFE00
07FFFFFFFFFFFFFFFC00
03FFFFFFFFFFFFFFFC00
01FFFFFFFFFFFFFFF800
00FFFFFFFFFFFFFFF000
007FFFFFFFFFFFFFC000
001FFFFFFFFFFFFF8000
000FFFFFFFFFFFFE0000
0003FFFFFFFFFFF80000
00003FFFFFFFFFC00000
ENDCHAR
STARTCHAR 004B
ENCODING 75
SWIDTH 568 0
DWIDTH 91 0
BBX 76 107 8 0
BITMAP
03800000000000001C00
1FE0000000000000FF00
3FF0000000000001FF80
7FF8000000000003FFC0
FFFC000000000007FFE0
FFFC00000000000FFFE0
FFFE00000000001FFFF0
FFFE00000000003FFFF0
FFFE00000000007FFFF0
FFFE0000000000FFFFF0
FFFE0000000001FFFFE0
FFFE0000000003FFFFE0
FFFE0000000007FFFFC0
FFFE000000000FFFFF80
FFFE000000001FFFFF00
FFFE000000003FFFFE00
FFFE000000007FFFFC00
FFFE00000000FFFFF800
FFFE00000001FFFFF000
FFFE00000003FFFFE000
FFFE00000007FFFFC000
FFFE0000000FFFFF8000
FFFE0000001FFFFF0000
FFFE0000003FFFFE0000
FFFE0000007FFFFC0000
FFFE000000FFFFF80000
FFFE000001FFFFF00000
FFFE000003FFFFE00000
FFFE000007FFFFC00000
FFFE00000FFFFF800000
FFFE00001FFFFF000000
FFFE00003FFFFE000000
FFFE00007FFFFC000000
FFFE0000FFFFF8000000
FFFE0001FFFFF0000000
FFFE0003FFFFE0000000
FFFE0007FFFFC0000000
FFFE000FFFFF80000000
FFFE001FFFFF00000000
FFFE003FFFFE00000000
FFFE007FFFFC00000000
FFFE00FFFFF800000000
FFFE01FFFFF000000000
FFFE03FFFFE000000000
FFFE07FFFFC000000000
FFFE0FFFFF8000000000
FFFE1FFFFF0000000000
FFFE3FFFFE0000000000
FFFE7FFFFC0000000000
FFFEFFFFF80000000000
FFFFFFFFF00000000000
FFFFFFFFE00000000000
FFFFFFFFC00000000000
FFFFFFFF800000000000
FFFFFFFFC00000000000
FFFFFFFFE00000000000
FFFFFFFFF00000000000
FFFFFFFFF80000000000
FFFFFFFFFC0000000000
FFFFFFFFFE0000000000
FFFFFFFFFF0000000000
FFFFFFFFFF8000000000
FFFFFFFFFFC000000000
FFFFFFFFFFE000000000
FFFFFDFFFFF000000000
FFFFF8FFFFF800000000
FFFFF07FFFFC00000000
FFFFE03FFFFE00000000
FFFFC01FFFFF00000000
FFFF800FFFFF80000000
FFFF0007FFFFC0000000
FFFE0003FFFFE0000000
FFFE0001FFFFF0000000
FFFE0000FFFFF8000000
FFFE00007FFFFC000000
FFFE00003FFFFE000000
FFFE00001FFFFF000000
FFFE00000FFFFF800000
FFFE000007FFFFC00000
FFFE000003FFFFE00000
FFFE000001FFFFF00000
FFFE000000FFFFF80000
FFFE0000007FFFFC0000
FFFE0000003FFFFE0000
FFFE0000001FFFFF0000
FFFE0000000FFFFF8000
FFFE00000007FFFFC000
FFFE00000003FFFFE000
FFFE00000001FFFFF000
FFFE00000000FFFFF800
FFFE000000007FFFFC00
FFFE000000003FFFFE00
FFFE000000001FFFFF00
FFFE000000000FFFFF80
FFFE0000000007FFFFC0
FFFE0000000003FFFFE0
FFFE0000000001FFFFE0
FFFE0000000000FFFFF0
FFFE00000000007FFFF0
FFFE00000000003FFFF0
FFFE00000000001FFFF0
FFFE00000000000FFFF0
FFFC000000000007FFE0
7FFC000000000003FFE0
3FF8000000000001FFC0
1FF0000000000000FF80
07C00000000000003E00
ENDCHAR
STARTCHAR 004C
ENCODING 76
SWIDTH 568 0
DWIDTH 91 0
BBX 76 107 8 0
BITMAP
03800000000000000000
1FE00000000000000000
3FF00000000000000000
7FF80000000000000000
FFFC0000000000000000
FFFC0000000000000000
FFFE0000000000000000
FFFE0000000000000000
FFFE0000000000000000
FFFE0000000000000000
FFFE0000000000000000
FFFE0000000000000000
FFFE0000000000000000
FFFE0000000000000000
FFFE0000000000000000
FFFE0000000000000000
FFFE0000000000000000
FFFE0000000000000000
FFFE0000000000000000
FFFE0000000000000000
FFFE0000000000000000
FFFE0000000000000000
FFFE0000000000000000
FFFE0000000000000000
FFFE0000000000000000
FFFE0000000000000000
FFFE0000000000000000
FFFE0000000000000000
FFFE0000000000000000
FFFE0000000000000000
FFFE0000000000000000
FFFE0000000000000000
FFFE0000000000000000
FFFE0000000000000000
FFFE0000000000000000
FFFE0000000000000000
FFFE0000000000000000
FFFE0000000000000000
FFFE0000000000000000
FFFE0000000000000000
FFFE0000000000000000
FFFE0000000000000000
FFFE0000000000000000
FFFE0000000000000000
FFFE0000000000000000
FFFE0000000000000000
FFFE0000000000000000
FFFE0000000000000000
FFFE0000000000000000
FFFE0000000000000000
FFFE0000000000000000
FFFE0000000000000000
FFFE0000000000000000
FFFE0000000000000000
FFFE0000000000000000
FFFE0000000000000000
FFFE0000000000000000
FFFE0000000000000000
FFFE0000000000000000
FFFE0000000000000000
FFFE0000000000000000
FFFE0000000000000000
FFFE0000000000000000
FFFE0000000000000000
FFFE0000000000000000
FFFE0000000000000000
FFFE0000000000000000
FFFE0000000000000000
FFFE0000000000000000
FFFE0000000000000000
FFFE0000000000000000
FFFE0000000000000000
FFFE0000000000000000
FFFE0000000000000000
FFFE0000000000000000
FFFE0000000000000000
FFFE0000000000000000
FFFE0000000000000000
FFFE0000000000000000
FFFE0000000000000000
FFFE0000000000000000
FFFE0000000000000000
FFFE0000000000000000
FFFE0000000000000000
FFFE0000000000000000
FFFE0000000000000000
FFFE0000000000000000
FFFE0000000000000000
FFFE0000000000000000
FFFE0000000000000000
FFFE0000000000000000
FFFE0000000000000000
FFFFFFFFFFFFFFFFFE00
FFFFFFFFFFFFFFFFFF80
FFFFFFFFFFFFFFFFFFC0
FFFFFFFFFFFFFFFFFFE0
FFFFFFFFFFFFFFFFFFE0
FFFFFFFFFFFFFFFFFFF0
FFFFFFFFFFFFFFFFFFF0
FFFFFFFFFFFFFFFFFFF0
FFFFFFFFFFFFFFFFFFF0
FFFFFFFFFFFFFFFFFFF0
FFFFFFFFFFFFFFFFFFE0
7FFFFFFFFFFFFFFFFFE0
3FFFFFFFFFFFFFFFFFC0
1FFFFFFFFFFFFFFFFF80
07FFFFFFFFFFFFFFFE00
ENDCHAR
STARTCHAR 004D
ENCODING 77
SWIDTH 568 0
DWIDTH 91 0
BBX 76 107 8 0
BITMAP
03800000000000001C00
1FE0000000000000FF00
3FF0000000000001FF80
7FF8000000000003FFC0
FFFC000000000007FFE0
FFFE00000000000FFFE0
FFFF00000000001FFFF0
FFFF80000000003FFFF0
FFFFC0000000007FFFF0
FFFFE000000000FFFFF0
FFFFF000000001FFFFF0
FFFFF800000003FFFFF0
FFFFFC00000007FFFFF0
FFFFFE0000000FFFFFF0
FFFFFF0000001FFFFFF0
FFFFFF8000003FFFFFF0
FFFFFFC000007FFFFFF0
FFFFFFE00000FFFFFFF0
FFFFFFF00001FFFFFFF0
FFFFFFF80003FFFFFFF0
FFFFFFFC0007FFFFFFF0
FFFFFFFE000FFFFFFFF0
FFFFFFFF001FFFFFFFF0
FFFFFFFF803FFFFFFFF0
FFFFFFFFC07FFFFFFFF0
FFFFFFFFE0FFFFFFFFF0
FFFFFFFFF1FFFFF7FFF0
FFFEFFFFFBFFFFE7FFF0
FFFE7FFFFFFFFFC7FFF0
FFFE3FFFFFFFFF87FFF0
FFFE1FFFFFFFFF07FFF0
FFFE0FFFFFFFFE07FFF0
FFFE07FFFFFFFC07FFF0
FFFE03FFFFFFF807FFF0
FFFE01FFFFFFF007FFF0
FFFE00FFFFFFE007FFF0
FFFE007FFFFFC007FFF0
FFFE003FFFFF8007FFF0
FFFE001FFFFF0007FFF0
FFFE000FFFFE0007FFF0
FFFE0007FFFC0007FFF0
FFFE0003FFF80007FFF0
FFFE0001FFF00007FFF0
FFFE0000FFE00007FFF0
FFFE00007FC00007FFF0
FFFE00001F800007FFF0
FFFE000000000007FFF0
FFFE000000000007FFF0
FFFE000000000007FFF0
FFFE000000000007FFF0
FFFE000000000007FFF0
FFFE000000000007FFF0
FFFE000000000007FFF0
FFFE000000000007FFF0
FFFE000000000007FFF0
FFFE000000000007FFF0
FFFE000000000007FFF0
FFFE000000000007FFF0
FFFE000000000007FFF0
FFFE000000000007FFF0
FFFE000000000007FFF0
FFFE000000000007FFF0
FFFE000000000007FFF0
FFFE000000000007FFF0
FFFE000000000007FFF0
FFFE000000000007FFF0
FFFE000000000007FFF0
FFFE000000000007FFF0
FFFE000000000007FFF0
FFFE000000000007FFF0
FFFE000000000007FFF0
FFFE000000000007FFF0
FFFE000000000007FFF0
FFFE000000000007FFF0
FFFE000000000007FFF0
FFFE000000000007FFF0
FFFE000000000007FFF0
FFFE000000000007FFF0
FFFE000000000007FFF0
FFFE000000000007FFF0
FFFE000000000007FFF0
FFFE000000000007FFF0
FFFE000000000007FFF0
FFFE000000000007FFF0
FFFE000000000007FFF0
FFFE000000000007FFF0
FFFE000000000007FFF0
FFFE000000000007FFF0
FFFE000000000007FFF0
FFFE000000000007FFF0
FFFE000000000007FFF0
FFFE000000000007FFF0
FFFE000000000007FFF0
FFFE000000000007FFF0
FFFE000000000007FFF0
FFFE000000000007FFF0
FFFE000000000007FFF0
FFFE000000000007FFF0
FFFE000000000007FFF0
FFFE000000000007FFF0
FFFE000000000007FFF0
FFFE000000000007FFF0
FFFC000000000007FFE0
7FFC000000000003FFE0
3FF8000000000001FFC0
1FF0000000000000FF80
07C00000000000003E00
ENDCHAR
STARTCHAR 004E
ENCODING 78
SWIDTH 568 0
DWIDTH 91 0
BBX 76 107 8 0
BITMAP
03800000000000001C00
1FE0000000000000FF00
3FF0000000000001FF80
7FF8000000000003FFC0
FFFC000000000007FFE0
FFFE000000000007FFE0
FFFF000000000007FFF0
FFFF800000000007FFF0
FFFFC00000000007FFF0
FFFFE00000000007FFF0
FFFFF00000000007FFF0
FFFFF80000000007FFF0
FFFFFC0000000007FFF0
FFFFFE0000000007FFF0
FFFFFF0000000007FFF0
FFFFFF8000000007FFF0
FFFFFFC000000007FFF0
FFFFFFE000000007FFF0
FFFFFFF000000007FFF0
FFFFFFF800000007FFF0
FFFFFFFC00000007FFF0
FFFFFFFE00000007FFF0
FFFFFFFF00000007FFF0
FFFFFFFF80000007FFF0
FFFFFFFFC0000007FFF0
FFFFFFFFE0000007FFF0
FFFFFFFFF0000007FFF0
FFFEFFFFF8000007FFF0
FFFE7FFFFC000007FFF0
FFFE3FFFFE000007FFF0
FFFE1FFFFF000007FFF0
FFFE0FFFFF800007FFF0
FFFE07FFFFC00007FFF0
FFFE03FFFFE00007FFF0
FFFE01FFFFF00007FFF0
FFFE00FFFFF80007FFF0
FFFE007FFFFC0007FFF0
FFFE003FFFFE0007FFF0
FFFE001FFFFF0007FFF0
FFFE000FFFFF8007FFF0
FFFE0007FFFFC007FFF0
FFFE0003FFFFE007FFF0
FFFE0001FFFFF007FFF0
FFFE0000FFFFF807FFF0
FFFE00007FFFFC07FFF0
FFFE00003FFFFE07FFF0
FFFE00001FFFFF07FFF0
FFFE00000FFFFF87FFF0
FFFE000007FFFFC7FFF0
FFFE000003FFFFE7FFF0
FFFE000001FFFFF7FFF0
FFFE000000FFFFFFFFF0
FFFE0000007FFFFFFFF0
FFFE0000003FFFFFFFF0
FFFE0000001FFFFFFFF0
FFFE0000000FFFFFFFF0
FFFE00000007FFFFFFF0
FFFE00000003FFFFFFF0
FFFE00000001FFFFFFF0
FFFE00000000FFFFFFF0
FFFE000000007FFFFFF0
FFFE000000003FFFFFF0
FFFE000000001FFFFFF0
FFFE000000000FFFFFF0
FFFE0000000007FFFFF0
FFFE0000000003FFFFF0
FFFE0000000001FFFFF0
FFFE0000000000FFFFF0
FFFE00000000007FFFF0
FFFE00000000003FFFF0
FFFE00000000001FFFF0
FFFE00000000000FFFF0
FFFE000000000007FFF0
FFFE000000000007FFF0
FFFE000000000007FFF0
FFFE000000000007FFF0
FFFE000000000007FFF0
FFFE000000000007FFF0
FFFE000000000007FFF0
FFFE000000000007FFF0
FFFE000000000007FFF0
FFFE000000000007FFF0
FFFE000000000007FFF0
FFFE000000000007FFF0
FFFE000000000007FFF0
FFFE000000000007FFF0
FFFE000000000007FFF0
FFFE000000000007FFF0
FFFE000000000007FFF0
FFFE000000000007FFF0
FFFE000000000007FFF0
FFFE000000000007FFF0
FFFE000000000007FFF0
FFFE000000000007FFF0
FFFE000000000007FFF0
FFFE000000000007FFF0
FFFE000000000007FFF0
FFFE000000000007FFF0
FFFE000000000007FFF0
FFFE000000000007FFF0
FFFE000000000007FFF0
FFFE000000000007FFF0
FFFC000000000007FFE0
7FFC000000000003FFE0
3FF8000000000001FFC0
1FF0000000000000FF80
07C00000000000003E00
ENDCHAR
STARTCHAR 004F
ENCODING 79
SWIDTH 568 0
DWIDTH 91 0
BBX 76 107 8 0
BITMAP
000007FFFFFFFE000000
0001FFFFFFFFFFF00000
0007FFFFFFFFFFFC0000
001FFFFFFFFFFFFF0000
003FFFFFFFFFFFFFC000
00FFFFFFFFFFFFFFE000
01FFFFFFFFFFFFFFF000
03FFFFFFFFFFFFFFF800
07FFFFFFFFFFFFFFFC00
0FFFFFFFFFFFFFFFFE00
0FFFFFFFFFFFFFFFFF00
1FFFFFFFFFFFFFFFFF00
3FFFFFFFFFFFFFFFFF80
3FFFFFFFFFFFFFFFFFC0
7FFFFFFFFFFFFFFFFFC0
7FFFFFFFFFFFFFFFFFC0
7FFFE000000000FFFFE0
FFFFC0000000003FFFE0
FFFF80000000001FFFE0
FFFF00000000000FFFE0
FFFE00000000000FFFF0
FFFE00000000000FFFF0
FFFE000000000007FFF0
FFFE000000000007FFF0
FFFE000000000007FFF0
FFFE000000000007FFF0
FFFE000000000007FFF0
FFFE000000000007FFF0
FFFE000000000007FFF0
FFFE000000000007FFF0
FFFE000000000007FFF0
FFFE000000000007FFF0
FFFE000000000007FFF0
FFFE000000000007FFF0
FFFE000000000007FFF0
FFFE000000000007FFF0
FFFE000000000007FFF0
FFFE000000000007FFF0
FFFE000000000007FFF0
FFFE000000000007FFF0
FFFE000000000007FFF0
FFFE000000000007FFF0
FFFE000000000007FFF0
FFFE000000000007FFF0
FFFE000000000007FFF0
FFFE000000000007FFF0
FFFE000000000007FFF0
FFFE000000000007FFF0
FFFE000000000007FFF0
FFFE000000000007FFF0
FFFE000000000007FFF0
FFFE000000000007FFF0
FFFE000000000007FFF0
FFFE000000000007FFF0
FFFE000000000007FFF0
FFFE000000000007FFF0
FFFE000000000007FFF0
FFFE000000000007FFF0
FFFE000000000007FFF0
FFFE000000000007FFF0
FFFE000000000007FFF0
FFFE000000000007FFF0
FFFE000000000007FFF0
FFFE000000000007FFF0
FFFE000000000007FFF0
FFFE000000000007FFF0
FFFE000000000007FFF0
FFFE000000000007FFF0
FFFE000000000007FFF0
FFFE000000000007FFF0
FFFE000000000007FFF0
FFFE000000000007FFF0
FFFE000000000007FFF0
FFFE000000000007FFF0
FFFE000000000007FFF0
FFFE000000000007FFF0
FFFE000000000007FFF0
FFFE000000000007FFF0
FFFE000000000007FFF0
FFFE000000000007FFF0
FFFE000000000007FFF0
FFFE000000000007FFF0
FFFE000000000007FFF0
FFFE000000000007FFF0
FFFE000000000007FFF0
FFFE00000000000FFFF0
FFFE00000000000FFFF0
FFFF00000000000FFFF0
FFFF00000000001FFFE0
FFFF80000000003FFFE0
FFFFC0000000007FFFE0
7FFFF800000001FFFFE0
7FFFFFFFFFFFFFFFFFC0
3FFFFFFFFFFFFFFFFFC0
3FFFFFFFFFFFFFFFFF80
1FFFFFFFFFFFFFFFFF80
1FFFFFFFFFFFFFFFFF00
0FFFFFFFFFFFFFFFFE00
07FFFFFFFFFFFFFFFC00
03FFFFFFFFFFFFFFFC00
01FFFFFFFFFFFFFFF800
00FFFFFFFFFFFFFFF000
007FFFFFFFFFFFFFC000
001FFFFFFFFFFFFF8000
000FFFFFFFFFFFFE0000
0003FFFFFFFFFFF80000
00003FFFFFFFFFC00000
ENDCHAR
STARTCHAR 0050
ENCODING 80
SWIDTH 568 0
DWIDTH 91 0
BBX 76 107 8 0
BITMAP
03FFFFFFFFFFFE000000
1FFFFFFFFFFFFFF00000
3FFFFFFFFFFFFFFC0000
7FFFFFFFFFFFFFFF0000
FFFFFFFFFFFFFFFFC000
FFFFFFFFFFFFFFFFE000
FFFFFFFFFFFFFFFFF000
FFFFFFFFFFFFFFFFF800
FFFFFFFFFFFFFFFFFC00
FFFFFFFFFFFFFFFFFE00
FFFFFFFFFFFFFFFFFF00
FFFFFFFFFFFFFFFFFF00
FFFFFFFFFFFFFFFFFF80
FFFFFFFFFFFFFFFFFFC0
FFFFFFFFFFFFFFFFFFC0
FFFFFFFFFFFFFFFFFFC0
FFFE0000000000FFFFE0
FFFE00000000003FFFE0
FFFE00000000001FFFE0
FFFE00000000000FFFE0
FFFE00000000000FFFF0
FFFE00000000000FFFF0
FFFE000000000007FFF0
FFFE000000000007FFF0
FFFE000000000007FFF0
FFFE000000000007FFF0
FFFE000000000007FFF0
FFFE000000000007FFF0
FFFE000000000007FFF0
FFFE000000000007FFF0
FFFE000000000007FFF0
FFFE000000000007FFF0
FFFE000000000007FFF0
FFFE000000000007FFF0
FFFE000000000007FFF0
FFFE000000000007FFF0
FFFE000000000007FFF0
FFFE000000000007FFF0
FFFE000000000007FFF0
FFFE00000000000FFFF0
FFFE00000000000FFFF0
FFFE00000000000FFFF0
FFFE00000000001FFFE0
FFFE00000000001FFFE0
FFFE00000000007FFFE0
FFFE0000000000FFFFE0
FFFFFFFFFFFFFFFFFFC0
FFFFFFFFFFFFFFFFFFC0
FFFFFFFFFFFFFFFFFF80
FFFFFFFFFFFFFFFFFF80
FFFFFFFFFFFFFFFFFF00
FFFFFFFFFFFFFFFFFE00
FFFFFFFFFFFFFFFFFE00
FFFFFFFFFFFFFFFFFC00
FFFFFFFFFFFFFFFFF800
FFFFFFFFFFFFFFFFF000
FFFFFFFFFFFFFFFFE000
FFFFFFFFFFFFFFFF8000
FFFFFFFFFFFFFFFF0000
FFFFFFFFFFFFFFFC0000
FFFFFFFFFFFFFFE00000
FFFE0000000000000000
FFFE0000000000000000
FFFE0000000000000000
FFFE0000000000000000
FFFE0000000000000000
FFFE0000000000000000
FFFE0000000000000000
FFFE0000000000000000
FFFE0000000000000000
FFFE0000000000000000
FFFE0000000000000000
FFFE0000000000000000
FFFE0000000000000000
FFFE0000000000000000
FFFE0000000000000000
FFFE0000000000000000
FFFE0000000000000000
FFFE0000000000000000
FFFE0000000000000000
FFFE0000000000000000
FFFE0000000000000000
FFFE0000000000000000
FFFE0000000000000000
FFFE0000000000000000
FFFE0000000000000000
FFFE0000000000000000
FFFE0000000000000000
FFFE0000000000000000
FFFE0000000000000000
FFFE0000000000000000
FFFE0000000000000000
FFFE0000000000000000
FFFE0000000000000000
FFFE0000000000000000
FFFE0000000000000000
FFFE0000000000000000
FFFE0000000000000000
FFFE0000000000000000
FFFE0000000000000000
FFFE0000000000000000
FFFE0000000000000000
FFFC0000000000000000
7FFC0000000000000000
3FF80000000000000000
1FF00000000000000000
07C00000000000000000
ENDCHAR
STARTCHAR 0051
ENCODING 81
SWIDTH 568 0
DWIDTH 91 0
BBX 76 107 8 0
BITMAP
000007FFFFFFFE000000
0001FFFFFFFFFFF00000
0007FFFFFFFFFFFC0000
001FFFFFFFFFFFFF0000
003FFFFFFFFFFFFFC000
00FFFFFFFFFFFFFFE000
01FFFFFFFFFFFFFFF000
03FFFFFFFFFFFFFFF800
07FFFFFFFFFFFFFFFC00
0FFFFFFFFFFFFFFFFE00
0FFFFFFFFFFFFFFFFF00
1FFFFFFFFFFFFFFFFF00
3FFFFFFFFFFFFFFFFF80
3FFFFFFFFFFFFFFFFFC0
7FFFFFFFFFFFFFFFFFC0
7FFFFFFFFFFFFFFFFFC0
7FFFE000000000FFFFE0
FFFFC0000000003FFFE0
FFFF80000000001FFFE0
FFFF00000000000FFFE0
FFFE00000000000FFFF0
FFFE00000000000FFFF0
FFFE000000000007FFF0
FFFE000000000007FFF0
FFFE000000000007FFF0
FFFE000000000007FFF0
FFFE000000000007FFF0
FFFE000000000007FFF0
FFFE000000000007FFF0
FFFE000000000007FFF0
FFFE000000000007FFF0
FFFE000000000007FFF0
FFFE000000000007FFF0
FFFE000000000007FFF0
FFFE000000000007FFF0
FFFE000000000007FFF0
FFFE000000000007FFF0
FFFE000000000007FFF0
FFFE000000000007FFF0
FFFE000000000007FFF0
FFFE000000000007FFF0
FFFE000000000007FFF0
FFFE000000000007FFF0
FFFE000000000007FFF0
FFFE000000000007FFF0
FFFE000000000007FFF0
FFFE000000000007FFF0
FFFE000000000007FFF0
FFFE000000000007FFF0
FFFE000000000007FFF0
FFFE000000000007FFF0
FFFE000000000007FFF0
FFFE000000000007FFF0
FFFE000000000007FFF0
FFFE000000000007FFF0
FFFE000000000007FFF0
FFFE000000000007FFF0
FFFE000000000007FFF0
FFFE000000000007FFF0
FFFE000000000007FFF0
FFFE000000000007FFF0
FFFE00000E000007FFF0
FFFE00003FC0000FFFF0
FFFE0000FFE0001FFFF0
FFFE0000FFF0003FFFF0
FFFE0001FFF8007FFFF0
FFFE0003FFFC00FFFFF0
FFFE0003FFFE01FFFFF0
FFFE0003FFFF03FFFFF0
FFFE0003FFFF87FFFFF0
FFFE0003FFFFCFFFFFF0
FFFE0001FFFFFFFFFFE0
FFFE0001FFFFFFFFFFE0
FFFE0000FFFFFFFFFFC0
FFFE00007FFFFFFFFF80
FFFE00003FFFFFFFFF00
FFFE00001FFFFFFFFE00
FFFE00000FFFFFFFFC00
FFFE000007FFFFFFF800
FFFE000003FFFFFFF000
FFFE000001FFFFFFE000
FFFE000000FFFFFFC000
FFFE0000007FFFFF8000
FFFE0000003FFFFF0000
FFFE0000003FFFFF0000
FFFE0000007FFFFF8000
FFFE000000FFFFFFC000
FFFF000001FFFFFFE000
FFFF000003FFFFFFF000
FFFF800007FFFFFFF800
FFFFC0000FFFFFFFFC00
7FFFF8001FFFFFFFFE00
7FFFFFFFFFFFFFFFFF00
3FFFFFFFFFFFFFFFFF80
3FFFFFFFFFFFFFFFFFC0
1FFFFFFFFFFFF7FFFFE0
1FFFFFFFFFFFE3FFFFE0
0FFFFFFFFFFFC1FFFFF0
07FFFFFFFFFF80FFFFF0
03FFFFFFFFFF007FFFF0
01FFFFFFFFFE001FFFF0
00FFFFFFFFFC000FFFF0
007FFFFFFFF80007FFE0
001FFFFFFFF00003FFE0
000FFFFFFFE00001FFC0
0003FFFFFFC00000FF80
00003FFFFF0000003E00
ENDCHAR
STARTCHAR 0052
ENCODING 82
SWIDTH 568 0
DWIDTH 91 0
BBX 76 107 8 0
BITMAP
03FFFFFFFFFFFE000000
1FFFFFFFFFFFFFF00000
3FFFFFFFFFFFFFFC0000
7FFFFFFFFFFFFFFF0000
FFFFFFFFFFFFFFFFC000
FFFFFFFFFFFFFFFFE000
FFFFFFFFFFFFFFFFF000
FFFFFFFFFFFFFFFFF800
FFFFFFFFFFFFFFFFFC00
FFFFFFFFFFFFFFFFFE00
FFFFFFFFFFFFFFFFFF00
FFFFFFFFFFFFFFFFFF00
FFFFFFFFFFFFFFFFFF80
FFFFFFFFFFFFFFFFFFC0
FFFFFFFFFFFFFFFFFFC0
FFFFFFFFFFFFFFFFFFC0
FFFE0000000000FFFFE0
FFFE00000000003FFFE0
FFFE00000000001FFFE0
FFFE00000000000FFFE0
FFFE00000000000FFFF0
FFFE00000000000FFFF0
FFFE000000000007FFF0
FFFE000000000007FFF0
FFFE000000000007FFF0
FFFE000000000007FFF0
FFFE000000000007FFF0
FFFE000000000007FFF0
FFFE000000000007FFF0
FFFE000000000007FFF0
FFFE000000000007FFF0
FFFE000000000007FFF0
FFFE000000000007FFF0
FFFE000000000007FFF0
FFFE000000000007FFF0
FFFE000000000007FFF0
FFFE000000000007FFF0
FFFE000000000007FFF0
FFFE000000000007FFF0
FFFE00000000000FFFF0
FFFE00000000000FFFF0
FFFE00000000000FFFF0
FFFE00000000001FFFE0
FFFE00000000001FFFE0
FFFE00000000007FFFE0
FFFE0000000000FFFFE0
FFFFFFFFFFFFFFFFFFC0
FFFFFFFFFFFFFFFFFFC0
FFFFFFFFFFFFFFFFFF80
FFFFFFFFFFFFFFFFFF80
FFFFFFFFFFFFFFFFFF00
FFFFFFFFFFFFFFFFFE00
FFFFFFFFFFFFFFFFFE00
FFFFFFFFFFFFFFFFFC00
FFFFFFFFFFFFFFFFF800
FFFFFFFFFFFFFFFFFC00
FFFFFFFFFFFFFFFFFE00
FFFFFFFFFFFFFFFFFF00
FFFFFFFFFFFFFFFFFF80
FFFFFFFFFFFFFFFFFF80
FFFFFFFFFFFFFFFFFFC0
FFFE0000000001FFFFC0
FFFE00000000007FFFE0
FFFE00000000003FFFE0
FFFE00000000001FFFE0
FFFE00000000000FFFF0
FFFE00000000000FFFF0
FFFE00000000000FFFF0
FFFE000000000007FFF0
FFFE000000000007FFF0
FFFE000000000007FFF0
FFFE000000000007FFF0
FFFE000000000007FFF0
FFFE000000000007FFF0
FFFE000000000007FFF0
FFFE000000000007FFF0
FFFE000000000007FFF0
FFFE000000000007FFF0
FFFE000000000007FFF0
FFFE000000000007FFF0
FFFE000000000007FFF0
FFFE000000000007FFF0
FFFE000000000007FFF0
FFFE000000000007FFF0
FFFE000000000007FFF0
FFFE000000000007FFF0
FFFE000000000007FFF0
FFFE000000000007FFF0
FFFE000000000007FFF0
FFFE000000000007FFF0
FFFE000000000007FFF0
FFFE000000000007FFF0
FFFE000000000007FFF0
FFFE000000000007FFF0
FFFE000000000007FFF0
FFFE000000000007FFF0
FFFE000000000007FFF0
FFFE000000000007FFF0
FFFE000000000007FFF0
FFFE000000000007FFF0
FFFE000000000007FFF0
FFFE000000000007FFF0
FFFC000000000007FFE0
7FFC000000000003FFE0
3FF8000000000001FFC0
1FF0000000000000FF80
07C00000000000003E00
ENDCHAR
STARTCHAR 0053
ENCODING 83
SWIDTH 568 0
DWIDTH 91 0
BBX 76 107 8 0
BITMAP
00000FFFFFFFFE000000
0003FFFFFFFFFFF00000
000FFFFFFFFFFFFC0000
003FFFFFFFFFFFFF0000
007FFFFFFFFFFFFFC000
01FFFFFFFFFFFFFFE000
03FFFFFFFFFFFFFFF000
07FFFFFFFFFFFFFFF800
07FFFFFFFFFFFFFFFC00
0FFFFFFFFFFFFFFFFE00
1FFFFFFFFFFFFFFFFF00
1FFFFFFFFFFFFFFFFF00
3FFFFFFFFFFFFFFFFF80
3FFFFFFFFFFFFFFFFFC0
7FFFFFFFFFFFFFFFFFC0
7FFFFFFFFFFFFFFFFFC0
FFFFE000000000FFFFE0
FFFFC0000000003FFFE0
FFFF80000000001FFFE0
FFFF00000000000FFFE0
FFFE00000000000FFFF0
FFFE00000000000FFFF0
FFFE000000000007FFF0
FFFE000000000007FFF0
FFFE000000000007FFF0
FFFE000000000007FFE0
FFFE000000000007FFE0
FFFE000000000003FFC0
FFFE000000000001FFC0
FFFE000000000000FF00
FFFE0000000000003C00
FFFE0000000000000000
FFFE0000000000000000
FFFE0000000000000000
FFFE0000000000000000
FFFE0000000000000000
FFFE0000000000000000
FFFE0000000000000000
FFFE0000000000000000
FFFE0000000000000000
FFFE0000000000000000
FFFF0000000000000000
FFFF0000000000000000
FFFF8000000000000000
FFFFC000000000000000
FFFFF000000000000000
7FFFFFFFFFFFFF800000
7FFFFFFFFFFFFFF80000
7FFFFFFFFFFFFFFE0000
3FFFFFFFFFFFFFFF8000
3FFFFFFFFFFFFFFFC000
1FFFFFFFFFFFFFFFE000
1FFFFFFFFFFFFFFFF800
0FFFFFFFFFFFFFFFFC00
07FFFFFFFFFFFFFFFC00
03FFFFFFFFFFFFFFFE00
01FFFFFFFFFFFFFFFF00
00FFFFFFFFFFFFFFFF80
003FFFFFFFFFFFFFFF80
000FFFFFFFFFFFFFFFC0
0001FFFFFFFFFFFFFFC0
00000000000001FFFFE0
000000000000007FFFE0
000000000000003FFFE0
000000000000001FFFE0
000000000000000FFFF0
000000000000000FFFF0
000000000000000FFFF0
0000000000000007FFF0
0000000000000007FFF0
0000000000000007FFF0
0000000000000007FFF0
0000000000000007FFF0
0000000000000007FFF0
0000000000000007FFF0
0000000000000007FFF0
0000000000000007FFF0
0FE0000000000007FFF0
3FF0000000000007FFF0
7FF8000000000007FFF0
7FFC000000000007FFF0
FFFC000000000007FFF0
FFFE000000000007FFF0
FFFE000000000007FFF0
FFFE000000000007FFF0
FFFE00000000000FFFF0
FFFE00000000000FFFF0
FFFF00000000000FFFF0
FFFF00000000001FFFE0
FFFF80000000003FFFE0
FFFFC0000000007FFFE0
7FFFF800000001FFFFE0
7FFFFFFFFFFFFFFFFFE0
3FFFFFFFFFFFFFFFFFC0
3FFFFFFFFFFFFFFFFFC0
1FFFFFFFFFFFFFFFFF80
1FFFFFFFFFFFFFFFFF80
0FFFFFFFFFFFFFFFFF00
07FFFFFFFFFFFFFFFE00
03FFFFFFFFFFFFFFFC00
01FFFFFFFFFFFFFFF800
00FFFFFFFFFFFFFFF000
007FFFFFFFFFFFFFE000
001FFFFFFFFFFFFFC000
000FFFFFFFFFFFFF0000
0003FFFFFFFFFFF80000
00003FFFFFFFFFC00000
ENDCHAR
STARTCHAR 0054
ENCODING 84
SWIDTH 568 0
DWIDTH 91 0
BBX 76 107 8 0
BITMAP
03FFFFFFFFFFFFFFFC00
1FFFFFFFFFFFFFFFFF00
3FFFFFFFFFFFFFFFFF80
7FFFFFFFFFFFFFFFFFC0
FFFFFFFFFFFFFFFFFFE0
FFFFFFFFFFFFFFFFFFE0
FFFFFFFFFFFFFFFFFFF0
FFFFFFFFFFFFFFFFFFF0
FFFFFFFFFFFFFFFFFFF0
FFFFFFFFFFFFFFFFFFF0
FFFFFFFFFFFFFFFFFFE0
FFFFFFFFFFFFFFFFFFE0
7FFFFFFFFFFFFFFFFFC0
3FFFFFFFFFFFFFFFFF80
1FFFFFFFFFFFFFFFFF00
03FFFFFFFFFFFFFFF800
00000003FFF800000000
00000003FFF800000000
00000003FFF800000000
00000003FFF800000000
00000003FFF800000000
00000003FFF800000000
00000003FFF800000000
00000003FFF800000000
00000003FFF800000000
00000003FFF800000000
00000003FFF800000000
00000003FFF800000000
00000003FFF800000000
00000003FFF800000000
00000003FFF800000000
00000003FFF800000000
00000003FFF800000000
00000003FFF800000000
00000003FFF800000000
00000003FFF800000000
00000003FFF800000000
00000003FFF800000000
00000003FFF800000000
00000003FFF800000000
00000003FFF800000000
00000003FFF800000000
00000003FFF800000000
00000003FFF800000000
00000003FFF800000000
00000003FFF800000000
00000003FFF800000000
00000003FFF800000000
00000003FFF800000000
00000003FFF800000000
00000003FFF800000000
00000003FFF800000000
00000003FFF800000000
00000003FFF800000000
00000003FFF800000000
00000003FFF800000000
00000003FFF800000000
00000003FFF800000000
00000003FFF800000000
00000003FFF800000000
00000003FFF800000000
00000003FFF800000000
00000003FFF800000000
00000003FFF800000000
00000003FFF800000000
00000003FFF800000000
00000003FFF800000000
00000003FFF800000000
00000003FFF800000000
00000003FFF800000000
00000003FFF800000000
00000003FFF800000000
00000003FFF800000000
00000003FFF800000000
00000003FFF800000000
00000003FFF800000000
00000003FFF800000000
00000003FFF800000000
00000003FFF800000000
00000003FFF800000000
00000003FFF800000000
00000003FFF800000000
00000003FFF800000000
00000003FFF800000000
00000003FFF800000000
00000003FFF800000000
00000003FFF800000000
00000003FFF800000000
00000003FFF800000000
00000003FFF800000000
00000003FFF800000000
00000003FFF800000000
00000003FFF800000000
00000003FFF800000000
00000003FFF800000000
00000003FFF800000000
00000003FFF800000000
00000003FFF800000000
00000003FFF800000000
00000003FFF800000000
00000003FFF800000000
00000003FFF800000000
00000001FFF800000000
00000001FFF000000000
00000000FFE000000000
000000007FC000000000
000000001F0000000000
ENDCHAR
STARTCHAR 0055
ENCODING 85
SWIDTH 568 0
DWIDTH 91 0
BBX 76 107 8 0
BITMAP
03800000000000001C00
1FE0000000000000FF00
3FF0000000000001FF80
7FF8000000000003FFC0
FFFC000000000007FFE0
FFFC000000000007FFE0
FFFE000000000007FFF0
FFFE000000000007FFF0
FFFE000000000007FFF0
FFFE000000000007FFF0
FFFE000000000007FFF0
FFFE000000000007FFF0
FFFE000000000007FFF0
FFFE000000000007FFF0
FFFE000000000007FFF0
FFFE000000000007FFF0
FFFE000000000007FFF0
FFFE000000000007FFF0
FFFE000000000007FFF0
FFFE000000000007FFF0
FFFE000000000007FFF0
FFFE000000000007FFF0
FFFE000000000007FFF0
FFFE000000000007FFF0
FFFE000000000007FFF0
FFFE000000000007FFF0
FFFE000000000007FFF0
FFFE000000000007FFF0
FFFE000000000007FFF0
FFFE000000000007FFF0
FFFE000000000007FFF0
FFFE000000000007FFF0
FFFE000000000007FFF0
FFFE000000000007FFF0
FFFE000000000007FFF0
FFFE000000000007FFF0
FFFE000000000007FFF0
FFFE000000000007FFF0
FFFE000000000007FFF0
FFFE000000000007FFF0
FFFE000000000007FFF0
FFFE000000000007FFF0
FFFE000000000007FFF0
FFFE000000000007FFF0
FFFE000000000007FFF0
FFFE000000000007FFF0
FFFE000000000007FFF0
FFFE000000000007FFF0
FFFE000000000007FFF0
FFFE000000000007FFF0
FFFE000000000007FFF0
FFFE000000000007FFF0
FFFE000000000007FFF0
FFFE000000000007FFF0
FFFE000000000007FFF0
FFFE000000000007FFF0
FFFE000000000007FFF0
FFFE000000000007FFF0
FFFE000000000007FFF0
FFFE000000000007FFF0
FFFE000000000007FFF0
FFFE000000000007FFF0
FFFE000000000007FFF0
FFFE000000000007FFF0
FFFE000000000007FFF0
FFFE000000000007FFF0
FFFE000000000007FFF0
FFFE000000000007FFF0
FFFE000000000007FFF0
FFFE000000000007FFF0
FFFE000000000007FFF0
FFFE000000000007FFF0
FFFE000000000007FFF0
FFFE000000000007FFF0
FFFE000000000007FFF0
FFFE000000000007FFF0
FFFE000000000007FFF0
FFFE000000000007FFF0
FFFE000000000007FFF0
FFFE000000000007FFF0
FFFE000000000007FFF0
FFFE000000000007FFF0
FFFE000000000007FFF0
FFFE000000000007FFF0
FFFE000000000007FFF0
FFFE00000000000FFFF0
FFFE00000000000FFFF0
FFFF00000000000FFFF0
FFFF00000000001FFFE0
FFFF80000000003FFFE0
FFFFC0000000007FFFE0
7FFFF800000001FFFFE0
7FFFFFFFFFFFFFFFFFC0
3FFFFFFFFFFFFFFFFFC0
3FFFFFFFFFFFFFFFFF80
1FFFFFFFFFFFFFFFFF80
1FFFFFFFFFFFFFFFFF00
0FFFFFFFFFFFFFFFFE00
07FFFFFFFFFFFFFFFC00
03FFFFFFFFFFFFFFFC00
01FFFFFFFFFFFFFFF800
00FFFFFFFFFFFFFFF000
007FFFFFFFFFFFFFC000
001FFFFFFFFFFFFF8000
000FFFFFFFFFFFFE0000
0003FFFFFFFFFFF80000
00003FFFFFFFFFC00000
ENDCHAR
STARTCHAR 0056
ENCODING 86
SWIDTH 568 0
DWIDTH 91 0
BBX 76 107 8 0
BITMAP
03800000000000001C00
1FE0000000000000FF00
3FF0000000000001FF80
7FF8000000000003FFC0
FFFC000000000007FFE0
FFFC000000000007FFE0
FFFE000000000007FFF0
FFFE000000000007FFF0
FFFE000000000007FFF0
FFFE000000000007FFF0
FFFE000000000007FFF0
FFFE000000000007FFF0
FFFE000000000007FFF0
FFFE000000000007FFF0
FFFE000000000007FFF0
FFFE000000000007FFF0
FFFE000000000007FFF0
FFFE000000000007FFF0
FFFE000000000007FFF0
FFFE000000000007FFF0
FFFE000000000007FFF0
FFFE000000000007FFF0
FFFE000000000007FFF0
FFFE000000000007FFF0
FFFE000000000007FFF0
FFFE000000000007FFF0
FFFE000000000007FFF0
FFFE000000000007FFF0
FFFE000000000007FFF0
FFFE000000000007FFF0
FFFE000000000007FFF0
FFFE000000000007FFF0
FFFE000000000007FFF0
FFFE000000000007FFF0
FFFE000000000007FFF0
FFFE000000000007FFF0
FFFE000000000007FFF0
FFFE000000000007FFF0
FFFE000000000007FFF0
FFFE000000000007FFF0
FFFE000000000007FFF0
FFFE000000000007FFF0
FFFE000000000007FFF0
FFFE000000000007FFF0
FFFE000000000007FFF0
FFFE000000000007FFF0
FFFE000000000007FFF0
FFFE000000000007FFF0
FFFE000000000007FFF0
FFFE000000000007FFF0
FFFE000000000007FFF0
FFFE000000000007FFF0
FFFE000000000007FFF0
FFFE000000000007FFF0
FFFE000000000007FFF0
FFFE000000000007FFF0
FFFE000000000007FFF0
FFFE000000000007FFF0
FFFE000000000007FFF0
FFFE000000000007FFF0
FFFE000000000007FFF0
FFFE000000000007FFF0
FFFF00000000000FFFF0
FFFF80000000001FFFF0
FFFFC0000000003FFFF0
FFFFE0000000007FFFF0
FFFFF000000000FFFFF0
FFFFF800000001FFFFF0
FFFFFC00000003FFFFF0
FFFFFE00000007FFFFF0
FFFFFF0000000FFFFFF0
FFFFFF8000001FFFFFE0
7FFFFFC000003FFFFFE0
7FFFFFE000007FFFFFC0
3FFFFFF00000FFFFFF80
1FFFFFF80001FFFFFF00
0FFFFFFC0003FFFFFE00
07FFFFFE0007FFFFFC00
03FFFFFF000FFFFFF800
01FFFFFF801FFFFFF000
00FFFFFFC03FFFFFE000
007FFFFFE07FFFFFC000
003FFFFFF0FFFFFF8000
001FFFFFF9FFFFFF0000
000FFFFFFFFFFFFE0000
0007FFFFFFFFFFFC0000
0003FFFFFFFFFFF80000
0001FFFFFFFFFFF00000
0000FFFFFFFFFFE00000
00007FFFFFFFFFC00000
00003FFFFFFFFF800000
00001FFFFFFFFF000000
00000FFFFFFFFE000000
000007FFFFFFFC000000
000003FFFFFFF8000000
000001FFFFFFF0000000
000000FFFFFFE0000000
0000007FFFFFC0000000
0000003FFFFF80000000
0000001FFFFF00000000
0000000FFFFE00000000
00000007FFFC00000000
00000003FFF800000000
00000001FFF000000000
00000000FFE000000000
000000007FC000000000
000000001F0000000000
ENDCHAR
STARTCHAR 0057
ENCODING 87
SWIDTH 568 0
DWIDTH 91 0
BBX 76 107 8 0
BITMAP
03800000000000001C00
1FE0000000000000FF00
3FF0000000000001FF80
7FF8000000000003FFC0
FFFC000000000007FFE0
FFFC000000000007FFE0
FFFE000000000007FFF0
FFFE000000000007FFF0
FFFE000000000007FFF0
FFFE000000000007FFF0
FFFE000000000007FFF0
FFFE000000000007FFF0
FFFE000000000007FFF0
FFFE000000000007FFF0
FFFE000000000007FFF0
FFFE000000000007FFF0
FFFE000000000007FFF0
FFFE000000000007FFF0
FFFE000000000007FFF0
FFFE000000000007FFF0
FFFE000000000007FFF0
FFFE000000000007FFF0
FFFE000000000007FFF0
FFFE000000000007FFF0
FFFE000000000007FFF0
FFFE000000000007FFF0
FFFE000000000007FFF0
FFFE000000000007FFF0
FFFE000000000007FFF0
FFFE000000000007FFF0
FFFE000000000007FFF0
FFFE000000000007FFF0
FFFE000000000007FFF0
FFFE000000000007FFF0
FFFE000000000007FFF0
FFFE000000000007FFF0
FFFE000000000007FFF0
FFFE000000000007FFF0
FFFE000000000007FFF0
FFFE000000000007FFF0
FFFE000000000007FFF0
FFFE000000000007FFF0
FFFE000000000007FFF0
FFFE000000000007FFF0
FFFE000000000007FFF0
FFFE000000000007FFF0
FFFE00001F000007FFF0
FFFE00007FC00007FFF0
FFFE0000FFE00007FFF0
FFFE0001FFF00007FFF0
FFFE0001FFF80007FFF0
FFFE0003FFF80007FFF0
FFFE0003FFF80007FFF0
FFFE0003FFF80007FFF0
FFFE0003FFF80007FFF0
FFFE0003FFF80007FFF0
FFFE0003FFF80007FFF0
FFFE0003FFF80007FFF0
FFFE0003FFF80007FFF0
FFFE0003FFF80007FFF0
FFFE0003FFF80007FFF0
FFFE0003FFF80007FFF0
FFFE0003FFF80007FFF0
FFFE0003FFF80007FFF0
FFFE0003FFF80007FFF0
FFFE0003FFF80007FFF0
FFFE0003FFF80007FFF0
FFFE0003FFF80007FFF0
FFFE0003FFF80007FFF0
FFFE0003FFF80007FFF0
FFFE0003FFF80007FFF0
FFFE0003FFF80007FFF0
FFFE0003FFF80007FFF0
FFFE0003FFF80007FFF0
FFFE0003FFF80007FFF0
FFFE0003FFF80007FFF0
FFFE0003FFF80007FFF0
FFFE0003FFF80007FFF0
FFFE0003FFF80007FFF0
FFFE0003FFF80007FFF0
FFFE0003FFF80007FFF0
FFFE0003FFF80007FFF0
FFFE0003FFF80007FFF0
FFFE0003FFF80007FFF0
FFFE0003FFF80007FFF0
FFFE0003FFF8000FFFF0
FFFE0003FFFC000FFFF0
FFFF0007FFFC000FFFF0
FFFF0007FFFE001FFFE0
FFFF800FFFFF003FFFE0
FFFFC01FFFFF807FFFE0
7FFFF8FFFFFFE1FFFFE0
7FFFFFFFFFFFFFFFFFC0
3FFFFFFFFFFFFFFFFFC0
3FFFFFFFFFFFFFFFFF80
1FFFFFFFFFFFFFFFFF80
1FFFFFFFFFFFFFFFFF00
0FFFFFFFFFFFFFFFFE00
07FFFFFFFFFFFFFFFC00
03FFFFFFFFFFFFFFFC00
01FFFFFFFFFFFFFFF800
00FFFFFFF3FFFFFFF000
007FFFFFE0FFFFFFC000
001FFFFFC07FFFFF8000
000FFFFF001FFFFE0000
0003FFFC0007FFF80000
00003FE00000FFC00000
ENDCHAR
STARTCHAR 0058
ENCODING 88
SWIDTH 568 0
DWIDTH 91 0
BBX 76 107 8 0
BITMAP
03800000000000001C00
1FE0000000000000FF00
3FF0000000000001FF80
7FF8000000000003FFC0
FFFC000000000007FFE0
FFFC000000000007FFE0
FFFE000000000007FFF0
FFFE000000000007FFF0
FFFE000000000007FFF0
FFFE000000000007FFF0
FFFE000000000007FFF0
FFFE000000000007FFF0
FFFE000000000007FFF0
FFFE000000000007FFF0
FFFE000000000007FFF0
FFFE000000000007FFF0
FFFE000000000007FFF0
FFFE000000000007FFF0
FFFE000000000007FFF0
FFFE000000000007FFF0
FFFE00000000000FFFF0
FFFF00000000001FFFF0
FFFF80000000003FFFF0
FFFFC0000000007FFFF0
FFFFE000000000FFFFF0
FFFFF000000001FFFFE0
FFFFF800000003FFFFE0
7FFFFC00000007FFFFC0
3FFFFE0000000FFFFFC0
1FFFFF0000001FFFFF80
0FFFFF8000003FFFFF00
07FFFFC000007FFFFE00
03FFFFE00000FFFFFC00
01FFFFF00001FFFFF800
00FFFFF80003FFFFF000
007FFFFC0007FFFFE000
003FFFFE000FFFFF8000
001FFFFF001FFFFF0000
000FFFFF803FFFFE0000
0007FFFFC07FFFFC0000
0003FFFFE0FFFFF80000
0001FFFFF1FFFFF00000
0000FFFFFBFFFFE00000
00007FFFFFFFFFC00000
00003FFFFFFFFF800000
00001FFFFFFFFF000000
00000FFFFFFFFE000000
000007FFFFFFFC000000
000003FFFFFFF8000000
000001FFFFFFF0000000
000000FFFFFFE0000000
0000007FFFFFC0000000
0000003FFFFF80000000
0000001FFFFF00000000
0000003FFFFF80000000
0000007FFFFFC0000000
000000FFFFFFE0000000
000001FFFFFFF0000000
000003FFFFFFF8000000
000007FFFFFFFC000000
00000FFFFFFFFE000000
00001FFFFFFFFF000000
00003FFFFFFFFF800000
00007FFFFFFFFFC00000
0000FFFFFFFFFFE00000
0001FFFFF9FFFFF00000
0003FFFFF0FFFFF80000
0007FFFFE07FFFFC0000
000FFFFFC03FFFFE0000
001FFFFF801FFFFF0000
003FFFFF000FFFFF8000
007FFFFE0007FFFFC000
00FFFFFC0003FFFFE000
01FFFFF80001FFFFF000
03FFFFF00000FFFFF800
07FFFFE000007FFFFC00
0FFFFFC000003FFFFE00
1FFFFF8000001FFFFF00
3FFFFF0000000FFFFF80
7FFFFE00000007FFFFC0
7FFFFC00000003FFFFE0
FFFFF800000001FFFFE0
FFFFF000000000FFFFF0
FFFFE0000000007FFFF0
FFFFC0000000003FFFF0
FFFF80000000001FFFF0
FFFF00000000000FFFF0
FFFE000000000007FFF0
FFFE000000000007FFF0
FFFE000000000007FFF0
FFFE000000000007FFF0
FFFE000000000007FFF0
FFFE000000000007FFF0
FFFE000000000007FFF0
FFFE000000000007FFF0
FFFE000000000007FFF0
FFFE000000000007FFF0
FFFE000000000007FFF0
FFFE000000000007FFF0
FFFE000000000007FFF0
FFFE000000000007FFF0
FFFE000000000007FFF0
FFFC000000000007FFE0
7FFC000000000003FFE0
3FF8000000000001FFC0
1FF0000000000000FF80
07C00000000000003E00
ENDCHAR
STARTCHAR 0059
ENCODING 89
SWIDTH 568 0
DWIDTH 91 0
BBX 76 107 8 0
BITMAP
03800000000000001C00
1FE0000000000000FF00
3FF0000000000001FF80
7FF8000000000003FFC0
FFFC000000000007FFE0
FFFC000000000007FFE0
FFFE000000000007FFF0
FFFE000000000007FFF0
FFFE000000000007FFF0
FFFE000000000007FFF0
FFFE000000000007FFF0
FFFE000000000007FFF0
FFFE000000000007FFF0
FFFE000000000007FFF0
FFFE000000000007FFF0
FFFE000000000007FFF0
FFFE000000000007FFF0
FFFE000000000007FFF0
FFFE000000000007FFF0
FFFE000000000007FFF0
FFFE00000000000FFFF0
FFFF00000000001FFFF0
FFFF80000000003FFFF0
FFFFC0000000007FFFF0
FFFFE000000000FFFFF0
FFFFF000000001FFFFE0
FFFFF800000003FFFFE0
7FFFFC00000007FFFFC0
3FFFFE0000000FFFFFC0
1FFFFF0000001FFFFF80
0FFFFF8000003FFFFF00
07FFFFC000007FFFFE00
03FFFFE00000FFFFFC00
01FFFFF00001FFFFF800
00FFFFF80003FFFFF000
007FFFFC0007FFFFE000
003FFFFE000FFFFF8000
001FFFFF001FFFFF0000
000FFFFF803FFFFE0000
0007FFFFC07FFFFC0000
0003FFFFE0FFFFF80000
0001FFFFF1FFFFF00000
0000FFFFFBFFFFE00000
00007FFFFFFFFFC00000
00003FFFFFFFFF800000
00001FFFFFFFFF000000
00000FFFFFFFFE000000
000007FFFFFFFC000000
000003FFFFFFF8000000
000001FFFFFFF0000000
000000FFFFFFE0000000
0000007FFFFFC0000000
0000003FFFFF80000000
0000001FFFFF00000000
0000000FFFFE00000000
00000007FFFC00000000
00000003FFF800000000
00000003FFF800000000
00000003FFF800000000
00000003FFF800000000
00000003FFF800000000
00000003FFF800000000
00000003FFF800000000
00000003FFF800000000
00000003FFF800000000
00000003FFF800000000
00000003FFF800000000
00000003FFF800000000
00000003FFF800000000
00000003FFF800000000
00000003FFF800000000
00000003FFF800000000
00000003FFF800000000
00000003FFF800000000
00000003FFF800000000
00000003FFF800000000
00000003FFF800000000
00000003FFF800000000
00000003FFF800000000
00000003FFF800000000
00000003FFF800000000
00000003FFF800000000
00000003FFF800000000
00000003FFF800000000
00000003FFF800000000
00000003FFF800000000
00000003FFF800000000
00000003FFF800000000
00000003FFF800000000
00000003FFF800000000
00000003FFF800000000
00000003FFF800000000
00000003FFF800000000
00000003FFF800000000
00000003FFF800000000
00000003FFF800000000
00000003FFF800000000
00000003FFF800000000
00000003FFF800000000
00000003FFF800000000
00000003FFF800000000
00000003FFF800000000
00000001FFF800000000
00000001FFF000000000
00000000FFE000000000
000000007FC000000000
000000001F0000000000
ENDCHAR
STARTCHAR 005A
ENCODING 90
SWIDTH 568 0
DWIDTH 91 0
BBX 76 107 8 0
BITMAP
03FFFFFFFFFFFFFFFC00
1FFFFFFFFFFFFFFFFF00
3FFFFFFFFFFFFFFFFF80
7FFFFFFFFFFFFFFFFFC0
FFFFFFFFFFFFFFFFFFE0
FFFFFFFFFFFFFFFFFFE0
FFFFFFFFFFFFFFFFFFF0
FFFFFFFFFFFFFFFFFFF0
FFFFFFFFFFFFFFFFFFF0
FFFFFFFFFFFFFFFFFFF0
FFFFFFFFFFFFFFFFFFF0
FFFFFFFFFFFFFFFFFFF0
7FFFFFFFFFFFFFFFFFF0
3FFFFFFFFFFFFFFFFFF0
1FFFFFFFFFFFFFFFFFF0
03FFFFFFFFFFFFFFFFF0
0000000000000007FFF0
0000000000000007FFF0
0000000000000007FFF0
0000000000000007FFF0
000000000000000FFFF0
000000000000001FFFF0
000000000000003FFFF0
000000000000007FFFF0
00000000000000FFFFF0
00000000000001FFFFE0
00000000000003FFFFE0
00000000000007FFFFC0
0000000000000FFFFFC0
0000000000001FFFFF80
0000000000003FFFFF00
0000000000007FFFFE00
000000000000FFFFFC00
000000000001FFFFF800
000000000003FFFFF000
000000000007FFFFE000
00000000000FFFFFC000
00000000001FFFFF8000
00000000003FFFFF0000
00000000007FFFFE0000
0000000000FFFFFC0000
0000000001FFFFF80000
0000000003FFFFF00000
0000000007FFFFE00000
000000000FFFFF800000
000000001FFFFF000000
000000003FFFFE000000
000000007FFFFC000000
00000000FFFFF8000000
00000001FFFFF0000000
00000003FFFFE0000000
00000007FFFFC0000000
0000000FFFFF80000000
0000001FFFFF00000000
0000003FFFFE00000000
0000007FFFFC00000000
000000FFFFF800000000
000001FFFFF000000000
000003FFFFE000000000
000007FFFFC000000000
00000FFFFF8000000000
00001FFFFF0000000000
00003FFFFE0000000000
00007FFFFC0000000000
0000FFFFF80000000000
0001FFFFF00000000000
0003FFFFE00000000000
0007FFFFC00000000000
000FFFFF800000000000
001FFFFF000000000000
003FFFFE000000000000
007FFFFC000000000000
00FFFFF8000000000000
01FFFFF0000000000000
03FFFFE0000000000000
07FFFFC0000000000000
0FFFFF80000000000000
1FFFFF00000000000000
3FFFFE00000000000000
7FFFFC00000000000000
7FFFF800000000000000
FFFFF000000000000000
FFFFE000000000000000
FFFFC000000000000000
FFFF8000000000000000
FFFF0000000000000000
FFFE0000000000000000
FFFE0000000000000000
FFFE0000000000000000
FFFE0000000000000000
FFFE0000000000000000
FFFE0000000000000000
FFFFFFFFFFFFFFFFFE00
FFFFFFFFFFFFFFFFFF80
FFFFFFFFFFFFFFFFFFC0
FFFFFFFFFFFFFFFFFFE0
FFFFFFFFFFFFFFFFFFE0
FFFFFFFFFFFFFFFFFFF0
FFFFFFFFFFFFFFFFFFF0
FFFFFFFFFFFFFFFFFFF0
FFFFFFFFFFFFFFFFFFF0
FFFFFFFFFFFFFFFFFFF0
FFFFFFFFFFFFFFFFFFE0
7FFFFFFFFFFFFFFFFFE0
3FFFFFFFFFFFFFFFFFC0
1FFFFFFFFFFFFFFFFF80
07FFFFFFFFFFFFFFFE00
ENDCHAR
STARTCHAR 005B
ENCODING 91
SWIDTH 568 0
DWIDTH 91 0
BBX 31 107 38 0
BITMAP
03FFFF00
0FFFFFE0
3FFFFFF0
3FFFFFF8
7FFFFFFC
FFFFFFFC
FFFFFFFC
FFFFFFFE
FFFFFFFE
FFFFFFFC
FFFFFFFC
FFFFFFFC
FFFFFFF8
FFFFFFF0
FFFFFFE0
FFFFFF00
FFFE0000
FFFE0000
FFFE0000
FFFE0000
FFFE0000
FFFE0000
FFFE0000
FFFE0000
FFFE0000
FFFE0000
FFFE0000
FFFE0000
FFFE0000
FFFE0000
FFFE0000
FFFE0000
FFFE0000
FFFE0000
FFFE0000
FFFE0000
FFFE0000
FFFE0000
FFFE0000
FFFE0000
FFFE0000
FFFE0000
FFFE0000
FFFE0000
FFFE0000
FFFE0000
FFFE0000
FFFE0000
FFFE0000
FFFE0000
FFFE0000
FFFE0000
FFFE0000
FFFE0000
FFFE0000
FFFE0000
FFFE0000
FFFE0000
FFFE0000
FFFE0000
FFFE0000
FFFE0000
FFFE0000
FFFE0000
FFFE0000
FFFE0000
FFFE0000
FFFE0000
FFFE0000
FFFE0000
FFFE0000
FFFE0000
FFFE0000
FFFE0000
FFFE0000
FFFE0000
FFFE0000
FFFE0000
FFFE0000
FFFE0000
FFFE0000
FFFE0000
FFFE0000
FFFE0000
FFFE0000
FFFE0000
FFFE0000
FFFE0000
FFFE0000
FFFE0000
FFFE0000
FFFE0000
FFFFFFC0
FFFFFFF0
FFFFFFF8
FFFFFFF8
FFFFFFFC
FFFFFFFC
FFFFFFFE
FFFFFFFE
FFFFFFFE
FFFFFFFC
7FFFFFFC
7FFFFFF8
3FFFFFF8
1FFFFFE0
07FFFFC0
ENDCHAR
STARTCHAR 005C
ENCODING 92
SWIDTH 568 0
DWIDTH 91 0
BBX 76 107 8 0
BITMAP
03800000000000000000
1FE00000000000000000
3FF00000000000000000
7FF80000000000000000
FFFC0000000000000000
FFFC0000000000000000
FFFE0000000000000000
FFFE0000000000000000
FFFE0000000000000000
FFFE0000000000000000
FFFE0000000000000000
FFFE0000000000000000
FFFE0000000000000000
FFFE0000000000000000
FFFE0000000000000000
FFFE0000000000000000
FFFE0000000000000000
FFFE0000000000000000
FFFE0000000000000000
FFFE0000000000000000
FFFF0000000000000000
FFFF0000000000000000
FFFF8000000000000000
FFFFC000000000000000
FFFFE000000000000000
FFFFF000000000000000
FFFFF800000000000000
7FFFFC00000000000000
3FFFFE00000000000000
1FFFFF00000000000000
0FFFFF80000000000000
07FFFFC0000000000000
03FFFFE0000000000000
01FFFFF0000000000000
00FFFFF8000000000000
007FFFFC000000000000
003FFFFE000000000000
001FFFFF000000000000
000FFFFF800000000000
0007FFFFC00000000000
0003FFFFE00000000000
0001FFFFF00000000000
0000FFFFF80000000000
00007FFFFC0000000000
00003FFFFE0000000000
00001FFFFF0000000000
00000FFFFF8000000000
000007FFFFC000000000
000003FFFFE000000000
000001FFFFF000000000
000000FFFFF800000000
0000007FFFFC00000000
0000003FFFFE00000000
0000001FFFFF00000000
0000000FFFFF80000000
00000007FFFFC0000000
00000003FFFFE0000000
00000001FFFFF0000000
00000000FFFFF8000000
000000007FFFFC000000
000000003FFFFE000000
000000001FFFFF000000
000000000FFFFF800000
0000000007FFFFC00000
0000000003FFFFE00000
0000000001FFFFF00000
0000000000FFFFF80000
00000000007FFFFC0000
00000000003FFFFE0000
00000000001FFFFF0000
00000000000FFFFF8000
000000000007FFFFC000
000000000003FFFFE000
000000000001FFFFF000
000000000000FFFFF800
0000000000007FFFFC00
0000000000003FFFFE00
0000000000001FFFFF00
0000000000000FFFFF80
00000000000007FFFFC0
00000000000003FFFFE0
00000000000001FFFFE0
00000000000000FFFFF0
000000000000007FFFF0
000000000000003FFFF0
000000000000001FFFF0
000000000000000FFFF0
0000000000000007FFF0
0000000000000007FFF0
0000000000000007FFF0
0000000000000007FFF0
0000000000000007FFF0
0000000000000007FFF0
0000000000000007FFF0
0000000000000007FFF0
0000000000000007FFF0
0000000000000007FFF0
0000000000000007FFF0
0000000000000007FFF0
0000000000000007FFF0
0000000000000007FFF0
0000000000000007FFF0
0000000000000007FFE0
0000000000000003FFE0
0000000000000001FFC0
0000000000000000FF80
00000000000000003E00
ENDCHAR
STARTCHAR 005D
ENCODING 93
SWIDTH 568 0
DWIDTH 91 0
BBX 30 107 23 0
BITMAP
03FFFF00
0FFFFFE0
3FFFFFF0
7FFFFFF8
7FFFFFF8
FFFFFFFC
FFFFFFFC
FFFFFFFC
FFFFFFFC
FFFFFFFC
FFFFFFFC
7FFFFFFC
7FFFFFFC
3FFFFFFC
0FFFFFFC
01FFFFFC
0001FFFC
0001FFFC
0001FFFC
0001FFFC
0001FFFC
0001FFFC
0001FFFC
0001FFFC
0001FFFC
0001FFFC
0001FFFC
0001FFFC
0001FFFC
0001FFFC
0001FFFC
0001FFFC
0001FFFC
0001FFFC
0001FFFC
0001FFFC
0001FFFC
0001FFFC
0001FFFC
0001FFFC
0001FFFC
0001FFFC
0001FFFC
0001FFFC
0001FFFC
0001FFFC
0001FFFC
0001FFFC
0001FFFC
0001FFFC
0001FFFC
0001FFFC
0001FFFC
0001FFFC
0001FFFC
0001FFFC
0001FFFC
0001FFFC
0001FFFC
0001FFFC
0001FFFC
0001FFFC
0001FFFC
0001FFFC
0001FFFC
0001FFFC
0001FFFC
0001FFFC
0001FFFC
0001FFFC
0001FFFC
0001FFFC
0001FFFC
0001FFFC
0001FFFC
0001FFFC
0001FFFC
0001FFFC
0001FFFC
0001FFFC
0001FFFC
0001FFFC
0001FFFC
0001FFFC
0001FFFC
0001FFFC
0001FFFC
0001FFFC
0001FFFC
0001FFFC
0001FFFC
0001FFFC
0FFFFFFC
1FFFFFFC
3FFFFFFC
7FFFFFFC
FFFFFFFC
FFFFFFFC
FFFFFFFC
FFFFFFFC
FFFFFFFC
FFFFFFFC
7FFFFFFC
7FFFFFF8
3FFFFFF0
1FFFFFE0
07FFFF80
ENDCHAR
STARTCHAR 005E
ENCODING 94
SWIDTH 568 0
DWIDTH 91 0
BBX 76 46 8 60
BITMAP
000000000E0000000000
000000003FC000000000
00000000FFE000000000
00000001FFF000000000
00000003FFF800000000
00000007FFFC00000000
0000000FFFFE00000000
0000001FFFFF00000000
0000003FFFFF80000000
0000007FFFFFC0000000
000000FFFFFFE0000000
000001FFFFFFF0000000
000003FFFFFFF8000000
000007FFFFFFFC000000
00000FFFFFFFFE000000
00001FFFFFFFFF000000
00003FFFFFFFFF800000
00007FFFFFFFFFC00000
0000FFFFFFFFFFE00000
0001FFFFF9FFFFF00000
0003FFFFF0FFFFF80000
0007FFFFE07FFFFC0000
000FFFFFC03FFFFE0000
001FFFFF801FFFFF0000
003FFFFF000FFFFF8000
007FFFFE0007FFFFC000
00FFFFFC0003FFFFE000
01FFFFF80001FFFFF000
03FFFFF00000FFFFF800
07FFFFE000007FFFFC00
0FFFFFC000003FFFFE00
1FFFFF8000001FFFFF00
3FFFFF0000000FFFFF80
3FFFFE00000007FFFFC0
7FFFFC00000003FFFFE0
FFFFF800000001FFFFE0
FFFFF000000000FFFFF0
FFFFE0000000007FFFF0
FFFFC0000000003FFFF0
FFFF80000000001FFFF0
FFFF00000000000FFFF0
FFFE000000000007FFE0
7FFC000000000003FFE0
3FF8000000000001FFC0
1FF0000000000000FF80
0FC00000000000007E00
ENDCHAR
STARTCHAR 005F
ENCODING 95
SWIDTH 568 0
DWIDTH 91 0
BBX 76 15 8 -16
BITMAP
07FFFFFFFFFFFFFFFE00
1FFFFFFFFFFFFFFFFF80
3FFFFFFFFFFFFFFFFFC0
7FFFFFFFFFFFFFFFFFE0
FFFFFFFFFFFFFFFFFFE0
FFFFFFFFFFFFFFFFFFE0
FFFFFFFFFFFFFFFFFFF0
FFFFFFFFFFFFFFFFFFF0
FFFFFFFFFFFFFFFFFFF0
FFFFFFFFFFFFFFFFFFF0
FFFFFFFFFFFFFFFFFFE0
7FFFFFFFFFFFFFFFFFE0
7FFFFFFFFFFFFFFFFFC0
3FFFFFFFFFFFFFFFFF80
0FFFFFFFFFFFFFFFFE00
ENDCHAR
STARTCHAR 0060
ENCODING 96
SWIDTH 568 0
DWIDTH 91 0
BBX 31 31 38 76
BITMAP
03800000
0FF00000
3FF80000
3FFC0000
7FFE0000
FFFF0000
FFFF8000
FFFFC000
FFFFE000
FFFFF000
7FFFF800
7FFFFC00
3FFFFE00
1FFFFF00
0FFFFF80
07FFFFC0
03FFFFE0
01FFFFF0
00FFFFF8
007FFFFC
003FFFFC
001FFFFC
000FFFFE
0007FFFE
0003FFFC
0001FFFC
0000FFFC
00007FF8
00003FF0
00001FE0
00000780
ENDCHAR
STARTCHAR 0061
ENCODING 97
SWIDTH 568 0
DWIDTH 91 0
BBX 76 76 8 1
BITMAP
00001FFFFFFFFFC00000
00003FFFFFFFFFF80000
00007FFFFFFFFFFE0000
0000FFFFFFFFFFFF8000
0001FFFFFFFFFFFFC000
0001FFFFFFFFFFFFF000
0001FFFFFFFFFFFFF800
0001FFFFFFFFFFFFFC00
0001FFFFFFFFFFFFFE00
0001FFFFFFFFFFFFFE00
0000FFFFFFFFFFFFFF00
0000FFFFFFFFFFFFFF80
00007FFFFFFFFFFFFF80
00003FFFFFFFFFFFFFC0
00000FFFFFFFFFFFFFC0
00000000000001FFFFE0
000000000000007FFFE0
000000000000003FFFE0
000000000000001FFFE0
000000000000000FFFF0
000000000000000FFFF0
000000000000000FFFF0
0000000000000007FFF0
0000000000000007FFF0
0000000000000007FFF0
0000000000000007FFF0
0000000000000007FFF0
0000000000000007FFF0
0000000000000007FFF0
0000000000000007FFF0
00000FFFFFFFFFFFFFF0
0001FFFFFFFFFFFFFFF0
0007FFFFFFFFFFFFFFF0
001FFFFFFFFFFFFFFFF0
003FFFFFFFFFFFFFFFF0
00FFFFFFFFFFFFFFFFF0
01FFFFFFFFFFFFFFFFF0
03FFFFFFFFFFFFFFFFF0
07FFFFFFFFFFFFFFFFF0
0FFFFFFFFFFFFFFFFFF0
0FFFFFFFFFFFFFFFFFF0
1FFFFFFFFFFFFFFFFFF0
3FFFFFFFFFFFFFFFFFF0
3FFFFFFFFFFFFFFFFFF0
7FFFFFFFFFFFFFFFFFF0
7FFFFFFFFFFFFFFFFFF0
7FFFE00000000007FFF0
FFFF800000000007FFF0
FFFF800000000007FFF0
FFFF000000000007FFF0
FFFE000000000007FFF0
FFFE000000000007FFF0
FFFE000000000007FFF0
FFFE000000000007FFF0
FFFE000000000007FFF0
FFFE000000000007FFF0
FFFF000000000007FFF0
FFFF000000000007FFF0
FFFF800000000007FFF0
FFFFC00000000007FFF0
7FFFF80000000007FFF0
7FFFFFFFFFFFFFFFFFF0
3FFFFFFFFFFFFFFFFFF0
3FFFFFFFFFFFFFFFFFF0
1FFFFFFFFFFFFFFFFFF0
1FFFFFFFFFFFFFFFFFF0
0FFFFFFFFFFFFFFFFFF0
07FFFFFFFFFFFFFFFFF0
03FFFFFFFFFFFFFFFFF0
01FFFFFFFFFFFFFFFFF0
00FFFFFFFFFFFFFFFFF0
007FFFFFFFFFFFFFFFE0
001FFFFFFFFFFFFFFFE0
000FFFFFFFFFFFFFFFC0
0003FFFFFFFFFFFFFF80
00003FFFFFFFFFFFFE00
ENDCHAR
STARTCHAR 0062
ENCODING 98
SWIDTH 568 0
DWIDTH 91 0
BBX 76 107 8 0
BITMAP
03800000000000000000
1FE00000000000000000
3FF00000000000000000
7FF80000000000000000
FFFC0000000000000000
FFFC0000000000000000
FFFE0000000000000000
FFFE0000000000000000
FFFE0000000000000000
FFFE0000000000000000
FFFE0000000000000000
FFFE0000000000000000
FFFE0000000000000000
FFFE0000000000000000
FFFE0000000000000000
FFFE0000000000000000
FFFE0000000000000000
FFFE0000000000000000
FFFE0000000000000000
FFFE0000000000000000
FFFE0000000000000000
FFFE0000000000000000
FFFE0000000000000000
FFFE0000000000000000
FFFE0000000000000000
FFFE0000000000000000
FFFE0000000000000000
FFFE0000000000000000
FFFE0000000000000000
FFFE0000000000000000
FFFE0000000000000000
FFFFFFFFFFFFFFC00000
FFFFFFFFFFFFFFF80000
FFFFFFFFFFFFFFFE0000
FFFFFFFFFFFFFFFF8000
FFFFFFFFFFFFFFFFC000
FFFFFFFFFFFFFFFFF000
FFFFFFFFFFFFFFFFF800
FFFFFFFFFFFFFFFFFC00
FFFFFFFFFFFFFFFFFE00
FFFFFFFFFFFFFFFFFE00
FFFFFFFFFFFFFFFFFF00
FFFFFFFFFFFFFFFFFF80
FFFFFFFFFFFFFFFFFF80
FFFFFFFFFFFFFFFFFFC0
FFFFFFFFFFFFFFFFFFC0
FFFE0000000001FFFFE0
FFFE00000000007FFFE0
FFFE00000000003FFFE0
FFFE00000000001FFFE0
FFFE00000000000FFFF0
FFFE00000000000FFFF0
FFFE00000000000FFFF0
FFFE000000000007FFF0
FFFE000000000007FFF0
FFFE000000000007FFF0
FFFE000000000007FFF0
FFFE000000000007FFF0
FFFE000000000007FFF0
FFFE000000000007FFF0
FFFE000000000007FFF0
FFFE000000000007FFF0
FFFE000000000007FFF0
FFFE000000000007FFF0
FFFE000000000007FFF0
FFFE000000000007FFF0
FFFE000000000007FFF0
FFFE000000000007FFF0
FFFE000000000007FFF0
FFFE000000000007FFF0
FFFE000000000007FFF0
FFFE000000000007FFF0
FFFE000000000007FFF0
FFFE000000000007FFF0
FFFE000000000007FFF0
FFFE000000000007FFF0
FFFE000000000007FFF0
FFFE000000000007FFF0
FFFE000000000007FFF0
FFFE000000000007FFF0
FFFE000000000007FFF0
FFFE000000000007FFF0
FFFE000000000007FFF0
FFFE000000000007FFF0
FFFE000000000007FFF0
FFFE00000000000FFFF0
FFFE00000000000FFFF0
FFFE00000000000FFFF0
FFFE00000000001FFFE0
FFFE00000000003FFFE0
FFFE00000000007FFFE0
FFFE0000000001FFFFE0
FFFFFFFFFFFFFFFFFFC0
FFFFFFFFFFFFFFFFFFC0
FFFFFFFFFFFFFFFFFF80
FFFFFFFFFFFFFFFFFF80
FFFFFFFFFFFFFFFFFF00
FFFFFFFFFFFFFFFFFE00
FFFFFFFFFFFFFFFFFC00
FFFFFFFFFFFFFFFFFC00
FFFFFFFFFFFFFFFFF800
FFFFFFFFFFFFFFFFF000
FFFFFFFFFFFFFFFFC000
7FFFFFFFFFFFFFFF8000
3FFFFFFFFFFFFFFE0000
1FFFFFFFFFFFFFF80000
07FFFFFFFFFFFFC00000
ENDCHAR
STARTCHAR 0063
ENCODING 99
SWIDTH 568 0
DWIDTH 91 0
BBX 76 76 8 1
BITMAP
00007FFFFFFFFFC00000
0003FFFFFFFFFFF80000
000FFFFFFFFFFFFE0000
003FFFFFFFFFFFFF8000
007FFFFFFFFFFFFFC000
00FFFFFFFFFFFFFFF000
01FFFFFFFFFFFFFFF800
03FFFFFFFFFFFFFFFC00
07FFFFFFFFFFFFFFFE00
0FFFFFFFFFFFFFFFFE00
1FFFFFFFFFFFFFFFFF00
1FFFFFFFFFFFFFFFFF80
3FFFFFFFFFFFFFFFFF80
3FFFFFFFFFFFFFFFFFC0
7FFFFFFFFFFFFFFFFFC0
7FFFF000000001FFFFE0
FFFFC0000000007FFFE0
FFFF80000000003FFFE0
FFFF00000000001FFFE0
FFFF00000000000FFFF0
FFFE00000000000FFFF0
FFFE00000000000FFFF0
FFFE000000000007FFF0
FFFE000000000007FFF0
FFFE000000000007FFF0
FFFE000000000007FFE0
FFFE000000000003FFE0
FFFE000000000003FFC0
FFFE000000000001FF80
FFFE0000000000007E00
FFFE0000000000000000
FFFE0000000000000000
FFFE0000000000000000
FFFE0000000000000000
FFFE0000000000000000
FFFE0000000000000000
FFFE0000000000000000
FFFE0000000000000000
FFFE0000000000000000
FFFE0000000000000000
FFFE0000000000000000
FFFE0000000000000000
FFFE0000000000000000
FFFE0000000000000000
FFFE0000000000000000
FFFE0000000000000000
FFFE0000000000007F00
FFFE000000000001FF80
FFFE000000000003FFC0
FFFE000000000003FFE0
FFFE000000000007FFE0
FFFE000000000007FFF0
FFFE000000000007FFF0
FFFE000000000007FFF0
FFFE00000000000FFFF0
FFFE00000000000FFFF0
FFFF00000000000FFFF0
FFFF00000000001FFFE0
FFFF80000000003FFFE0
FFFFC0000000007FFFE0
7FFFF800000001FFFFE0
7FFFFFFFFFFFFFFFFFC0
3FFFFFFFFFFFFFFFFFC0
3FFFFFFFFFFFFFFFFF80
1FFFFFFFFFFFFFFFFF80
1FFFFFFFFFFFFFFFFF00
0FFFFFFFFFFFFFFFFE00
07FFFFFFFFFFFFFFFC00
03FFFFFFFFFFFFFFFC00
01FFFFFFFFFFFFFFF800
00FFFFFFFFFFFFFFF000
007FFFFFFFFFFFFFC000
001FFFFFFFFFFFFF8000
000FFFFFFFFFFFFE0000
0003FFFFFFFFFFF80000
00003FFFFFFFFFC00000
ENDCHAR
STARTCHAR 0064
ENCODING 100
SWIDTH 568 0
DWIDTH 91 0
BBX 76 107 8 0
BITMAP
00000000000000001C00
0000000000000000FF00
0000000000000001FF80
0000000000000003FFC0
0000000000000007FFE0
0000000000000007FFE0
0000000000000007FFF0
0000000000000007FFF0
0000000000000007FFF0
0000000000000007FFF0
0000000000000007FFF0
0000000000000007FFF0
0000000000000007FFF0
0000000000000007FFF0
0000000000000007FFF0
0000000000000007FFF0
0000000000000007FFF0
0000000000000007FFF0
0000000000000007FFF0
0000000000000007FFF0
0000000000000007FFF0
0000000000000007FFF0
0000000000000007FFF0
0000000000000007FFF0
0000000000000007FFF0
0000000000000007FFF0
0000000000000007FFF0
0000000000000007FFF0
0000000000000007FFF0
0000000000000007FFF0
0000000000000007FFF0
00007FFFFFFFFFFFFFF0
0003FFFFFFFFFFFFFFF0
000FFFFFFFFFFFFFFFF0
003FFFFFFFFFFFFFFFF0
007FFFFFFFFFFFFFFFF0
00FFFFFFFFFFFFFFFFF0
01FFFFFFFFFFFFFFFFF0
03FFFFFFFFFFFFFFFFF0
07FFFFFFFFFFFFFFFFF0
0FFFFFFFFFFFFFFFFFF0
1FFFFFFFFFFFFFFFFFF0
1FFFFFFFFFFFFFFFFFF0
3FFFFFFFFFFFFFFFFFF0
3FFFFFFFFFFFFFFFFFF0
7FFFFFFFFFFFFFFFFFF0
7FFFF00000000007FFF0
FFFFC00000000007FFF0
FFFF800000000007FFF0
FFFF000000000007FFF0
FFFF000000000007FFF0
FFFE000000000007FFF0
FFFE000000000007FFF0
FFFE000000000007FFF0
FFFE000000000007FFF0
FFFE000000000007FFF0
FFFE000000000007FFF0
FFFE000000000007FFF0
FFFE000000000007FFF0
FFFE000000000007FFF0
FFFE000000000007FFF0
FFFE000000000007FFF0
FFFE000000000007FFF0
FFFE000000000007FFF0
FFFE000000000007FFF0
FFFE000000000007FFF0
FFFE000000000007FFF0
FFFE000000000007FFF0
FFFE000000000007FFF0
FFFE000000000007FFF0
FFFE000000000007FFF0
FFFE000000000007FFF0
FFFE000000000007FFF0
FFFE000000000007FFF0
FFFE000000000007FFF0
FFFE000000000007FFF0
FFFE000000000007FFF0
FFFE000000000007FFF0
FFFE000000000007FFF0
FFFE000000000007FFF0
FFFE000000000007FFF0
FFFE000000000007FFF0
FFFE000000000007FFF0
FFFE000000000007FFF0
FFFE000000000007FFF0
FFFE000000000007FFF0
FFFE000000000007FFF0
FFFF000000000007FFF0
FFFF000000000007FFF0
FFFF800000000007FFF0
FFFFC00000000007FFF0
7FFFF80000000007FFF0
7FFFFFFFFFFFFFFFFFF0
3FFFFFFFFFFFFFFFFFF0
3FFFFFFFFFFFFFFFFFF0
1FFFFFFFFFFFFFFFFFF0
1FFFFFFFFFFFFFFFFFF0
0FFFFFFFFFFFFFFFFFF0
07FFFFFFFFFFFFFFFFF0
03FFFFFFFFFFFFFFFFF0
01FFFFFFFFFFFFFFFFF0
00FFFFFFFFFFFFFFFFF0
007FFFFFFFFFFFFFFFE0
001FFFFFFFFFFFFFFFE0
000FFFFFFFFFFFFFFFC0
0003FFFFFFFFFFFFFF80
00003FFFFFFFFFFFFE00
ENDCHAR
STARTCHAR 0065
ENCODING 101
SWIDTH 568 0
DWIDTH 91 0
BBX 76 76 8 1
BITMAP
00007FFFFFFFFFC00000
0003FFFFFFFFFFF80000
000FFFFFFFFFFFFE0000
003FFFFFFFFFFFFF8000
007FFFFFFFFFFFFFC000
00FFFFFFFFFFFFFFF000
01FFFFFFFFFFFFFFF800
03FFFFFFFFFFFFFFFC00
07FFFFFFFFFFFFFFFE00
0FFFFFFFFFFFFFFFFE00
1FFFFFFFFFFFFFFFFF00
1FFFFFFFFFFFFFFFFF80
3FFFFFFFFFFFFFFFFF80
3FFFFFFFFFFFFFFFFFC0
7FFFFFFFFFFFFFFFFFC0
7FFFF000000001FFFFE0
FFFFC0000000007FFFE0
FFFF80000000003FFFE0
FFFF00000000001FFFE0
FFFF00000000000FFFF0
FFFE00000000000FFFF0
FFFE00000000000FFFF0
FFFE000000000007FFF0
FFFE000000000007FFF0
FFFE000000000007FFF0
FFFE000000000007FFF0
FFFE000000000007FFF0
FFFE000000000007FFF0
FFFE000000000007FFF0
FFFE000000000007FFF0
FFFFFFFFFFFFFFFFFFF0
FFFFFFFFFFFFFFFFFFF0
FFFFFFFFFFFFFFFFFFF0
FFFFFFFFFFFFFFFFFFF0
FFFFFFFFFFFFFFFFFFF0
FFFFFFFFFFFFFFFFFFF0
FFFFFFFFFFFFFFFFFFF0
FFFFFFFFFFFFFFFFFFF0
FFFFFFFFFFFFFFFFFFF0
FFFFFFFFFFFFFFFFFFF0
FFFFFFFFFFFFFFFFFFE0
FFFFFFFFFFFFFFFFFFE0
FFFFFFFFFFFFFFFFFFC0
FFFFFFFFFFFFFFFFFF80
FFFFFFFFFFFFFFFFFF00
FFFFFFFFFFFFFFFFF800
FFFE0000000000000000
FFFE0000000000000000
FFFE0000000000000000
FFFE0000000000000000
FFFE0000000000000000
FFFE0000000000000000
FFFE0000000000000000
FFFE0000000000000000
FFFE0000000000000000
FFFE0000000000000000
FFFF0000000000000000
FFFF0000000000000000
FFFF8000000000000000
FFFFC000000000000000
7FFFF800000000000000
7FFFFFFFFFFFFF000000
3FFFFFFFFFFFFFC00000
3FFFFFFFFFFFFFE00000
1FFFFFFFFFFFFFE00000
1FFFFFFFFFFFFFF00000
0FFFFFFFFFFFFFF00000
07FFFFFFFFFFFFF80000
03FFFFFFFFFFFFF80000
01FFFFFFFFFFFFF80000
00FFFFFFFFFFFFF00000
007FFFFFFFFFFFF00000
001FFFFFFFFFFFE00000
000FFFFFFFFFFFE00000
0003FFFFFFFFFF800000
00003FFFFFFFFF000000
ENDCHAR
STARTCHAR 0066
ENCODING 102
SWIDTH 568 0
DWIDTH 91 0
BBX 61 107 23 0
BITMAP
000000000FFFFE00
00000001FFFFFF80
0000000FFFFFFFC0
0000001FFFFFFFE0
0000007FFFFFFFF0
000000FFFFFFFFF0
000001FFFFFFFFF8
000003FFFFFFFFF8
000007FFFFFFFFF8
00000FFFFFFFFFF8
00001FFFFFFFFFF0
00003FFFFFFFFFF0
00003FFFFFFFFFE0
00007FFFFFFFFFC0
00007FFFFFFFFF80
0000FFFFFFFFFC00
0000FFFFC0000000
0000FFFF80000000
0000FFFF00000000
0001FFFE00000000
0001FFFE00000000
0001FFFE00000000
0001FFFC00000000
0001FFFC00000000
0001FFFC00000000
0001FFFC00000000
0001FFFC00000000
0001FFFC00000000
0001FFFC00000000
0001FFFC00000000
0001FFFC00000000
0FFFFFFFFF800000
1FFFFFFFFFE00000
3FFFFFFFFFF00000
7FFFFFFFFFF00000
FFFFFFFFFFF80000
FFFFFFFFFFF80000
FFFFFFFFFFFC0000
FFFFFFFFFFFC0000
FFFFFFFFFFFC0000
FFFFFFFFFFF80000
7FFFFFFFFFF80000
7FFFFFFFFFF00000
3FFFFFFFFFF00000
1FFFFFFFFFC00000
07FFFFFFFF800000
0001FFFC00000000
0001FFFC00000000
0001FFFC00000000
0001FFFC00000000
0001FFFC00000000
0001FFFC00000000
0001FFFC00000000
0001FFFC00000000
0001FFFC00000000
0001FFFC00000000
0001FFFC00000000
0001FFFC00000000
0001FFFC00000000
0001FFFC00000000
0001FFFC00000000
0001FFFC00000000
0001FFFC00000000
0001FFFC00000000
0001FFFC00000000
0001FFFC00000000
0001FFFC00000000
0001FFFC00000000
0001FFFC00000000
0001FFFC00000000
0001FFFC00000000
0001FFFC00000000
0001FFFC00000000
0001FFFC00000000
0001FFFC00000000
0001FFFC00000000
0001FFFC00000000
0001FFFC00000000
0001FFFC00000000
0001FFFC00000000
0001FFFC00000000
0001FFFC00000000
0001FFFC00000000
0001FFFC00000000
0001FFFC00000000
0001FFFC00000000
0001FFFC00000000
0001FFFC00000000
0001FFFC00000000
0001FFFC00000000
0001FFFC00000000
0001FFFC00000000
0001FFFC00000000
0001FFFC00000000
0001FFFC00000000
0001FFFC00000000
0001FFFC00000000
0001FFFC00000000
0001FFFC00000000
0001FFFC00000000
0001FFFC00000000
0001FFFC00000000
0000FFFC00000000
0000FFF800000000
00007FF000000000
00003FE000000000
00000F8000000000
ENDCHAR
STARTCHAR 0067
ENCODING 103
SWIDTH 568 0
DWIDTH 91 0
BBX 76 91 8 -15
BITMAP
00007FFFFFFFFFFFFE00
0003FFFFFFFFFFFFFF80
000FFFFFFFFFFFFFFFC0
003FFFFFFFFFFFFFFFE0
007FFFFFFFFFFFFFFFE0
00FFFFFFFFFFFFFFFFF0
01FFFFFFFFFFFFFFFFF0
03FFFFFFFFFFFFFFFFF0
07FFFFFFFFFFFFFFFFF0
0FFFFFFFFFFFFFFFFFF0
1FFFFFFFFFFFFFFFFFF0
1FFFFFFFFFFFFFFFFFF0
3FFFFFFFFFFFFFFFFFF0
3FFFFFFFFFFFFFFFFFF0
7FFFFFFFFFFFFFFFFFF0
7FFFF00000000007FFF0
FFFFC00000000007FFF0
FFFF800000000007FFF0
FFFF000000000007FFF0
FFFF000000000007FFF0
FFFE000000000007FFF0
FFFE000000000007FFF0
FFFE000000000007FFF0
FFFE000000000007FFF0
FFFE000000000007FFF0
FFFE000000000007FFF0
FFFE000000000007FFF0
FFFE000000000007FFF0
FFFE000000000007FFF0
FFFE000000000007FFF0
FFFE000000000007FFF0
FFFE000000000007FFF0
FFFE000000000007FFF0
FFFE000000000007FFF0
FFFE000000000007FFF0
FFFE000000000007FFF0
FFFE000000000007FFF0
FFFE000000000007FFF0
FFFE000000000007FFF0
FFFE000000000007FFF0
FFFE000000000007FFF0
FFFF000000000007FFF0
FFFF000000000007FFF0
FFFF800000000007FFF0
7FFFE00000000007FFF0
7FFFFC0000000007FFF0
7FFFFFFFFFFFFFFFFFF0
3FFFFFFFFFFFFFFFFFF0
3FFFFFFFFFFFFFFFFFF0
1FFFFFFFFFFFFFFFFFF0
0FFFFFFFFFFFFFFFFFF0
0FFFFFFFFFFFFFFFFFF0
07FFFFFFFFFFFFFFFFF0
03FFFFFFFFFFFFFFFFF0
01FFFFFFFFFFFFFFFFF0
00FFFFFFFFFFFFFFFFF0
007FFFFFFFFFFFFFFFF0
001FFFFFFFFFFFFFFFF0
0007FFFFFFFFFFFFFFF0
0001FFFFFFFFFFFFFFF0
00000FFFFFFFFFFFFFF0
0000000000000007FFF0
0000000000000007FFF0
0000000000000007FFF0
0000000000000007FFF0
0000000000000007FFF0
0000000000000007FFF0
0000000000000007FFF0
0000000000000007FFF0
000000000000000FFFF0
000000000000000FFFF0
000000000000000FFFF0
000000000000001FFFE0
000000000000003FFFE0
000000000000007FFFE0
00000000000000FFFFE0
00000FFFFFFFFFFFFFC0
00003FFFFFFFFFFFFFC0
00007FFFFFFFFFFFFF80
0000FFFFFFFFFFFFFF80
0000FFFFFFFFFFFFFF00
0001FFFFFFFFFFFFFE00
0001FFFFFFFFFFFFFE00
0001FFFFFFFFFFFFFC00
0001FFFFFFFFFFFFF800
0001FFFFFFFFFFFFF000
0001FFFFFFFFFFFFE000
0000FFFFFFFFFFFF8000
00007FFFFFFFFFFF0000
00003FFFFFFFFFFC0000
00001FFFFFFFFFE00000
ENDCHAR
STARTCHAR 0068
ENCODING 104
SWIDTH 568 0
DWIDTH 91 0
BBX 76 107 8 0
BITMAP
03800000000000000000
1FE00000000000000000
3FF00000000000000000
7FF80000000000000000
FFFC0000000000000000
FFFC0000000000000000
FFFE0000000000000000
FFFE0000000000000000
FFFE0000000000000000
FFFE0000000000000000
FFFE0000000000000000
FFFE0000000000000000
FFFE0000000000000000
FFFE0000000000000000
FFFE0000000000000000
FFFE0000000000000000
FFFE0000000000000000
FFFE0000000000000000
FFFE0000000000000000
FFFE0000000000000000
FFFE0000000000000000
FFFE0000000000000000
FFFE0000000000000000
FFFE0000000000000000
FFFE0000000000000000
FFFE0000000000000000
FFFE0000000000000000
FFFE0000000000000000
FFFE0000000000000000
FFFE0000000000000000
FFFE0000000000000000
FFFFFFFFFFFFFFC00000
FFFFFFFFFFFFFFF80000
FFFFFFFFFFFFFFFE0000
FFFFFFFFFFFFFFFF8000
FFFFFFFFFFFFFFFFC000
FFFFFFFFFFFFFFFFF000
FFFFFFFFFFFFFFFFF800
FFFFFFFFFFFFFFFFFC00
FFFFFFFFFFFFFFFFFE00
FFFFFFFFFFFFFFFFFE00
FFFFFFFFFFFFFFFFFF00
FFFFFFFFFFFFFFFFFF80
FFFFFFFFFFFFFFFFFF80
FFFFFFFFFFFFFFFFFFC0
FFFFFFFFFFFFFFFFFFC0
FFFE0000000001FFFFE0
FFFE00000000007FFFE0
FFFE00000000003FFFE0
FFFE00000000001FFFE0
FFFE00000000000FFFF0
FFFE00000000000FFFF0
FFFE00000000000FFFF0
FFFE000000000007FFF0
FFFE000000000007FFF0
FFFE000000000007FFF0
FFFE000000000007FFF0
FFFE000000000007FFF0
FFFE000000000007FFF0
FFFE000000000007FFF0
FFFE000000000007FFF0
FFFE000000000007FFF0
FFFE000000000007FFF0
FFFE000000000007FFF0
FFFE000000000007FFF0
FFFE000000000007FFF0
FFFE000000000007FFF0
FFFE000000000007FFF0
FFFE000000000007FFF0
FFFE000000000007FFF0
FFFE000000000007FFF0
FFFE000000000007FFF0
FFFE000000000007FFF0
FFFE000000000007FFF0
FFFE000000000007FFF0
FFFE000000000007FFF0
FFFE000000000007FFF0
FFFE000000000007FFF0
FFFE000000000007FFF0
FFFE000000000007FFF0
FFFE000000000007FFF0
FFFE000000000007FFF0
FFFE000000000007FFF0
FFFE000000000007FFF0
FFFE000000000007FFF0
FFFE000000000007FFF0
FFFE000000000007FFF0
FFFE000000000007FFF0
FFFE000000000007FFF0
FFFE000000000007FFF0
FFFE000000000007FFF0
FFFE000000000007FFF0
FFFE000000000007FFF0
FFFE000000000007FFF0
FFFE000000000007FFF0
FFFE000000000007FFF0
FFFE000000000007FFF0
FFFE000000000007FFF0
FFFE000000000007FFF0
FFFE000000000007FFF0
FFFE000000000007FFF0
FFFE000000000007FFF0
FFFC000000000007FFE0
7FFC000000000003FFE0
3FF8000000000001FFC0
1FF0000000000000FF80
07C00000000000003E00
ENDCHAR
STARTCHAR 0069
ENCODING 105
SWIDTH 568 0
DWIDTH 91 0
BBX 46 107 23 0
BITMAP
000007000000
00001FE00000
00007FF00000
00007FF80000
0000FFF80000
0001FFFC0000
0001FFFC0000
0001FFFC0000
0001FFFC0000
0001FFFC0000
0000FFFC0000
0000FFF80000
00007FF80000
00003FF00000
00001FE00000
000003000000
000000000000
000000000000
000000000000
000000000000
000000000000
000000000000
000000000000
000000000000
000000000000
000000000000
000000000000
000000000000
000000000000
000000000000
000000000000
0FFFFFC00000
1FFFFFE00000
3FFFFFF00000
7FFFFFF80000
FFFFFFFC0000
FFFFFFFC0000
FFFFFFFC0000
FFFFFFFC0000
FFFFFFFC0000
FFFFFFFC0000
7FFFFFFC0000
7FFFFFFC0000
3FFFFFFC0000
1FFFFFFC0000
07FFFFFC0000
0001FFFC0000
0001FFFC0000
0001FFFC0000
0001FFFC0000
0001FFFC0000
0001FFFC0000
0001FFFC0000
0001FFFC0000
0001FFFC0000
0001FFFC0000
0001FFFC0000
0001FFFC0000
0001FFFC0000
0001FFFC0000
0001FFFC0000
0001FFFC0000
0001FFFC0000
0001FFFC0000
0001FFFC0000
0001FFFC0000
0001FFFC0000
0001FFFC0000
0001FFFC0000
0001FFFC0000
0001FFFC0000
0001FFFC0000
0001FFFC0000
0001FFFC0000
0001FFFC0000
0001FFFC0000
0001FFFC0000
0001FFFC0000
0001FFFC0000
0001FFFC0000
0001FFFC0000
0001FFFC0000
0001FFFC0000
0001FFFC0000
0001FFFC0000
0001FFFC0000
0001FFFC0000
0001FFFC0000
0001FFFC0000
0001FFFC0000
0001FFFC0000
0001FFFC0000
0FFFFFFFFF80
1FFFFFFFFFE0
3FFFFFFFFFF0
7FFFFFFFFFF0
FFFFFFFFFFF8
FFFFFFFFFFF8
FFFFFFFFFFFC
FFFFFFFFFFFC
FFFFFFFFFFFC
FFFFFFFFFFF8
7FFFFFFFFFF8
7FFFFFFFFFF0
3FFFFFFFFFF0
1FFFFFFFFFC0
07FFFFFFFF80
ENDCHAR
STARTCHAR 006A
ENCODING 106
SWIDTH 568 0
DWIDTH 91 0
BBX 61 122 8 -16
BITMAP
0000000000001C00
0000000000007F80
000000000000FFC0
000000000001FFE0
000000000003FFF0
000000000003FFF0
000000000007FFF0
000000000007FFF8
000000000007FFF8
000000000007FFF0
000000000003FFF0
000000000003FFF0
000000000001FFE0
000000000000FFC0
0000000000007F80
0000000000000C00
0000000000000000
0000000000000000
0000000000000000
0000000000000000
0000000000000000
0000000000000000
0000000000000000
0000000000000000
0000000000000000
0000000000000000
0000000000000000
0000000000000000
0000000000000000
0000000000000000
0000000000000000
000000001FFFFF00
000000007FFFFFC0
00000000FFFFFFE0
00000001FFFFFFE0
00000001FFFFFFF0
00000003FFFFFFF0
00000003FFFFFFF8
00000003FFFFFFF8
00000003FFFFFFF8
00000003FFFFFFF8
00000001FFFFFFF8
00000001FFFFFFF8
00000000FFFFFFF8
000000007FFFFFF8
000000001FFFFFF8
000000000007FFF8
000000000007FFF8
000000000007FFF8
000000000007FFF8
000000000007FFF8
000000000007FFF8
000000000007FFF8
000000000007FFF8
000000000007FFF8
000000000007FFF8
000000000007FFF8
000000000007FFF8
000000000007FFF8
000000000007FFF8
000000000007FFF8
000000000007FFF8
000000000007FFF8
000000000007FFF8
000000000007FFF8
000000000007FFF8
000000000007FFF8
000000000007FFF8
000000000007FFF8
000000000007FFF8
000000000007FFF8
000000000007FFF8
000000000007FFF8
000000000007FFF8
000000000007FFF8
000000000007FFF8
000000000007FFF8
000000000007FFF8
000000000007FFF8
000000000007FFF8
000000000007FFF8
000000000007FFF8
000000000007FFF8
000000000007FFF8
000000000007FFF8
000000000007FFF8
000000000007FFF8
000000000007FFF8
000000000007FFF8
000000000007FFF8
000000000007FFF8
000000000007FFF8
0FC000000007FFF8
3FF000000007FFF8
7FF800000007FFF8
7FFC00000007FFF8
FFFC00000007FFF8
FFFE00000007FFF8
FFFE00000007FFF8
FFFE00000007FFF8
FFFE00000007FFF8
FFFE00000007FFF0
FFFF00000007FFF0
FFFF0000000FFFF0
FFFF8000001FFFF0
FFFFC000003FFFF0
7FFFF00000FFFFE0
7FFFFFFFFFFFFFE0
3FFFFFFFFFFFFFE0
3FFFFFFFFFFFFFC0
1FFFFFFFFFFFFFC0
1FFFFFFFFFFFFF80
0FFFFFFFFFFFFF00
07FFFFFFFFFFFE00
03FFFFFFFFFFFE00
01FFFFFFFFFFFC00
00FFFFFFFFFFF800
007FFFFFFFFFE000
003FFFFFFFFFC000
000FFFFFFFFF0000
0003FFFFFFFC0000
00007FFFFFF00000
ENDCHAR
STARTCHAR 006B
ENCODING 107
SWIDTH 568 0
DWIDTH 91 0
BBX 61 107 23 0
BITMAP
0380000000000000
0FE0000000000000
3FF8000000000000
7FFC000000000000
7FFC000000000000
FFFE000000000000
FFFE000000000000
FFFE000000000000
FFFE000000000000
FFFE000000000000
FFFE000000000000
FFFE000000000000
FFFE000000000000
FFFE000000000000
FFFE000000000000
FFFE000000000000
FFFE000000000000
FFFE000000000000
FFFE000000000000
FFFE000000000000
FFFE000000000000
FFFE000000000000
FFFE000000000000
FFFE000000000000
FFFE000000000000
FFFE000000000000
FFFE000000000000
FFFE000000000000
FFFE000000000000
FFFE000000000000
FFFE000000000000
FFFE000000003F00
FFFE000000007FC0
FFFE00000001FFE0
FFFE00000003FFF0
FFFE00000007FFF0
FFFE0000000FFFF8
FFFE0000001FFFF8
FFFE0000003FFFF8
FFFE0000007FFFF8
FFFE000000FFFFF8
FFFE000001FFFFF0
FFFE000003FFFFF0
FFFE000007FFFFE0
FFFE00000FFFFFC0
FFFE00001FFFFF80
FFFE00003FFFFF00
FFFE00007FFFFE00
FFFE0000FFFFFC00
FFFE0001FFFFF800
FFFE0003FFFFF000
FFFE0007FFFFE000
FFFE000FFFFFC000
FFFE001FFFFF8000
FFFE003FFFFF0000
FFFE007FFFFE0000
FFFE00FFFFFC0000
FFFE01FFFFF80000
FFFE03FFFFF00000
FFFE07FFFFE00000
FFFE0FFFFFC00000
FFFE1FFFFF800000
FFFE3FFFFF000000
FFFE7FFFFE000000
FFFEFFFFFC000000
FFFFFFFFF8000000
FFFFFFFFF0000000
FFFFFFFFE0000000
FFFFFFFF80000000
FFFFFFFFC0000000
FFFFFFFFE0000000
FFFFFFFFF0000000
FFFFFFFFF8000000
FFFFFFFFFC000000
FFFFFFFFFE000000
FFFFFFFFFF000000
FFFFFFFFFF800000
FFFFFFFFFFC00000
FFFFFFFFFFE00000
FFFFFFFFFFF00000
FFFFFCFFFFF80000
FFFFF87FFFFC0000
FFFFF03FFFFE0000
FFFFE01FFFFF0000
FFFFC00FFFFF8000
FFFF8007FFFFC000
FFFF0003FFFFE000
FFFE0001FFFFF000
FFFE0000FFFFF800
FFFE00007FFFFC00
FFFE00003FFFFE00
FFFE00001FFFFF00
FFFE00000FFFFF80
FFFE000007FFFFC0
FFFE000003FFFFE0
FFFE000001FFFFF0
FFFE000000FFFFF0
FFFE0000007FFFF8
FFFE0000003FFFF8
FFFE0000001FFFF8
FFFE0000000FFFF8
FFFE00000007FFF8
7FFC00000003FFF0
7FFC00000001FFF0
3FF800000000FFE0
1FF0000000007FC0
07C0000000001F00
ENDCHAR
STARTCHAR 006C
ENCODING 108
SWIDTH 568 0
DWIDTH 91 0
BBX 46 107 23 0
BITMAP
03FFFF000000
0FFFFFE00000
3FFFFFF00000
7FFFFFF80000
7FFFFFF80000
FFFFFFFC0000
FFFFFFFC0000
FFFFFFFC0000
FFFFFFFC0000
FFFFFFFC0000
FFFFFFFC0000
7FFFFFFC0000
7FFFFFFC0000
3FFFFFFC0000
0FFFFFFC0000
01FFFFFC0000
0001FFFC0000
0001FFFC0000
0001FFFC0000
0001FFFC0000
0001FFFC0000
0001FFFC0000
0001FFFC0000
0001FFFC0000
0001FFFC0000
0001FFFC0000
0001FFFC0000
0001FFFC0000
0001FFFC0000
0001FFFC0000
0001FFFC0000
0001FFFC0000
0001FFFC0000
0001FFFC0000
0001FFFC0000
0001FFFC0000
0001FFFC0000
0001FFFC0000
0001FFFC0000
0001FFFC0000
0001FFFC0000
0001FFFC0000
0001FFFC0000
0001FFFC0000
0001FFFC0000
0001FFFC0000
0001FFFC0000
0001FFFC0000
0001FFFC0000
0001FFFC0000
0001FFFC0000
0001FFFC0000
0001FFFC0000
0001FFFC0000
0001FFFC0000
0001FFFC0000
0001FFFC0000
0001FFFC0000
0001FFFC0000
0001FFFC0000
0001FFFC0000
0001FFFC0000
0001FFFC0000
0001FFFC0000
0001FFFC0000
0001FFFC0000
0001FFFC0000
0001FFFC0000
0001FFFC0000
0001FFFC0000
0001FFFC0000
0001FFFC0000
0001FFFC0000
0001FFFC0000
0001FFFC0000
0001FFFC0000
0001FFFC0000
0001FFFC0000
0001FFFC0000
0001FFFC0000
0001FFFC0000
0001FFFC0000
0001FFFC0000
0001FFFC0000
0001FFFC0000
0001FFFC0000
0001FFFC0000
0001FFFC0000
0001FFFC0000
0001FFFC0000
0001FFFC0000
0001FFFC0000
0FFFFFFFFF80
1FFFFFFFFFE0
3FFFFFFFFFF0
7FFFFFFFFFF0
FFFFFFFFFFF8
FFFFFFFFFFF8
FFFFFFFFFFFC
FFFFFFFFFFFC
FFFFFFFFFFFC
FFFFFFFFFFF8
7FFFFFFFFFF8
7FFFFFFFFFF0
3FFFFFFFFFF0
1FFFFFFFFFC0
07FFFFFFFF80
ENDCHAR
STARTCHAR 006D
ENCODING 109
SWIDTH 568 0
DWIDTH 91 0
BBX 76 76 8 1
BITMAP
0FFFFFF00000FFC00000
1FFFFFFE0007FFF80000
3FFFFFFF801FFFFE0000
7FFFFFFFE03FFFFF8000
FFFFFFFFF0FFFFFFC000
FFFFFFFFF9FFFFFFF000
FFFFFFFFFDFFFFFFF800
FFFFFFFFFFFFFFFFFC00
FFFFFFFFFFFFFFFFFE00
FFFFFFFFFFFFFFFFFE00
FFFFFFFFFFFFFFFFFF00
FFFFFFFFFFFFFFFFFF80
FFFFFFFFFFFFFFFFFF80
FFFFFFFFFFFFFFFFFFC0
FFFFFFFFFFFFFFFFFFC0
FFFE007FFFFFE1FFFFE0
FFFE001FFFFF807FFFE0
FFFE000FFFFE003FFFE0
FFFE0007FFFE001FFFE0
FFFE0007FFFC000FFFF0
FFFE0003FFFC000FFFF0
FFFE0003FFF8000FFFF0
FFFE0003FFF80007FFF0
FFFE0003FFF80007FFF0
FFFE0003FFF80007FFF0
FFFE0003FFF80007FFF0
FFFE0003FFF80007FFF0
FFFE0003FFF80007FFF0
FFFE0003FFF80007FFF0
FFFE0003FFF80007FFF0
FFFE0003FFF80007FFF0
FFFE0003FFF80007FFF0
FFFE0003FFF80007FFF0
FFFE0003FFF80007FFF0
FFFE0003FFF80007FFF0
FFFE0003FFF80007FFF0
FFFE0003FFF80007FFF0
FFFE0003FFF80007FFF0
FFFE0003FFF80007FFF0
FFFE0003FFF80007FFF0
FFFE0003FFF80007FFF0
FFFE0003FFF80007FFF0
FFFE0003FFF80007FFF0
FFFE0003FFF80007FFF0
FFFE0003FFF80007FFF0
FFFE0003FFF80007FFF0
FFFE0003FFF80007FFF0
FFFE0003FFF80007FFF0
FFFE0003FFF80007FFF0
FFFE0003FFF80007FFF0
FFFE0003FFF80007FFF0
FFFE0003FFF80007FFF0
FFFE0003FFF80007FFF0
FFFE0003FFF80007FFF0
FFFE0003FFF80007FFF0
FFFE0003FFF80007FFF0
FFFE0003FFF80007FFF0
FFFE0003FFF80007FFF0
FFFE0003FFF80007FFF0
FFFE0003FFF80007FFF0
FFFE0003FFF80007FFF0
FFFE0003FFF80007FFF0
FFFE0003FFF80007FFF0
FFFE0003FFF80007FFF0
FFFE0003FFF80007FFF0
FFFE0003FFF80007FFF0
FFFE0003FFF80007FFF0
FFFE0003FFF80007FFF0
FFFE0003FFF80007FFF0
FFFE0003FFF80007FFF0
FFFE0003FFF80007FFF0
FFFC0001FFF80007FFE0
7FFC0001FFF00003FFE0
3FF80000FFE00001FFC0
1FF000007FC00000FF80
07C000001F0000003E00
ENDCHAR
STARTCHAR 006E
ENCODING 110
SWIDTH 568 0
DWIDTH 91 0
BBX 76 76 8 1
BITMAP
0FFFFFFFFFFFFFC00000
1FFFFFFFFFFFFFF80000
3FFFFFFFFFFFFFFE0000
7FFFFFFFFFFFFFFF8000
FFFFFFFFFFFFFFFFC000
FFFFFFFFFFFFFFFFF000
FFFFFFFFFFFFFFFFF800
FFFFFFFFFFFFFFFFFC00
FFFFFFFFFFFFFFFFFE00
FFFFFFFFFFFFFFFFFE00
FFFFFFFFFFFFFFFFFF00
FFFFFFFFFFFFFFFFFF80
FFFFFFFFFFFFFFFFFF80
FFFFFFFFFFFFFFFFFFC0
FFFFFFFFFFFFFFFFFFC0
FFFE0000000001FFFFE0
FFFE00000000007FFFE0
FFFE00000000003FFFE0
FFFE00000000001FFFE0
FFFE00000000000FFFF0
FFFE00000000000FFFF0
FFFE00000000000FFFF0
FFFE000000000007FFF0
FFFE000000000007FFF0
FFFE000000000007FFF0
FFFE000000000007FFF0
FFFE000000000007FFF0
FFFE000000000007FFF0
FFFE000000000007FFF0
FFFE000000000007FFF0
FFFE000000000007FFF0
FFFE000000000007FFF0
FFFE000000000007FFF0
FFFE000000000007FFF0
FFFE000000000007FFF0
FFFE000000000007FFF0
FFFE000000000007FFF0
FFFE000000000007FFF0
FFFE000000000007FFF0
FFFE000000000007FFF0
FFFE000000000007FFF0
FFFE000000000007FFF0
FFFE000000000007FFF0
FFFE000000000007FFF0
FFFE000000000007FFF0
FFFE000000000007FFF0
FFFE000000000007FFF0
FFFE000000000007FFF0
FFFE000000000007FFF0
FFFE000000000007FFF0
FFFE000000000007FFF0
FFFE000000000007FFF0
FFFE000000000007FFF0
FFFE000000000007FFF0
FFFE000000000007FFF0
FFFE000000000007FFF0
FFFE000000000007FFF0
FFFE000000000007FFF0
FFFE000000000007FFF0
FFFE000000000007FFF0
FFFE000000000007FFF0
FFFE000000000007FFF0
FFFE000000000007FFF0
FFFE000000000007FFF0
FFFE000000000007FFF0
FFFE000000000007FFF0
FFFE000000000007FFF0
FFFE000000000007FFF0
FFFE000000000007FFF0
FFFE000000000007FFF0
FFFE000000000007FFF0
FFFC000000000007FFE0
7FFC000000000003FFE0
3FF8000000000001FFC0
1FF0000000000000FF80
07C00000000000003E00
ENDCHAR
STARTCHAR 006F
ENCODING 111
SWIDTH 568 0
DWIDTH 91 0
BBX 76 76 8 1
BITMAP
00007FFFFFFFFFC00000
0003FFFFFFFFFFF80000
000FFFFFFFFFFFFE0000
003FFFFFFFFFFFFF8000
007FFFFFFFFFFFFFC000
00FFFFFFFFFFFFFFF000
01FFFFFFFFFFFFFFF800
03FFFFFFFFFFFFFFFC00
07FFFFFFFFFFFFFFFE00
0FFFFFFFFFFFFFFFFE00
1FFFFFFFFFFFFFFFFF00
1FFFFFFFFFFFFFFFFF80
3FFFFFFFFFFFFFFFFF80
3FFFFFFFFFFFFFFFFFC0
7FFFFFFFFFFFFFFFFFC0
7FFFF000000001FFFFE0
FFFFC0000000007FFFE0
FFFF80000000003FFFE0
FFFF00000000001FFFE0
FFFF00000000000FFFF0
FFFE00000000000FFFF0
FFFE00000000000FFFF0
FFFE000000000007FFF0
FFFE000000000007FFF0
FFFE000000000007FFF0
FFFE000000000007FFF0
FFFE000000000007FFF0
FFFE000000000007FFF0
FFFE000000000007FFF0
FFFE000000000007FFF0
FFFE000000000007FFF0
FFFE000000000007FFF0
FFFE000000000007FFF0
FFFE000000000007FFF0
FFFE000000000007FFF0
FFFE000000000007FFF0
FFFE000000000007FFF0
FFFE000000000007FFF0
FFFE000000000007FFF0
FFFE000000000007FFF0
FFFE000000000007FFF0
FFFE000000000007FFF0
FFFE000000000007FFF0
FFFE000000000007FFF0
FFFE000000000007FFF0
FFFE000000000007FFF0
FFFE000000000007FFF0
FFFE000000000007FFF0
FFFE000000000007FFF0
FFFE000000000007FFF0
FFFE000000000007FFF0
FFFE000000000007FFF0
FFFE000000000007FFF0
FFFE000000000007FFF0
FFFE00000000000FFFF0
FFFE00000000000FFFF0
FFFF00000000000FFFF0
FFFF00000000001FFFE0
FFFF80000000003FFFE0
FFFFC0000000007FFFE0
7FFFF800000001FFFFE0
7FFFFFFFFFFFFFFFFFC0
3FFFFFFFFFFFFFFFFFC0
3FFFFFFFFFFFFFFFFF80
1FFFFFFFFFFFFFFFFF80
1FFFFFFFFFFFFFFFFF00
0FFFFFFFFFFFFFFFFE00
07FFFFFFFFFFFFFFFC00
03FFFFFFFFFFFFFFFC00
01FFFFFFFFFFFFFFF800
00FFFFFFFFFFFFFFF000
007FFFFFFFFFFFFFC000
001FFFFFFFFFFFFF8000
000FFFFFFFFFFFFE0000
0003FFFFFFFFFFF80000
00003FFFFFFFFFC00000
ENDCHAR
STARTCHAR 0070
ENCODING 112
SWIDTH 568 0
DWIDTH 91 0
BBX 76 91 8 -15
BITMAP
0FFFFFFFFFFFFFC00000
1FFFFFFFFFFFFFF80000
3FFFFFFFFFFFFFFE0000
7FFFFFFFFFFFFFFF8000
FFFFFFFFFFFFFFFFC000
FFFFFFFFFFFFFFFFF000
FFFFFFFFFFFFFFFFF800
FFFFFFFFFFFFFFFFFC00
FFFFFFFFFFFFFFFFFE00
FFFFFFFFFFFFFFFFFE00
FFFFFFFFFFFFFFFFFF00
FFFFFFFFFFFFFFFFFF80
FFFFFFFFFFFFFFFFFF80
FFFFFFFFFFFFFFFFFFC0
FFFFFFFFFFFFFFFFFFC0
FFFE0000000001FFFFE0
FFFE00000000007FFFE0
FFFE00000000003FFFE0
FFFE00000000001FFFE0
FFFE00000000000FFFF0
FFFE00000000000FFFF0
FFFE00000000000FFFF0
FFFE000000000007FFF0
FFFE000000000007FFF0
FFFE000000000007FFF0
FFFE000000000007FFF0
FFFE000000000007FFF0
FFFE000000000007FFF0
FFFE000000000007FFF0
FFFE000000000007FFF0
FFFE000000000007FFF0
FFFE000000000007FFF0
FFFE000000000007FFF0
FFFE000000000007FFF0
FFFE000000000007FFF0
FFFE000000000007FFF0
FFFE000000000007FFF0
FFFE000000000007FFF0
FFFE000000000007FFF0
FFFE00000000000FFFF0
FFFE00000000000FFFF0
FFFE00000000000FFFF0
FFFE00000000001FFFE0
FFFE00000000003FFFE0
FFFE00000000007FFFE0
FFFE0000000007FFFFC0
FFFFFFFFFFFFFFFFFFC0
FFFFFFFFFFFFFFFFFFC0
FFFFFFFFFFFFFFFFFF80
FFFFFFFFFFFFFFFFFF80
FFFFFFFFFFFFFFFFFF00
FFFFFFFFFFFFFFFFFE00
FFFFFFFFFFFFFFFFFC00
FFFFFFFFFFFFFFFFF800
FFFFFFFFFFFFFFFFF000
FFFFFFFFFFFFFFFFE000
FFFFFFFFFFFFFFFFC000
FFFFFFFFFFFFFFFF8000
FFFFFFFFFFFFFFFE0000
FFFFFFFFFFFFFFF00000
FFFFFFFFFFFFFF000000
FFFE0000000000000000
FFFE0000000000000000
FFFE0000000000000000
FFFE0000000000000000
FFFE0000000000000000
FFFE0000000000000000
FFFE0000000000000000
FFFE0000000000000000
FFFE0000000000000000
FFFE0000000000000000
FFFE0000000000000000
FFFE0000000000000000
FFFE0000000000000000
FFFE0000000000000000
FFFE0000000000000000
FFFE0000000000000000
FFFE0000000000000000
FFFE0000000000000000
FFFE0000000000000000
FFFE0000000000000000
FFFE0000000000000000
FFFE0000000000000000
FFFE0000000000000000
FFFE0000000000000000
FFFE0000000000000000
FFFC0000000000000000
7FFC0000000000000000
7FF80000000000000000
3FF00000000000000000
0FC00000000000000000
ENDCHAR
STARTCHAR 0071
ENCODING 113
SWIDTH 568 0
DWIDTH 91 0
BBX 76 91 8 -15
BITMAP
00007FFFFFFFFFFFFE00
0003FFFFFFFFFFFFFF80
000FFFFFFFFFFFFFFFC0
003FFFFFFFFFFFFFFFE0
007FFFFFFFFFFFFFFFE0
00FFFFFFFFFFFFFFFFF0
01FFFFFFFFFFFFFFFFF0
03FFFFFFFFFFFFFFFFF0
07FFFFFFFFFFFFFFFFF0
0FFFFFFFFFFFFFFFFFF0
1FFFFFFFFFFFFFFFFFF0
1FFFFFFFFFFFFFFFFFF0
3FFFFFFFFFFFFFFFFFF0
3FFFFFFFFFFFFFFFFFF0
7FFFFFFFFFFFFFFFFFF0
7FFFF00000000007FFF0
FFFFC00000000007FFF0
FFFF800000000007FFF0
FFFF000000000007FFF0
FFFF000000000007FFF0
FFFE000000000007FFF0
FFFE000000000007FFF0
FFFE000000000007FFF0
FFFE000000000007FFF0
FFFE000000000007FFF0
FFFE000000000007FFF0
FFFE000000000007FFF0
FFFE000000000007FFF0
FFFE000000000007FFF0
FFFE000000000007FFF0
FFFE000000000007FFF0
FFFE000000000007FFF0
FFFE000000000007FFF0
FFFE000000000007FFF0
FFFE000000000007FFF0
FFFE000000000007FFF0
FFFE000000000007FFF0
FFFE000000000007FFF0
FFFE000000000007FFF0
FFFE000000000007FFF0
FFFE000000000007FFF0
FFFF000000000007FFF0
FFFF000000000007FFF0
FFFF800000000007FFF0
7FFFE00000000007FFF0
7FFFFC0000000007FFF0
7FFFFFFFFFFFFFFFFFF0
3FFFFFFFFFFFFFFFFFF0
3FFFFFFFFFFFFFFFFFF0
1FFFFFFFFFFFFFFFFFF0
0FFFFFFFFFFFFFFFFFF0
0FFFFFFFFFFFFFFFFFF0
07FFFFFFFFFFFFFFFFF0
03FFFFFFFFFFFFFFFFF0
01FFFFFFFFFFFFFFFFF0
00FFFFFFFFFFFFFFFFF0
007FFFFFFFFFFFFFFFF0
001FFFFFFFFFFFFFFFF0
0007FFFFFFFFFFFFFFF0
0001FFFFFFFFFFFFFFF0
00000FFFFFFFFFFFFFF0
0000000000000007FFF0
0000000000000007FFF0
0000000000000007FFF0
0000000000000007FFF0
0000000000000007FFF0
0000000000000007FFF0
0000000000000007FFF0
0000000000000007FFF0
0000000000000007FFF0
0000000000000007FFF0
0000000000000007FFF0
0000000000000007FFF0
0000000000000007FFF0
0000000000000007FFF0
0000000000000007FFF0
0000000000000007FFF0
0000000000000007FFF0
0000000000000007FFF0
0000000000000007FFF0
0000000000000007FFF0
0000000000000007FFF0
0000000000000007FFF0
0000000000000007FFF0
0000000000000007FFF0
0000000000000007FFF0
0000000000000007FFE0
0000000000000003FFE0
0000000000000003FFC0
0000000000000001FF80
00000000000000007F00
ENDCHAR
STARTCHAR 0072
ENCODING 114
SWIDTH 568 0
DWIDTH 91 0
BBX 61 76 23 1
BITMAP
0FFFFFFFFFE00000
1FFFFFFFFFFC0000
3FFFFFFFFFFF0000
7FFFFFFFFFFFC000
FFFFFFFFFFFFE000
FFFFFFFFFFFFF800
FFFFFFFFFFFFFC00
FFFFFFFFFFFFFE00
FFFFFFFFFFFFFF00
FFFFFFFFFFFFFF00
FFFFFFFFFFFFFF80
FFFFFFFFFFFFFFC0
FFFFFFFFFFFFFFC0
FFFFFFFFFFFFFFE0
FFFFFFFFFFFFFFE0
FFFE000000FFFFF0
FFFE0000003FFFF0
FFFE0000001FFFF0
FFFE0000000FFFF0
FFFE00000007FFF8
FFFE00000007FFF8
FFFE00000007FFF8
FFFE00000003FFF8
FFFE00000003FFF8
FFFE00000003FFF8
FFFE00000003FFF0
FFFE00000001FFF0
FFFE00000001FFE0
FFFE00000000FFC0
FFFE000000003F00
FFFE000000000000
FFFE000000000000
FFFE000000000000
FFFE000000000000
FFFE000000000000
FFFE000000000000
FFFE000000000000
FFFE000000000000
FFFE000000000000
FFFE000000000000
FFFE000000000000
FFFE000000000000
FFFE000000000000
FFFE000000000000
FFFE000000000000
FFFE000000000000
FFFE000000000000
FFFE000000000000
FFFE000000000000
FFFE000000000000
FFFE000000000000
FFFE000000000000
FFFE000000000000
FFFE000000000000
FFFE000000000000
FFFE000000000000
FFFE000000000000
FFFE000000000000
FFFE000000000000
FFFE000000000000
FFFE000000000000
FFFE000000000000
FFFE000000000000
FFFE000000000000
FFFE000000000000
FFFE000000000000
FFFE000000000000
FFFE000000000000
FFFE000000000000
FFFE000000000000
FFFE000000000000
7FFC000000000000
7FFC000000000000
3FF8000000000000
1FF0000000000000
07C0000000000000
ENDCHAR
STARTCHAR 0073
ENCODING 115
SWIDTH 568 0
DWIDTH 91 0
BBX 76 76 8 1
BITMAP
00007FFFFFFFFFFFFE00
0003FFFFFFFFFFFFFF80
000FFFFFFFFFFFFFFFC0
003FFFFFFFFFFFFFFFE0
007FFFFFFFFFFFFFFFE0
00FFFFFFFFFFFFFFFFF0
01FFFFFFFFFFFFFFFFF0
03FFFFFFFFFFFFFFFFF0
07FFFFFFFFFFFFFFFFF0
0FFFFFFFFFFFFFFFFFF0
1FFFFFFFFFFFFFFFFFE0
1FFFFFFFFFFFFFFFFFE0
3FFFFFFFFFFFFFFFFFC0
3FFFFFFFFFFFFFFFFF80
7FFFFFFFFFFFFFFFFE00
7FFFF000000000000000
FFFFC000000000000000
FFFF8000000000000000
FFFF0000000000000000
FFFF0000000000000000
FFFE0000000000000000
FFFE0000000000000000
FFFE0000000000000000
FFFE0000000000000000
FFFE0000000000000000
FFFE0000000000000000
FFFF0000000000000000
FFFF8000000000000000
FFFFC000000000000000
7FFFE000000000000000
7FFFFFFFFFFFFE000000
7FFFFFFFFFFFFFF00000
3FFFFFFFFFFFFFFE0000
3FFFFFFFFFFFFFFF0000
1FFFFFFFFFFFFFFFC000
0FFFFFFFFFFFFFFFE000
0FFFFFFFFFFFFFFFF000
07FFFFFFFFFFFFFFF800
03FFFFFFFFFFFFFFFC00
01FFFFFFFFFFFFFFFE00
00FFFFFFFFFFFFFFFF00
003FFFFFFFFFFFFFFF00
001FFFFFFFFFFFFFFF80
0007FFFFFFFFFFFFFFC0
0000FFFFFFFFFFFFFFC0
000003FFFFFFFFFFFFC0
00000000000000FFFFE0
000000000000003FFFE0
000000000000001FFFE0
000000000000000FFFE0
000000000000000FFFF0
000000000000000FFFF0
0000000000000007FFF0
0000000000000007FFF0
000000000000000FFFF0
000000000000000FFFF0
000000000000000FFFF0
000000000000001FFFE0
000000000000003FFFE0
000000000000007FFFE0
00000000000001FFFFE0
0FFFFFFFFFFFFFFFFFC0
3FFFFFFFFFFFFFFFFFC0
7FFFFFFFFFFFFFFFFF80
7FFFFFFFFFFFFFFFFF80
FFFFFFFFFFFFFFFFFF00
FFFFFFFFFFFFFFFFFE00
FFFFFFFFFFFFFFFFFC00
FFFFFFFFFFFFFFFFFC00
FFFFFFFFFFFFFFFFF800
FFFFFFFFFFFFFFFFF000
FFFFFFFFFFFFFFFFC000
7FFFFFFFFFFFFFFF8000
3FFFFFFFFFFFFFFE0000
1FFFFFFFFFFFFFF80000
07FFFFFFFFFFFFC00000
ENDCHAR
STARTCHAR 0074
ENCODING 116
SWIDTH 568 0
DWIDTH 91 0
BBX 61 107 23 0
BITMAP
0000070000000000
00001FE000000000
00007FF000000000
00007FF800000000
0000FFF800000000
0001FFFC00000000
0001FFFC00000000
0001FFFC00000000
0001FFFC00000000
0001FFFC00000000
0001FFFC00000000
0001FFFC00000000
0001FFFC00000000
0001FFFC00000000
0001FFFC00000000
0001FFFC00000000
0001FFFC00000000
0001FFFC00000000
0001FFFC00000000
0001FFFC00000000
0001FFFC00000000
0001FFFC00000000
0001FFFC00000000
0001FFFC00000000
0001FFFC00000000
0001FFFC00000000
0001FFFC00000000
0001FFFC00000000
0001FFFC00000000
0001FFFC00000000
0001FFFC00000000
0FFFFFFFFFFFFF00
1FFFFFFFFFFFFFC0
3FFFFFFFFFFFFFE0
7FFFFFFFFFFFFFF0
FFFFFFFFFFFFFFF0
FFFFFFFFFFFFFFF8
FFFFFFFFFFFFFFF8
FFFFFFFFFFFFFFF8
FFFFFFFFFFFFFFF8
FFFFFFFFFFFFFFF8
7FFFFFFFFFFFFFF0
7FFFFFFFFFFFFFF0
3FFFFFFFFFFFFFE0
1FFFFFFFFFFFFFC0
07FFFFFFFFFFFF00
0001FFFC00000000
0001FFFC00000000
0001FFFC00000000
0001FFFC00000000
0001FFFC00000000
0001FFFC00000000
0001FFFC00000000
0001FFFC00000000
0001FFFC00000000
0001FFFC00000000
0001FFFC00000000
0001FFFC00000000
0001FFFC00000000
0001FFFC00000000
0001FFFC00000000
0001FFFC00000000
0001FFFC00000000
0001FFFC00000000
0001FFFC00000000
0001FFFC00000000
0001FFFC00000000
0001FFFC00000000
0001FFFC00000000
0001FFFC00000000
0001FFFC00000000
0001FFFC00000000
0001FFFC00000000
0001FFFC00000000
0001FFFC00000000
0001FFFC00000000
0001FFFC00000000
0001FFFC00000000
0001FFFC00000000
0001FFFC00000000
0001FFFC00000000
0001FFFC00000000
0001FFFC00000000
0001FFFC00000000
0001FFFC00000000
0001FFFC00000000
0001FFFE00000000
0001FFFE00000000
0001FFFF00000000
0000FFFF80000000
0000FFFFC0000000
0000FFFFF0000000
00007FFFFFFFFF00
00007FFFFFFFFFC0
00003FFFFFFFFFE0
00003FFFFFFFFFF0
00001FFFFFFFFFF0
00000FFFFFFFFFF8
00000FFFFFFFFFF8
000007FFFFFFFFF8
000003FFFFFFFFF8
000001FFFFFFFFF8
0000007FFFFFFFF0
0000003FFFFFFFF0
0000000FFFFFFFE0
00000003FFFFFFC0
000000007FFFFF00
ENDCHAR
STARTCHAR 0075
ENCODING 117
SWIDTH 568 0
DWIDTH 91 0
BBX 76 76 8 1
BITMAP
0FC00000000000007E00
1FF0000000000000FF80
3FF8000000000003FFC0
7FFC000000000003FFE0
FFFC000000000007FFE0
FFFE000000000007FFF0
FFFE000000000007FFF0
FFFE000000000007FFF0
FFFE000000000007FFF0
FFFE000000000007FFF0
FFFE000000000007FFF0
FFFE000000000007FFF0
FFFE000000000007FFF0
FFFE000000000007FFF0
FFFE000000000007FFF0
FFFE000000000007FFF0
FFFE000000000007FFF0
FFFE000000000007FFF0
FFFE000000000007FFF0
FFFE000000000007FFF0
FFFE000000000007FFF0
FFFE000000000007FFF0
FFFE000000000007FFF0
FFFE000000000007FFF0
FFFE000000000007FFF0
FFFE000000000007FFF0
FFFE000000000007FFF0
FFFE000000000007FFF0
FFFE000000000007FFF0
FFFE000000000007FFF0
FFFE000000000007FFF0
FFFE000000000007FFF0
FFFE000000000007FFF0
FFFE000000000007FFF0
FFFE000000000007FFF0
FFFE000000000007FFF0
FFFE000000000007FFF0
FFFE000000000007FFF0
FFFE000000000007FFF0
FFFE000000000007FFF0
FFFE000000000007FFF0
FFFE000000000007FFF0
FFFE000000000007FFF0
FFFE000000000007FFF0
FFFE000000000007FFF0
FFFE000000000007FFF0
FFFE000000000007FFF0
FFFE000000000007FFF0
FFFE000000000007FFF0
FFFE000000000007FFF0
FFFE000000000007FFF0
FFFE000000000007FFF0
FFFE000000000007FFF0
FFFE000000000007FFF0
FFFE000000000007FFF0
FFFE000000000007FFF0
FFFF000000000007FFF0
FFFF000000000007FFF0
FFFF800000000007FFF0
FFFFC00000000007FFF0
7FFFF80000000007FFF0
7FFFFFFFFFFFFFFFFFF0
3FFFFFFFFFFFFFFFFFF0
3FFFFFFFFFFFFFFFFFF0
1FFFFFFFFFFFFFFFFFF0
1FFFFFFFFFFFFFFFFFF0
0FFFFFFFFFFFFFFFFFF0
07FFFFFFFFFFFFFFFFF0
03FFFFFFFFFFFFFFFFF0
01FFFFFFFFFFFFFFFFF0
00FFFFFFFFFFFFFFFFF0
007FFFFFFFFFFFFFFFE0
001FFFFFFFFFFFFFFFE0
000FFFFFFFFFFFFFFFC0
0003FFFFFFFFFFFFFF80
00003FFFFFFFFFFFFE00
ENDCHAR
STARTCHAR 0076
ENCODING 118
SWIDTH 568 0
DWIDTH 91 0
BBX 76 76 8 1
BITMAP
0FC00000000000007E00
1FF0000000000000FF80
3FF8000000000003FFC0
7FFC000000000003FFE0
FFFC000000000007FFE0
FFFE000000000007FFF0
FFFE000000000007FFF0
FFFE000000000007FFF0
FFFE000000000007FFF0
FFFE000000000007FFF0
FFFE000000000007FFF0
FFFE000000000007FFF0
FFFE000000000007FFF0
FFFE000000000007FFF0
FFFE000000000007FFF0
FFFE000000000007FFF0
FFFE000000000007FFF0
FFFE000000000007FFF0
FFFE000000000007FFF0
FFFE000000000007FFF0
FFFE000000000007FFF0
FFFE000000000007FFF0
FFFE000000000007FFF0
FFFE000000000007FFF0
FFFE000000000007FFF0
FFFE000000000007FFF0
FFFE000000000007FFF0
FFFE000000000007FFF0
FFFE000000000007FFF0
FFFE000000000007FFF0
FFFE000000000007FFF0
FFFF00000000000FFFF0
FFFF80000000001FFFF0
FFFFC0000000003FFFF0
FFFFE0000000007FFFF0
FFFFF000000000FFFFF0
FFFFF800000001FFFFF0
FFFFFC00000003FFFFF0
FFFFFE00000007FFFFF0
FFFFFF0000000FFFFFF0
FFFFFF8000001FFFFFE0
7FFFFFC000003FFFFFE0
7FFFFFE000007FFFFFC0
3FFFFFF00000FFFFFF80
1FFFFFF80001FFFFFF00
0FFFFFFC0003FFFFFE00
07FFFFFE0007FFFFFC00
03FFFFFF000FFFFFF800
01FFFFFF801FFFFFF000
00FFFFFFC03FFFFFE000
007FFFFFE07FFFFFC000
003FFFFFF0FFFFFF8000
001FFFFFF9FFFFFF0000
000FFFFFFFFFFFFE0000
0007FFFFFFFFFFFC0000
0003FFFFFFFFFFF80000
0001FFFFFFFFFFF00000
0000FFFFFFFFFFE00000
00007FFFFFFFFFC00000
00003FFFFFFFFF800000
00001FFFFFFFFF000000
00000FFFFFFFFE000000
000007FFFFFFFC000000
000003FFFFFFF8000000
000001FFFFFFF0000000
000000FFFFFFE0000000
0000007FFFFFC0000000
0000003FFFFF80000000
0000001FFFFF00000000
0000000FFFFE00000000
00000007FFFC00000000
00000003FFF800000000
00000001FFF000000000
00000000FFE000000000
000000007FC000000000
000000001F0000000000
ENDCHAR
STARTCHAR 0077
ENCODING 119
SWIDTH 568 0
DWIDTH 91 0
BBX 76 76 8 1
BITMAP
0FC00000000000007E00
1FF0000000000000FF80
3FF8000000000003FFC0
7FFC000000000003FFE0
FFFC000000000007FFE0
FFFE000000000007FFF0
FFFE000000000007FFF0
FFFE000000000007FFF0
FFFE000000000007FFF0
FFFE000000000007FFF0
FFFE000000000007FFF0
FFFE000000000007FFF0
FFFE000000000007FFF0
FFFE000000000007FFF0
FFFE000000000007FFF0
FFFE00001F000007FFF0
FFFE00007FC00007FFF0
FFFE0000FFE00007FFF0
FFFE0001FFF00007FFF0
FFFE0001FFF80007FFF0
FFFE0003FFF80007FFF0
FFFE0003FFF80007FFF0
FFFE0003FFF80007FFF0
FFFE0003FFF80007FFF0
FFFE0003FFF80007FFF0
FFFE0003FFF80007FFF0
FFFE0003FFF80007FFF0
FFFE0003FFF80007FFF0
FFFE0003FFF80007FFF0
FFFE0003FFF80007FFF0
FFFE0003FFF80007FFF0
FFFE0003FFF80007FFF0
FFFE0003FFF80007FFF0
FFFE0003FFF80007FFF0
FFFE0003FFF80007FFF0
FFFE0003FFF80007FFF0
FFFE0003FFF80007FFF0
FFFE0003FFF80007FFF0
FFFE0003FFF80007FFF0
FFFE0003FFF80007FFF0
FFFE0003FFF80007FFF0
FFFE0003FFF80007FFF0
FFFE0003FFF80007FFF0
FFFE0003FFF80007FFF0
FFFE0003FFF80007FFF0
FFFE0003FFF80007FFF0
FFFE0003FFF80007FFF0
FFFE0003FFF80007FFF0
FFFE0003FFF80007FFF0
FFFE0003FFF80007FFF0
FFFE0003FFF80007FFF0
FFFE0003FFF80007FFF0
FFFE0003FFF80007FFF0
FFFE0003FFF80007FFF0
FFFE0003FFF8000FFFF0
FFFE0003FFFC000FFFF0
FFFF0007FFFC000FFFF0
FFFF0007FFFE001FFFE0
FFFF800FFFFF003FFFE0
FFFFC01FFFFF807FFFE0
7FFFF8FFFFFFE1FFFFE0
7FFFFFFFFFFFFFFFFFC0
3FFFFFFFFFFFFFFFFFC0
3FFFFFFFFFFFFFFFFF80
1FFFFFFFFFFFFFFFFF80
1FFFFFFFFFFFFFFFFF00
0FFFFFFFFFFFFFFFFE00
07FFFFFFFFFFFFFFFC00
03FFFFFFFFFFFFFFFC00
01FFFFFFFFFFFFFFF800
00FFFFFFF3FFFFFFF000
007FFFFFE0FFFFFFC000
001FFFFFC07FFFFF8000
000FFFFF001FFFFE0000
0003FFFC0007FFF80000
00003FE00000FFC00000
ENDCHAR
STARTCHAR 0078
ENCODING 120
SWIDTH 568 0
DWIDTH 91 0
BBX 76 76 8 1
BITMAP
0FC00000000000007E00
1FF0000000000000FF80
3FF8000000000003FFC0
7FFC000000000007FFE0
FFFE00000000000FFFE0
FFFF00000000001FFFF0
FFFF80000000003FFFF0
FFFFC0000000007FFFF0
FFFFE000000000FFFFF0
FFFFF000000001FFFFF0
FFFFF800000003FFFFE0
7FFFFC00000007FFFFE0
3FFFFE0000000FFFFFC0
1FFFFF0000001FFFFF80
0FFFFF8000003FFFFF00
07FFFFC000007FFFFE00
03FFFFE00000FFFFFC00
01FFFFF00001FFFFF800
00FFFFF80003FFFFF000
007FFFFC0007FFFFE000
003FFFFE000FFFFFC000
001FFFFF001FFFFF8000
000FFFFF803FFFFF0000
0007FFFFC07FFFFE0000
0003FFFFE0FFFFFC0000
0001FFFFF1FFFFF80000
0001FFFFFBFFFFF00000
0000FFFFFFFFFFE00000
00007FFFFFFFFFC00000
00003FFFFFFFFF800000
00001FFFFFFFFF000000
00000FFFFFFFFE000000
000007FFFFFFFC000000
000003FFFFFFF8000000
000001FFFFFFF0000000
000000FFFFFFE0000000
0000007FFFFFC0000000
0000003FFFFF80000000
0000003FFFFF80000000
0000007FFFFFC0000000
000000FFFFFFE0000000
000001FFFFFFF0000000
000003FFFFFFF8000000
000007FFFFFFFC000000
00000FFFFFFFFE000000
00001FFFFFFFFF000000
00003FFFFFFFFF800000
00007FFFFFFFFFC00000
0000FFFFFFFFFFE00000
0001FFFFF9FFFFF00000
0003FFFFF0FFFFF80000
0007FFFFE07FFFFC0000
000FFFFFC03FFFFE0000
001FFFFF801FFFFF0000
003FFFFF000FFFFF8000
007FFFFE0007FFFFC000
00FFFFFC0003FFFFE000
01FFFFF80001FFFFF000
03FFFFF00000FFFFF800
07FFFFE000007FFFFC00
0FFFFFC000003FFFFE00
1FFFFF8000001FFFFF00
3FFFFF0000000FFFFF80
7FFFFE00000007FFFFC0
7FFFFC00000003FFFFE0
FFFFF800000001FFFFE0
FFFFF000000000FFFFF0
FFFFE0000000007FFFF0
FFFFC0000000003FFFF0
FFFF80000000001FFFF0
FFFF00000000000FFFF0
FFFE000000000007FFE0
7FFC000000000003FFE0
3FF8000000000001FFC0
1FF0000000000000FF80
07C00000000000003E00
ENDCHAR
STARTCHAR 0079
ENCODING 121
SWIDTH 568 0
DWIDTH 91 0
BBX 76 91 8 -15
BITMAP
0FC00000000000007E00
1FF0000000000000FF80
3FF8000000000003FFC0
7FFC000000000003FFE0
FFFC000000000007FFE0
FFFE000000000007FFF0
FFFE000000000007FFF0
FFFE000000000007FFF0
FFFE000000000007FFF0
FFFE000000000007FFF0
FFFE000000000007FFF0
FFFE000000000007FFF0
FFFE000000000007FFF0
FFFE000000000007FFF0
FFFE000000000007FFF0
FFFE000000000007FFF0
FFFE000000000007FFF0
FFFE000000000007FFF0
FFFE000000000007FFF0
FFFE000000000007FFF0
FFFE000000000007FFF0
FFFE000000000007FFF0
FFFE000000000007FFF0
FFFE000000000007FFF0
FFFE000000000007FFF0
FFFE000000000007FFF0
FFFE000000000007FFF0
FFFE000000000007FFF0
FFFE000000000007FFF0
FFFE000000000007FFF0
FFFE000000000007FFF0
FFFE000000000007FFF0
FFFE000000000007FFF0
FFFE000000000007FFF0
FFFE000000000007FFF0
FFFE000000000007FFF0
FFFE000000000007FFF0
FFFE000000000007FFF0
FFFE000000000007FFF0
FFFE000000000007FFF0
FFFE000000000007FFF0
FFFF000000000007FFF0
FFFF000000000007FFF0
FFFF800000000007FFF0
7FFFE00000000007FFF0
7FFFFC0000000007FFF0
7FFFFFFFFFFFFFFFFFF0
3FFFFFFFFFFFFFFFFFF0
3FFFFFFFFFFFFFFFFFF0
1FFFFFFFFFFFFFFFFFF0
0FFFFFFFFFFFFFFFFFF0
0FFFFFFFFFFFFFFFFFF0
07FFFFFFFFFFFFFFFFF0
03FFFFFFFFFFFFFFFFF0
01FFFFFFFFFFFFFFFFF0
00FFFFFFFFFFFFFFFFF0
007FFFFFFFFFFFFFFFF0
001FFFFFFFFFFFFFFFF0
0007FFFFFFFFFFFFFFF0
0001FFFFFFFFFFFFFFF0
00000FFFFFFFFFFFFFF0
0000000000000007FFF0
0000000000000007FFF0
0000000000000007FFF0
0000000000000007FFF0
0000000000000007FFF0
0000000000000007FFF0
0000000000000007FFF0
0000000000000007FFF0
000000000000000FFFF0
000000000000000FFFF0
000000000000000FFFF0
000000000000001FFFE0
000000000000003FFFE0
000000000000007FFFE0
00000000000000FFFFE0
00000FFFFFFFFFFFFFC0
00003FFFFFFFFFFFFFC0
00007FFFFFFFFFFFFF80
0000FFFFFFFFFFFFFF80
0000FFFFFFFFFFFFFF00
0001FFFFFFFFFFFFFE00
0001FFFFFFFFFFFFFE00
0001FFFFFFFFFFFFFC00
0001FFFFFFFFFFFFF800
0001FFFFFFFFFFFFF000
0001FFFFFFFFFFFFE000
0000FFFFFFFFFFFF8000
00007FFFFFFFFFFF0000
00003FFFFFFFFFFC0000
00001FFFFFFFFFE00000
ENDCHAR
STARTCHAR 007A
ENCODING 122
SWIDTH 568 0
DWIDTH 91 0
BBX 76 76 8 1
BITMAP
0FFFFFFFFFFFFFFFFE00
1FFFFFFFFFFFFFFFFF80
3FFFFFFFFFFFFFFFFFC0
7FFFFFFFFFFFFFFFFFE0
FFFFFFFFFFFFFFFFFFE0
FFFFFFFFFFFFFFFFFFF0
FFFFFFFFFFFFFFFFFFF0
FFFFFFFFFFFFFFFFFFF0
FFFFFFFFFFFFFFFFFFF0
FFFFFFFFFFFFFFFFFFF0
FFFFFFFFFFFFFFFFFFE0
7FFFFFFFFFFFFFFFFFE0
3FFFFFFFFFFFFFFFFFC0
1FFFFFFFFFFFFFFFFF80
0FFFFFFFFFFFFFFFFF00
0000000000007FFFFE00
000000000000FFFFFC00
000000000001FFFFF800
000000000003FFFFF000
000000000007FFFFE000
00000000000FFFFFC000
00000000001FFFFF8000
00000000003FFFFF0000
00000000007FFFFE0000
0000000000FFFFFC0000
0000000001FFFFF80000
0000000003FFFFF00000
0000000007FFFFE00000
000000000FFFFFC00000
000000001FFFFF800000
000000003FFFFF000000
000000007FFFFE000000
00000000FFFFFC000000
00000001FFFFF8000000
00000003FFFFF0000000
00000007FFFFE0000000
0000000FFFFFC0000000
0000001FFFFF80000000
0000003FFFFF00000000
0000007FFFFE00000000
000000FFFFFC00000000
000001FFFFF800000000
000003FFFFF000000000
000007FFFFE000000000
00000FFFFFC000000000
00001FFFFF8000000000
00003FFFFF0000000000
00007FFFFE0000000000
0000FFFFFC0000000000
0001FFFFF80000000000
0003FFFFF00000000000
0007FFFFE00000000000
000FFFFFC00000000000
001FFFFF800000000000
003FFFFF000000000000
007FFFFE000000000000
00FFFFFC000000000000
01FFFFF8000000000000
03FFFFF0000000000000
07FFFFE0000000000000
0FFFFFC0000000000000
1FFFFFFFFFFFFFFFFE00
3FFFFFFFFFFFFFFFFF80
7FFFFFFFFFFFFFFFFFC0
7FFFFFFFFFFFFFFFFFE0
FFFFFFFFFFFFFFFFFFE0
FFFFFFFFFFFFFFFFFFF0
FFFFFFFFFFFFFFFFFFF0
FFFFFFFFFFFFFFFFFFF0
FFFFFFFFFFFFFFFFFFF0
FFFFFFFFFFFFFFFFFFF0
FFFFFFFFFFFFFFFFFFE0
7FFFFFFFFFFFFFFFFFE0
3FFFFFFFFFFFFFFFFFC0
1FFFFFFFFFFFFFFFFF80
07FFFFFFFFFFFFFFFE00
ENDCHAR
STARTCHAR 007B
ENCODING 123
SWIDTH 568 0
DWIDTH 91 0
BBX 46 107 23 0
BITMAP
038000000000
0FFE00000000
3FFF80000000
7FFFE0000000
7FFFF0000000
FFFFFC000000
FFFFFE000000
FFFFFF000000
FFFFFF800000
FFFFFF800000
FFFFFFC00000
7FFFFFE00000
7FFFFFF00000
3FFFFFF00000
0FFFFFF80000
01FFFFF80000
001FFFF80000
000FFFFC0000
0007FFFC0000
0003FFFC0000
0001FFFC0000
0001FFFC0000
0001FFFC0000
0001FFFC0000
0001FFFC0000
0001FFFC0000
0001FFFC0000
0001FFFC0000
0001FFFC0000
0001FFFC0000
0001FFFC0000
0001FFFC0000
0001FFFC0000
0001FFFC0000
0001FFFC0000
0001FFFC0000
0001FFFC0000
0001FFFC0000
0001FFFC0000
0001FFFC0000
0001FFFE0000
0001FFFE0000
0001FFFF0000
0000FFFF0000
0000FFFF8000
0000FFFFE000
00007FFFFF00
00007FFFFFC0
00007FFFFFE0
00003FFFFFF0
00001FFFFFF8
00001FFFFFF8
00000FFFFFF8
000007FFFFFC
000003FFFFFC
000007FFFFF8
00000FFFFFF8
00001FFFFFF0
00003FFFFFF0
00007FFFFFE0
00007FFFFF80
0000FFFFF000
0000FFFFC000
0000FFFF8000
0000FFFF0000
0001FFFE0000
0001FFFE0000
0001FFFC0000
0001FFFC0000
0001FFFC0000
0001FFFC0000
0001FFFC0000
0001FFFC0000
0001FFFC0000
0001FFFC0000
0001FFFC0000
0001FFFC0000
0001FFFC0000
0001FFFC0000
0001FFFC0000
0001FFFC0000
0001FFFC0000
0001FFFC0000
0001FFFC0000
0001FFFC0000
0001FFFC0000
0001FFFC0000
0003FFFC0000
0003FFFC0000
0007FFFC0000
000FFFF80000
007FFFF80000
0FFFFFF80000
1FFFFFF00000
3FFFFFF00000
7FFFFFE00000
FFFFFFE00000
FFFFFFC00000
FFFFFF800000
FFFFFF000000
FFFFFE000000
FFFFFC000000
7FFFF8000000
7FFFE0000000
3FFFC0000000
1FFF00000000
07F000000000
ENDCHAR
STARTCHAR 007C
ENCODING 124
SWIDTH 568 0
DWIDTH 91 0
BBX 15 107 38 0
BITMAP
0380
0FF0
3FF8
3FFC
7FFC
FFFE
FFFE
FFFE
FFFE
FFFE
FFFE
FFFE
FFFE
FFFE
FFFE
FFFE
FFFE
FFFE
FFFE
FFFE
FFFE
FFFE
FFFE
FFFE
FFFE
FFFE
FFFE
FFFE
FFFE
FFFE
FFFE
FFFE
FFFE
FFFE
FFFE
FFFE
FFFE
FFFE
FFFE
FFFE
FFFE
FFFE
FFFE
FFFE
FFFE
FFFE
FFFE
FFFE
FFFE
FFFE
FFFE
FFFE
FFFE
FFFE
FFFE
FFFE
FFFE
FFFE
FFFE
FFFE
FFFE
FFFE
FFFE
FFFE
FFFE
FFFE
FFFE
FFFE
FFFE
FFFE
FFFE
FFFE
FFFE
FFFE
FFFE
FFFE
FFFE
FFFE
FFFE
FFFE
FFFE
FFFE
FFFE
FFFE
FFFE
FFFE
FFFE
FFFE
FFFE
FFFE
FFFE
FFFE
FFFE
FFFE
FFFE
FFFE
FFFE
FFFE
FFFE
FFFE
FFFE
FFFE
7FFE
7FFC
3FF8
1FF0
07C0
ENDCHAR
STARTCHAR 007D
ENCODING 125
SWIDTH 568 0
DWIDTH 91 0
BBX 46 107 23 0
BITMAP
000000000E00
00000001FFC0
0000000FFFE0
0000001FFFF0
0000007FFFF8
000000FFFFF8
000001FFFFF8
000003FFFFFC
000007FFFFFC
00000FFFFFF8
00001FFFFFF8
00003FFFFFF8
00003FFFFFF0
00007FFFFFE0
00007FFFFFC0
0000FFFFFE00
0000FFFFC000
0000FFFF8000
0000FFFF0000
0001FFFE0000
0001FFFE0000
0001FFFE0000
0001FFFC0000
0001FFFC0000
0001FFFC0000
0001FFFC0000
0001FFFC0000
0001FFFC0000
0001FFFC0000
0001FFFC0000
0001FFFC0000
0001FFFC0000
0001FFFC0000
0001FFFC0000
0001FFFC0000
0001FFFC0000
0001FFFC0000
0001FFFC0000
0001FFFC0000
0001FFFC0000
0001FFFC0000
0003FFFC0000
0003FFFC0000
0007FFFC0000
000FFFF80000
003FFFF80000
07FFFFF80000
1FFFFFF00000
3FFFFFF00000
7FFFFFE00000
7FFFFFE00000
FFFFFFC00000
FFFFFF800000
FFFFFF000000
FFFFFF000000
FFFFFF800000
FFFFFFC00000
7FFFFFE00000
3FFFFFE00000
1FFFFFF00000
0FFFFFF00000
007FFFF80000
001FFFF80000
0007FFFC0000
0003FFFC0000
0003FFFC0000
0001FFFC0000
0001FFFC0000
0001FFFC0000
0001FFFC0000
0001FFFC0000
0001FFFC0000
0001FFFC0000
0001FFFC0000
0001FFFC0000
0001FFFC0000
0001FFFC0000
0001FFFC0000
0001FFFC0000
0001FFFC0000
0001FFFC0000
0001FFFC0000
0001FFFC0000
0001FFFC0000
0001FFFC0000
0001FFFC0000
0001FFFE0000
0001FFFE0000
0001FFFF0000
0000FFFF8000
0000FFFFC000
0000FFFFF000
00007FFFFF80
00007FFFFFE0
00003FFFFFF0
00003FFFFFF0
00001FFFFFF8
00000FFFFFF8
00000FFFFFFC
000007FFFFFC
000003FFFFFC
000001FFFFF8
0000007FFFF8
0000003FFFF0
0000000FFFF0
00000003FFC0
000000007F80
ENDCHAR
STARTCHAR 007E
ENCODING 126
SWIDTH 568 0
DWIDTH 91 0
BBX 76 46 8 60
BITMAP
00000700000000000000
0001FFFC000000000000
0007FFFF000000000000
001FFFFFC00000000000
003FFFFFE00000000000
00FFFFFFF80000000000
01FFFFFFFC0000000000
03FFFFFFFE0000000000
07FFFFFFFF0000000000
07FFFFFFFF0000000000
0FFFFFFFFF8000000000
1FFFFFFFFFC000000000
3FFFFFFFFFE000000000
3FFFFFFFFFE000000000
7FFFFFFFFFF000000000
7FFFFFFFFFF000000000
7FFFE03FFFF000007F00
FFFFC01FFFF80001FF80
FFFF800FFFF80003FFC0
FFFF0007FFF80003FFE0
FFFE0003FFF80007FFE0
FFFE0003FFF80007FFF0
FFFE0003FFF80007FFF0
FFFE0003FFF80007FFF0
FFFE0003FFF8000FFFF0
FFFC0003FFFC000FFFF0
FFFC0003FFFC000FFFF0
7FF80003FFFE001FFFE0
3FF80001FFFF003FFFE0
1FE00001FFFF807FFFE0
07800001FFFFE1FFFFE0
00000000FFFFFFFFFFC0
00000000FFFFFFFFFFC0
000000007FFFFFFFFF80
000000007FFFFFFFFF80
000000003FFFFFFFFF00
000000001FFFFFFFFE00
000000001FFFFFFFFE00
000000000FFFFFFFFC00
0000000007FFFFFFF800
0000000003FFFFFFF000
0000000000FFFFFFC000
00000000007FFFFF8000
00000000001FFFFE0000
000000000007FFF80000
000000000000FFC00000
ENDCHAR
STARTCHAR 007F
ENCODING 127
SWIDTH 568 0
DWIDTH 91 0
BBX 76 107 8 0
BITMAP
03FFFFFFFFFFFFFFFC00
1FFFFFFFFFFFFFFFFF00
3FFFFFFFFFFFFFFFFF80
7FFFFFFFFFFFFFFFFFC0
FFFFFFFFFFFFFFFFFFE0
FFFFFFFFFFFFFFFFFFE0
FFFFFFFFFFFFFFFFFFF0
FFFFFFFFFFFFFFFFFFF0
FFFFFFFFFFFFFFFFFFF0
FFFFFFFFFFFFFFFFFFF0
FFFFFFFFFFFFFFFFFFF0
FFFFFFFFFFFFFFFFFFF0
FFFFFFFFFFFFFFFFFFF0
FFFFFFFFFFFFFFFFFFF0
FFFFFFFFFFFFFFFFFFF0
FFFFFFFFFFFFFFFFFFF0
FFFFFFFFFFFFFFFFFFF0
FFFFFFFFFFFFFFFFFFF0
FFFFFFFFFFFFFFFFFFF0
FFFFFFFFFFFFFFFFFFF0
FFFFFFFFFFFFFFFFFFF0
FFFFFFFFFFFFFFFFFFF0
FFFFFFFFFFFFFFFFFFF0
FFFFFFFFFFFFFFFFFFF0
FFFFFFFFFFFFFFFFFFF0
FFFFFFFFFFFFFFFFFFF0
FFFFFFFFFFFFFFFFFFF0
FFFFFFFFFFFFFFFFFFF0
FFFFFFFFFFFFFFFFFFF0
FFFFFFFFFFFFFFFFFFF0
FFFFFFFFFFFFFFFFFFF0
FFFFFFFFFFFFFFFFFFF0
FFFFFFFFFFFFFFFFFFF0
FFFFFFFFFFFFFFFFFFF0
FFFFFFFFFFFFFFFFFFF0
FFFFFFFFFFFFFFFFFFF0
FFFFFFFFFFFFFFFFFFF0
FFFFFFFFFFFFFFFFFFF0
FFFFFFFFFFFFFFFFFFF0
FFFFFFFFFFFFFFFFFFF0
FFFFFFFFFFFFFFFFFFF0
FFFFFFFFFFFFFFFFFFF0
FFFFFFFFFFFFFFFFFFF0
FFFFFFFFFFFFFFFFFFF0
FFFFFFFFFFFFFFFFFFF0
FFFFFFFFFFFFFFFFFFF0
FFFFFFFFFFFFFFFFFFF0
FFFFFFFFFFFFFFFFFFF0
FFFFFFFFFFFFFFFFFFF0
FFFFFFFFFFFFFFFFFFF0
FFFFFFFFFFFFFFFFFFF0
FFFFFFFFFFFFFFFFFFF0
FFFFFFFFFFFFFFFFFFF0
FFFFFFFFFFFFFFFFFFF0
FFFFFFFFFFFFFFFFFFF0
FFFFFFFFFFFFFFFFFFF0
FFFFFFFFFFFFFFFFFFF0
FFFFFFFFFFFFFFFFFFF0
FFFFFFFFFFFFFFFFFFF0
FFFFFFFFFFFFFFFFFFF0
FFFFFFFFFFFFFFFFFFF0
FFFFFFFFFFFFFFFFFFF0
FFFFFFFFFFFFFFFFFFF0
FFFFFFFFFFFFFFFFFFF0
FFFFFFFFFFFFFFFFFFF0
FFFFFFFFFFFFFFFFFFF0
FFFFFFFFFFFFFFFFFFF0
FFFFFFFFFFFFFFFFFFF0
FFFFFFFFFFFFFFFFFFF0
FFFFFFFFFFFFFFFFFFF0
FFFFFFFFFFFFFFFFFFF0
FFFFFFFFFFFFFFFFFFF0
FFFFFFFFFFFFFFFFFFF0
FFFFFFFFFFFFFFFFFFF0
FFFFFFFFFFFFFFFFFFF0
FFFFFFFFFFFFFFFFFFF0
FFFFFFFFFFFFFFFFFFF0
FFFFFFFFFFFFFFFFFFF0
FFFFFFFFFFFFFFFFFFF0
FFFFFFFFFFFFFFFFFFF0
FFFFFFFFFFFFFFFFFFF0
FFFFFFFFFFFFFFFFFFF0
FFFFFFFFFFFFFFFFFFF0
FFFFFFFFFFFFFFFFFFF0
FFFFFFFFFFFFFFFFFFF0
FFFFFFFFFFFFFFFFFFF0
FFFFFFFFFFFFFFFFFFF0
FFFFFFFFFFFFFFFFFFF0
FFFFFFFFFFFFFFFFFFF0
FFFFFFFFFFFFFFFFFFF0
FFFFFFFFFFFFFFFFFFF0
FFFFFFFFFFFFFFFFFFF0
FFFFFFFFFFFFFFFFFFF0
FFFFFFFFFFFFFFFFFFF0
FFFFFFFFFFFFFFFFFFF0
FFFFFFFFFFFFFFFFFFF0
FFFFFFFFFFFFFFFFFFF0
FFFFFFFFFFFFFFFFFFF0
FFFFFFFFFFFFFFFFFFF0
FFFFFFFFFFFFFFFFFFF0
FFFFFFFFFFFFFFFFFFF0
FFFFFFFFFFFFFFFFFFF0
FFFFFFFFFFFFFFFFFFE0
7FFFFFFFFFFFFFFFFFE0
3FFFFFFFFFFFFFFFFFC0
1FFFFFFFFFFFFFFFFF80
07FFFFFFFFFFFFFFFE00
ENDCHAR
ENDFONT
